<?xml version="1.0" encoding="UTF-8"?>
<svg id="Capa_1" data-name="Capa 1" xmlns="http://www.w3.org/2000/svg" viewBox="0 0 738 248">
  <defs>
    <style>
      .cls-1 {
        fill: #1e1f2f;
      }

      .cls-1, .cls-2 {
        stroke-width: 0px;
      }

      .cls-2 {
        fill: #fff;
      }
    </style>
  </defs>
  <rect class="cls-1" x="2.01" y="2.72" width="733.97" height="242.55" rx="121.28" ry="121.28"/>
  <g>
    <path class="cls-2" d="M153.74,145.21h-37.72c-1.69,7.96-3.17,15.71-4.45,23.24h-15.88c2.54-16.26,6.35-31.69,11.43-46.29s11.64-28.81,19.68-42.61h16.26c7.96,13.72,14.48,27.88,19.56,42.48s8.89,30.08,11.43,46.42h-15.88c-1.27-7.53-2.75-15.28-4.45-23.24ZM150.82,133.4c-3.98-14.65-9.31-28.36-16-41.15-6.69,12.95-11.98,26.67-15.88,41.15h31.88Z"/>
    <path class="cls-2" d="M197.42,167.24c-5-1.65-8.85-4-11.56-7.05-2.71-3.05-4.06-6.56-4.06-10.54,0-2.62,1.04-4.66,3.11-6.1,2.07-1.44,4.97-2.2,8.7-2.29.76,5.25,3,9.31,6.73,12.19,3.72,2.88,8.64,4.32,14.73,4.32s10.35-1.18,13.53-3.56c3.17-2.37,4.76-5.76,4.76-10.16,0-3.56-1.55-6.46-4.64-8.7-3.09-2.24-8.53-4.42-16.32-6.54-10.33-2.88-17.74-6.35-22.22-10.41-4.49-4.06-6.73-9.35-6.73-15.88,0-7.53,2.86-13.46,8.57-17.78,5.72-4.32,13.57-6.48,23.56-6.48,8.3,0,15.3,1.95,21.02,5.84,5.71,3.9,9.63,9.31,11.75,16.26-1.1,1.1-2.67,2.08-4.7,2.92-2.03.85-3.85,1.27-5.46,1.27-1.44,0-2.58-.32-3.43-.95-.85-.64-1.7-1.71-2.54-3.24-3.39-6.86-8.93-10.29-16.64-10.29-10.58,0-15.88,3.73-15.88,11.18,0,2.46.51,4.47,1.52,6.03,1.02,1.57,2.79,2.98,5.33,4.25s6.26,2.67,11.18,4.19c8.72,2.71,15.32,5.23,19.81,7.56,4.49,2.33,7.66,4.87,9.52,7.62,1.86,2.75,2.79,6.24,2.79,10.48,0,5.59-1.44,10.52-4.32,14.8-2.88,4.28-6.97,7.6-12.26,9.97-5.29,2.37-11.45,3.56-18.48,3.56-6.6,0-12.4-.83-17.4-2.48Z"/>
    <path class="cls-2" d="M276.04,167.24c-5-1.65-8.85-4-11.56-7.05-2.71-3.05-4.06-6.56-4.06-10.54,0-2.62,1.04-4.66,3.11-6.1,2.07-1.44,4.97-2.2,8.7-2.29.76,5.25,3,9.31,6.73,12.19,3.72,2.88,8.64,4.32,14.73,4.32s10.35-1.18,13.53-3.56c3.17-2.37,4.76-5.76,4.76-10.16,0-3.56-1.55-6.46-4.64-8.7-3.09-2.24-8.53-4.42-16.32-6.54-10.33-2.88-17.74-6.35-22.23-10.41-4.49-4.06-6.73-9.35-6.73-15.88,0-7.53,2.86-13.46,8.57-17.78s13.57-6.48,23.56-6.48c8.3,0,15.3,1.95,21.02,5.84,5.71,3.9,9.63,9.31,11.75,16.26-1.1,1.1-2.67,2.08-4.7,2.92-2.03.85-3.85,1.27-5.46,1.27-1.44,0-2.58-.32-3.43-.95-.85-.64-1.69-1.71-2.54-3.24-3.39-6.86-8.93-10.29-16.64-10.29-10.58,0-15.88,3.73-15.88,11.18,0,2.46.51,4.47,1.52,6.03,1.02,1.57,2.79,2.98,5.33,4.25s6.26,2.67,11.18,4.19c8.72,2.71,15.32,5.23,19.81,7.56,4.49,2.33,7.66,4.87,9.53,7.62,1.86,2.75,2.79,6.24,2.79,10.48,0,5.59-1.44,10.52-4.32,14.8-2.88,4.28-6.96,7.6-12.25,9.97-5.29,2.37-11.45,3.56-18.48,3.56-6.6,0-12.4-.83-17.4-2.48Z"/>
    <path class="cls-2" d="M340.3,136.57v-57.02h16.13v59.31c0,6.27,1.61,10.99,4.83,14.16,3.22,3.18,7.96,4.76,14.22,4.76s11.2-1.57,14.29-4.7c3.09-3.13,4.64-7.87,4.64-14.22v-59.31h16.13v57.02c0,11.26-2.88,19.6-8.64,25.02-5.76,5.42-14.56,8.13-26.42,8.13-23.45,0-35.18-11.05-35.18-33.15Z"/>
    <path class="cls-2" d="M494.35,167.18c-.85.68-2.12,1.23-3.81,1.65-1.69.42-3.47.64-5.33.64-2.46,0-4.36-.36-5.71-1.08-1.36-.72-2.41-1.92-3.17-3.62l-11.18-22.35c-1.61-3.22-3.43-5.44-5.46-6.67-2.03-1.23-4.95-1.84-8.76-1.84h-7.24v34.54h-16.13v-88.9h29.84c10.92,0,19.39,2.37,25.4,7.11,6.01,4.74,9.02,11.43,9.02,20.07,0,5.76-1.55,10.69-4.64,14.8-3.09,4.11-7.47,7.13-13.14,9.08,2.12,2.12,4.06,4.87,5.84,8.25l14.48,28.32ZM456.25,122.09c6.52,0,11.34-1.25,14.48-3.75,3.13-2.5,4.7-6.37,4.7-11.62s-1.52-9.12-4.57-11.62c-3.05-2.5-7.83-3.75-14.35-3.75h-12.83v30.73h12.57Z"/>
    <path class="cls-2" d="M560.39,156.89c0,4.49-.47,7.54-1.4,9.14-.93,1.61-2.67,2.41-5.21,2.41h-49.15v-88.9h54.74v11.56h-38.73v25.91h32.64v11.43h-32.64v28.45h39.75Z"/>
    <path class="cls-2" d="M632.97,91.23c7.49,7.79,11.24,18.71,11.24,32.77,0,8.98-1.74,16.81-5.21,23.5-3.47,6.69-8.4,11.85-14.79,15.49-6.39,3.64-13.91,5.46-22.54,5.46h-28.83v-88.9h28.83c13.38,0,23.81,3.9,31.31,11.68ZM620.77,148.45c4.87-5.63,7.3-13.74,7.3-24.32,0-22.01-9.4-33.02-28.19-33.02h-11.05v65.79h11.05c9.06,0,16.02-2.81,20.89-8.45Z"/>
  </g>
</svg>