<?xml version="1.0" encoding="utf-8"?>
<!-- Generator: Adobe Illustrator 28.2.0, SVG Export Plug-In . SVG Version: 6.00 Build 0)  -->
<svg version="1.1" id="Capa_1" xmlns="http://www.w3.org/2000/svg" xmlns:xlink="http://www.w3.org/1999/xlink" x="0px" y="0px"
	 viewBox="0 0 244 244" style="enable-background:new 0 0 244 244;" xml:space="preserve">
<style type="text/css">
	.st0{fill:#1E1F2F;}
</style>
<g>
	<path class="st0" d="M102.5,99.2c0,10.6,8.6,19.2,19.2,19.2s19.2-8.6,19.2-19.2S132.2,80,121.6,80S102.5,88.6,102.5,99.2z
		 M121.7,84.4c8.2,0,14.8,6.6,14.8,14.8s-6.6,14.8-14.8,14.8s-14.8-6.6-14.8-14.8S113.5,84.4,121.7,84.4z"/>
	<path class="st0" d="M172.1,142c0-11.7-9.5-21.2-21.2-21.2c-5.3,0-10.2,2-13.9,5.3c-1.6-0.2-3.3-0.3-5.1-0.3h-20.6
		c-17.3,0-25,7.6-25.7,25.3c-0.1,1.2,0.9,2.2,2.1,2.3c1.2,0,2.2-0.9,2.3-2.1c0.6-15.4,6.4-21.1,21.3-21.1h20.6c0.5,0,0.9,0,1.4,0
		c-2.3,3.4-3.6,7.4-3.6,11.8c0,5.3,2,10.2,5.2,13.9l-11.6,11.6c-0.8,0.9-0.8,2.2,0,3.1c0.4,0.4,1,0.6,1.6,0.6s1.1-0.2,1.6-0.6
		l11.7-11.7c3.6,2.7,8,4.3,12.8,4.3C162.6,163.2,172.1,153.7,172.1,142L172.1,142z M150.9,158.8c-9.3,0-16.8-7.5-16.8-16.8
		s7.5-16.8,16.8-16.8s16.8,7.5,16.8,16.8S160.2,158.8,150.9,158.8z"/>
	<path class="st0" d="M54.2,138.5c-0.3-1.2-1.5-1.9-2.6-1.6c-1.2,0.3-1.9,1.5-1.6,2.6c1.5,6.4,3.9,12.5,7.1,18.2
		c0.4,0.7,1.2,1.1,1.9,1.1c0.4,0,0.7-0.1,1-0.3c1.1-0.6,1.5-1.9,0.9-3C57.8,150.2,55.6,144.5,54.2,138.5z"/>
	<path class="st0" d="M50.1,120.4c1.2,0,2.1-0.9,2.2-2.1c0.3-6.2,1.5-12.2,3.4-18.1c0.4-1.2-0.2-2.4-1.4-2.8s-2.4,0.2-2.8,1.4
		c-2,6.2-3.2,12.7-3.6,19.2c-0.1,1.2,0.9,2.2,2.1,2.3C50,120.4,50.1,120.4,50.1,120.4L50.1,120.4z"/>
	<path class="st0" d="M132.3,52.9c6.1,0.9,12,2.6,17.6,5.1c0.3,0.1,0.6,0.2,0.9,0.2c0.8,0,1.6-0.5,2-1.3c0.5-1.1,0-2.4-1.1-2.9
		c-6-2.6-12.3-4.4-18.8-5.4c-1.2-0.2-2.3,0.7-2.5,1.8C130.3,51.6,131.1,52.8,132.3,52.9L132.3,52.9z"/>
	<path class="st0" d="M93.5,58.1c0.3,0,0.6-0.1,0.9-0.2c5.6-2.4,11.6-4.1,17.7-5c1.2-0.2,2-1.3,1.9-2.5s-1.3-2-2.5-1.9
		c-6.5,0.9-12.8,2.7-18.8,5.3c-1.1,0.5-1.6,1.8-1.1,2.9C91.8,57.6,92.6,58.1,93.5,58.1L93.5,58.1z"/>
	<path class="st0" d="M77.1,68.5c0.9-0.8,1-2.2,0.3-3.1s-2.2-1-3.1-0.3c-5,4.2-9.4,9.1-13.2,14.4c-0.7,1-0.5,2.4,0.5,3.1
		c0.4,0.3,0.8,0.4,1.2,0.4c0.7,0,1.4-0.3,1.8-0.9C68.2,77.1,72.4,72.5,77.1,68.5L77.1,68.5z"/>
	<path class="st0" d="M192.4,137.2c-1.2-0.3-2.4,0.4-2.6,1.6c-1.5,6-3.7,11.7-6.7,17.1c-0.6,1.1-0.2,2.4,0.9,3
		c0.3,0.2,0.7,0.3,1.1,0.3c0.8,0,1.5-0.4,1.9-1.1c3.2-5.7,5.6-11.8,7.2-18.2C194.3,138.7,193.6,137.5,192.4,137.2L192.4,137.2z"/>
	<path class="st0" d="M192.6,99.2c-0.4-1.2-1.6-1.8-2.8-1.4c-1.1,0.4-1.8,1.6-1.4,2.8c1.9,5.8,3,11.9,3.3,18.1
		c0.1,1.2,1,2.1,2.2,2.1c0,0,0.1,0,0.1,0c1.2-0.1,2.1-1.1,2.1-2.3C195.8,111.9,194.6,105.4,192.6,99.2z"/>
	<path class="st0" d="M183.1,79.9c-3.7-5.4-8.1-10.2-13.1-14.5c-0.9-0.8-2.3-0.7-3.1,0.2c-0.8,0.9-0.7,2.3,0.2,3.1
		c4.7,4,8.8,8.6,12.3,13.6c0.4,0.6,1.1,0.9,1.8,0.9c0.4,0,0.9-0.1,1.2-0.4C183.5,82.2,183.8,80.9,183.1,79.9L183.1,79.9z"/>
	<path class="st0" d="M87.7,182.8c-5.3-3-10.3-6.7-14.7-11.1c-0.9-0.9-2.2-0.8-3.1,0c-0.8,0.9-0.8,2.2,0,3.1
		c4.7,4.6,9.9,8.5,15.6,11.7c0.3,0.2,0.7,0.3,1.1,0.3c0.8,0,1.5-0.4,1.9-1.1C89.2,184.8,88.8,183.4,87.7,182.8L87.7,182.8z"/>
	<path class="st0" d="M170.7,172c-4.4,4.3-9.4,8-14.7,11c-1.1,0.6-1.4,1.9-0.8,3c0.4,0.7,1.1,1.1,1.9,1.1c0.4,0,0.7-0.1,1.1-0.3
		c5.7-3.2,11-7.1,15.6-11.7c0.9-0.8,0.9-2.2,0-3.1C172.9,171.2,171.6,171.2,170.7,172L170.7,172z"/>
	<path class="st0" d="M137,190.2c-3.9,0.9-8,1.4-12.1,1.6c-6.2,0.3-12.3-0.3-18.3-1.6c-1.2-0.3-2.3,0.5-2.6,1.7
		c-0.3,1.2,0.5,2.4,1.7,2.6c5.3,1.2,10.8,1.8,16.2,1.8c1.1,0,2.1,0,3.2-0.1c4.3-0.2,8.6-0.7,12.8-1.7c1.2-0.3,1.9-1.4,1.7-2.6
		S138.2,189.9,137,190.2L137,190.2z"/>
</g>
</svg>