<?xml version="1.0" encoding="utf-8"?>
<!-- Generator: Adobe Illustrator 28.2.0, SVG Export Plug-In . SVG Version: 6.00 Build 0)  -->
<svg version="1.1" id="Capa_1" xmlns="http://www.w3.org/2000/svg" xmlns:xlink="http://www.w3.org/1999/xlink" x="0px" y="0px"
	 viewBox="0 0 244 244" style="enable-background:new 0 0 244 244;" xml:space="preserve">
<style type="text/css">
	.st0{fill:#1E1F2F;}
</style>
<g>
	<path class="st0" d="M50.1,120.3c1.2,0,2.1-0.9,2.2-2.1c0.3-6.2,1.5-12.2,3.4-18.1c0.4-1.2-0.2-2.4-1.4-2.8
		c-1.2-0.4-2.4,0.2-2.8,1.4c-2,6.2-3.2,12.6-3.6,19.2c-0.1,1.2,0.9,2.2,2.1,2.3C50,120.3,50.1,120.3,50.1,120.3L50.1,120.3z"/>
	<path class="st0" d="M54.2,138.5c-0.3-1.2-1.5-1.9-2.6-1.6s-1.9,1.5-1.6,2.6c1.5,6.3,3.9,12.5,7.1,18.2c0.4,0.7,1.2,1.1,1.9,1.1
		c0.4,0,0.7-0.1,1-0.3c1.1-0.6,1.4-1.9,0.9-3C57.8,150.2,55.6,144.5,54.2,138.5z"/>
	<path class="st0" d="M77.1,68.5c0.9-0.8,1.1-2.2,0.3-3.1c-0.8-0.9-2.2-1-3.1-0.3c-5,4.2-9.4,9.1-13.2,14.4c-0.7,1-0.5,2.4,0.5,3.1
		c0.4,0.3,0.8,0.4,1.2,0.4c0.7,0,1.4-0.3,1.8-0.9C68.2,77,72.4,72.5,77.1,68.5L77.1,68.5z"/>
	<path class="st0" d="M192.6,99.2c-0.4-1.2-1.6-1.8-2.8-1.4c-1.1,0.4-1.8,1.6-1.4,2.8c1.9,5.8,3,11.9,3.3,18.1
		c0.1,1.2,1,2.1,2.2,2.1c0,0,0.1,0,0.1,0c1.2-0.1,2.1-1.1,2.1-2.3C195.8,111.9,194.6,105.4,192.6,99.2L192.6,99.2z"/>
	<path class="st0" d="M132.4,53c6.1,0.9,12,2.6,17.6,5.1c0.3,0.1,0.6,0.2,0.9,0.2c0.8,0,1.6-0.5,2-1.3c0.5-1.1,0-2.4-1.1-2.9
		c-6-2.6-12.3-4.4-18.8-5.4c-1.2-0.2-2.3,0.7-2.5,1.8C130.3,51.7,131.1,52.8,132.4,53L132.4,53z"/>
	<path class="st0" d="M93.5,58c0.3,0,0.6-0.1,0.9-0.2c5.6-2.4,11.6-4.1,17.7-5c1.2-0.2,2-1.3,1.9-2.5s-1.3-2-2.5-1.9
		c-6.5,0.9-12.8,2.7-18.8,5.3c-1.1,0.5-1.6,1.8-1.1,2.9C91.9,57.6,92.7,58,93.5,58L93.5,58z"/>
	<path class="st0" d="M183.1,79.9c-3.7-5.4-8.1-10.2-13.1-14.5c-0.9-0.8-2.3-0.7-3.1,0.2c-0.8,0.9-0.7,2.3,0.2,3.1
		c4.7,4,8.8,8.6,12.3,13.6c0.4,0.6,1.1,0.9,1.8,0.9c0.4,0,0.9-0.1,1.2-0.4C183.5,82.3,183.8,80.9,183.1,79.9L183.1,79.9z"/>
	<path class="st0" d="M192.4,137.3c-1.2-0.3-2.4,0.4-2.6,1.6c-1.5,5.9-3.8,11.7-6.8,17.1c-0.6,1.1-0.2,2.4,0.9,3
		c0.3,0.2,0.7,0.3,1.1,0.3c0.8,0,1.5-0.4,1.9-1.1c3.2-5.7,5.6-11.8,7.2-18.1C194.3,138.8,193.6,137.6,192.4,137.3L192.4,137.3z"/>
	<path class="st0" d="M165,94.8h-38c-4,0-7.2,3.2-7.2,7.2v32.2c-0.9-0.4-1.8-0.6-2.8-0.6H79c-4,0-7.2,3.2-7.2,7.2V194
		c0,1.2,1,2.2,2.2,2.2h96c1.2,0,2.2-1,2.2-2.2v-92C172.2,98,169,94.8,165,94.8L165,94.8z M76.2,140.8c0-1.6,1.3-2.8,2.8-2.8h38
		c1.6,0,2.8,1.3,2.8,2.8v51H76.2C76.2,191.8,76.2,140.8,76.2,140.8z M167.9,191.8h-43.6V102c0-1.6,1.3-2.8,2.8-2.8h38
		c1.6,0,2.8,1.3,2.8,2.8V191.8z"/>
	<path class="st0" d="M152,133.6h-12c-1.2,0-2.2,1-2.2,2.2s1,2.2,2.2,2.2h12c1.2,0,2.2-1,2.2-2.2S153.2,133.6,152,133.6z"/>
	<path class="st0" d="M152,114.2h-12c-1.2,0-2.2,1-2.2,2.2s1,2.2,2.2,2.2h12c1.2,0,2.2-1,2.2-2.2S153.2,114.2,152,114.2z"/>
	<path class="st0" d="M152,153h-12c-1.2,0-2.2,1-2.2,2.2s1,2.2,2.2,2.2h12c1.2,0,2.2-1,2.2-2.2S153.2,153,152,153z"/>
	<path class="st0" d="M104,172.4H92c-1.2,0-2.2,1-2.2,2.2s1,2.2,2.2,2.2h12c1.2,0,2.2-1,2.2-2.2S105.2,172.4,104,172.4z"/>
	<path class="st0" d="M152,172.4h-12c-1.2,0-2.2,1-2.2,2.2s1,2.2,2.2,2.2h12c1.2,0,2.2-1,2.2-2.2S153.2,172.4,152,172.4z"/>
	<path class="st0" d="M104,153H92c-1.2,0-2.2,1-2.2,2.2s1,2.2,2.2,2.2h12c1.2,0,2.2-1,2.2-2.2S105.2,153,104,153z"/>
</g>
</svg>