<?xml version="1.0" encoding="UTF-8" standalone="no"?>
<svg
   width="353.03906pt"
   height="76.496094pt"
   viewBox="0 0 353.03905 76.496092"
   version="1.1"
   id="svg44"
   xmlns="http://www.w3.org/2000/svg"
   xmlns:svg="http://www.w3.org/2000/svg">
  <defs
     id="defs44" />
  <path
     fill-rule="nonzero"
     fill="#e84610"
     fill-opacity="1"
     d="M 86.132819,32.300781 V 11.074219 l -0.0195,-0.01953 C 85.929729,5.433595 82.378949,1.785157 76.753949,0.878907 v 21.230469 l 0.0195,0.01953 c 0.18359,5.617188 3.73438,9.269532 9.35938,10.171875"
     id="path1" />
  <path
     fill-rule="nonzero"
     fill="#e84610"
     fill-opacity="1"
     d="m 76.675779,50.4375 -0.0195,0.01953 v 25.167969 c 5.625,-0.90234 9.17578,-4.55078 9.36328,-10.171875 l 0.0156,-0.01953 V 40.265625 c -5.625,0.902344 -9.17188,4.550781 -9.35938,10.171875"
     id="path2" />
  <path
     fill-rule="nonzero"
     fill="#e84610"
     fill-opacity="1"
     d="m 123.60938,65.433594 0.0195,0.01953 c 0.18359,5.621095 3.73437,9.269535 9.35937,10.171875 V 50.457031 l -0.0195,-0.01953 c -0.18359,-5.621094 -3.73437,-9.269531 -9.35937,-10.175781 z m 0,0"
     id="path3" />
  <path
     fill-rule="nonzero"
     fill="#e84610"
     fill-opacity="1"
     d="m 123.62891,11.054688 -0.0195,0.01953 V 32.30078 c -0.96875,0.109375 -1.9375,0.214844 -2.90625,0.214844 H 88.941439 c -0.96875,0 -2.04297,-0.105469 -2.90625,-0.214844 v 0.0039 c 1.98828,0.234374 3.53516,1.925781 3.53516,3.976562 0,2.050781 -1.54688,3.742188 -3.53516,3.976562 v 0.0078 c 0.86328,-0.109375 1.9375,-0.214844 2.90625,-0.214844 h 31.761721 c 0.96875,0 1.9375,0.105469 2.90625,0.214844 v -0.01563 c -2.0625,-0.152344 -3.69141,-1.867188 -3.69141,-3.964844 0,-2.101562 1.62891,-3.820312 3.69141,-3.96875 v 0.0039 c 5.625,-0.902343 9.17578,-4.550781 9.35937,-10.171874 l 0.0195,-0.01953 V 0.882812 c -5.625,0.902344 -9.17578,4.550782 -9.35937,10.171876"
     id="path4" />
  <path
     fill-rule="nonzero"
     fill="#e84610"
     fill-opacity="1"
     d="m 253.14844,8.167969 -1.28516,-4.070313 c -0.004,-0.01953 -0.0156,-0.03516 -0.0195,-0.05469 h 0.0117 c -0.25391,-0.835938 -0.65625,-1.601563 -1.20703,-2.242188 -0.008,-0.0039 -0.0117,-0.01172 -0.0156,-0.01953 -0.15234,-0.171875 -0.32031,-0.332031 -0.49609,-0.488281 -0.0391,-0.03516 -0.0781,-0.07422 -0.125,-0.109375 C 249.11723,0.449217 247.93754,-2e-6 246.4766,-2e-6 c -1.85937,0 -3.13281,0.644531 -4.04296,1.71875 -0.14063,0.160156 -0.26954,0.339844 -0.39454,0.523438 -0.0195,0.02734 -0.0391,0.05078 -0.0586,0.08203 -0.13672,0.210937 -0.26172,0.433593 -0.37891,0.667969 -0.0156,0.03516 -0.0351,0.07031 -0.0547,0.101562 -0.0742,0.15625 -0.14063,0.320312 -0.20703,0.488281 -0.0469,0.109375 -0.0977,0.207031 -0.14063,0.320313 h 0.0156 c -0.0274,0.06641 -0.0547,0.128906 -0.0781,0.195312 l -1.28516,4.070313 c 1.98438,-0.441407 4.19922,-0.707031 6.64844,-0.707031 2.44922,0 4.66406,0.265624 6.64844,0.707031"
     id="path5" />
  <path
     fill-rule="nonzero"
     fill="#e84610"
     fill-opacity="1"
     d="m 266.94141,29.328125 c 0,0 -1.98828,-6.8125 -3.02735,-11.332031 -1.27343,-5.550782 -6.36718,-8.824219 -10.76953,-9.828125 L 260.75,39.988281 c 3.88672,-1.722656 7.35938,-6.421875 6.19141,-10.660156"
     id="path6" />
  <path
     fill-rule="nonzero"
     fill="#e84610"
     fill-opacity="1"
     d="m 274.29297,56.222656 -0.0508,-0.04687 -0.12109,-0.496093 c -1.67969,-6.121094 -5.9375,-9.082032 -11.58594,-8.417969 l -0.20703,0.01172 c -2.11719,0 -3.875,-1.667969 -3.875,-3.785157 0,-1.554687 0.92578,-2.890625 2.25781,-3.492187 0.0156,-0.0039 0.0312,-0.0039 0.0391,-0.0039 l -0.0273,-0.121094 c -0.53516,0.132812 -1.8125,0.09375 -2.59766,0.09375 0,0 -18.28125,0.183594 -24.03125,0.03125 -0.6289,-0.01953 -1.34375,0.01563 -1.82422,-0.101563 l 7.58203,-31.726562 c -4.39843,1.003906 -9.49218,4.277343 -10.76562,9.828125 -1.03906,4.519531 -3.02734,11.332031 -3.02734,11.332031 -1.16016,4.207031 2.25,8.859375 6.09765,10.613281 1.30469,0.613282 2.20703,1.933594 2.20703,3.46875 0,2.121094 -1.71484,3.835938 -3.83593,3.835938 -0.0781,0 -0.15625,-0.0078 -0.23438,-0.01172 -5.37109,-0.519531 -9.50391,2.285156 -10.92969,7.921875 l -0.6289,2.277344 h -0.008 l -4.98046,18.089846 c 5.67187,0.68359 9.94531,-2.27344 11.6289,-8.414065 l 0.1211,-0.496094 0.0508,-0.04687 4.72265,-19.183594 c 0.69532,-0.101562 1.5625,-0.1875 2.34375,-0.1875 h 27.39844 c 0.78125,0 1.73047,0.08594 2.51172,0.1875 l 4.94531,17.976563 0.0117,-0.0039 0.62891,2.28125 c 1.42578,5.640621 5.5625,8.425781 10.9414,7.902341 z m 0,0"
     id="path7" />
  <path
     fill-rule="nonzero"
     fill="#e84610"
     fill-opacity="1"
     d="M 51.843751,11.339844 C 51.503908,10.570312 46.57422,0.03125 33.750001,0.03125 20.812501,0.03515 15.808595,11.09375 15.679689,11.375 15.195314,11.613281 0.00390774,19.222656 7.4109727e-7,38.398438 -0.00389926,58.03125 15.433595,65.074219 15.687501,65.191406 c 0.351563,0.765625 5.421876,11.304684 18.050782,11.304684 12.59375,0.004 17.574218,-10.160152 18.070312,-11.249996 8.015625,-3.722656 11.816406,-10.113282 11.816406,-18.25 V 40.078125 H 39.44922 c -4.265625,0 -7.707031,3.0625 -7.707031,7.210937 h 15.417969 v -0.0078 h 7.582031 v 3.640625 c 0,5.21875 -0.914062,10.132813 -2.941406,14.238281 -19.996094,6.816404 -35.621094,0.203125 -36.125,-0.01172 -10.1875003,-29.863282 -0.242188,-53.175782 0.01172,-53.765626 0.492188,-0.210937 16.140626,-6.835937 36.160157,0 1.824219,3.871094 1.15625,4.859376 1.574219,8.3125 0.730468,6.097657 5.800781,8.550782 10.558592,8.550782 l 1.44922,-0.03516 c 0,0 0.24219,-4.277344 -1.585938,-7.675782 -2.414062,-4.480468 -7.542968,-7.453125 -12,-9.195312"
     id="path8" />
  <path
     fill-rule="nonzero"
     fill="#e84610"
     fill-opacity="1"
     d="M 195.80078,11.339844 C 195.45703,10.570312 190.53125,0.03125 177.70703,0.03125 c -12.9375,0.0039 -17.9414,11.0625 -18.0664,11.34375 -0.48828,0.238281 -15.6836,7.847656 -15.6836,27.023438 -0.004,19.632812 15.4336,26.675781 15.6875,26.792968 0.35157,0.765625 5.42188,11.304684 18.05078,11.304684 12.59375,0.004 17.57422,-10.160152 18.07032,-11.249996 8.01172,-3.722656 11.8164,-10.113282 11.8164,-18.25 v -6.917969 h -24.17578 c -4.26562,0 -7.70703,3.0625 -7.70703,7.210937 h 15.41797 v -0.0078 h 7.58594 v 3.640625 c 0,5.21875 -0.91797,10.132813 -2.94532,14.238281 -19.99609,6.816404 -35.62109,0.203125 -36.125,-0.01172 -10.1875,-29.863282 -0.24218,-53.175782 0.0117,-53.765626 0.49219,-0.210937 16.13672,-6.835937 36.16016,0 1.82422,3.871094 1.16016,4.859376 1.57422,8.3125 0.73047,6.097657 5.80078,8.550782 10.55859,8.550782 l 1.44922,-0.03516 c 0,0 0.24219,-4.277344 -1.58594,-7.675782 -2.41406,-4.480468 -7.54297,-7.453125 -12,-9.195312"
     id="path9" />
  <path
     fill-rule="nonzero"
     fill="#e84610"
     fill-opacity="1"
     d="m 292.60938,23.800781 h 1.67968 V 28 h 1.57032 v -4.199219 h 1.73828 v -1.355469 h -4.98828 z m 0,0"
     id="path10" />
  <path
     fill-rule="nonzero"
     fill="#e84610"
     fill-opacity="1"
     d="m 305.3086,24.539062 h -1.79297 v -2.09375 h -1.57032 V 28 h 1.57032 v -2.078125 h 1.79297 V 28 h 1.57421 v -5.554688 h -1.57421 z m 0,0"
     id="path11" />
  <path
     fill-rule="nonzero"
     fill="#e84610"
     fill-opacity="1"
     d="m 313.15235,26.707031 v -0.914062 h 2.21484 v -1.222657 h -2.21484 v -0.832031 h 2.53125 v -1.292969 h -4.03907 V 28 h 4.15625 v -1.292969 z m 0,0"
     id="path12" />
  <path
     fill-rule="nonzero"
     fill="#e84610"
     fill-opacity="1"
     d="m 296,43.546875 h -1.79297 v -2.097656 h -1.57031 v 5.554687 h 1.57031 V 44.925781 H 296 v 2.078125 h 1.57031 V 41.449219 H 296 Z m 0,0"
     id="path13" />
  <path
     fill-rule="nonzero"
     fill="#e84610"
     fill-opacity="1"
     d="m 305.3086,44.800781 c 0,0.171875 -0.0391,0.328125 -0.11719,0.460938 -0.0781,0.136719 -0.1836,0.242187 -0.31641,0.320312 -0.13281,0.07422 -0.28515,0.113281 -0.46094,0.113281 -0.16015,0 -0.30468,-0.03906 -0.43359,-0.113281 -0.12891,-0.07813 -0.23047,-0.183593 -0.30469,-0.320312 -0.0742,-0.132813 -0.11328,-0.289063 -0.11328,-0.460938 v -3.351562 h -1.58594 v 3.421875 c 0,0.421875 0.10547,0.796875 0.31641,1.125 0.20703,0.328125 0.49609,0.585937 0.86328,0.773437 0.36719,0.191407 0.78516,0.28125 1.25781,0.28125 0.47657,0 0.89454,-0.08984 1.26172,-0.28125 0.36328,-0.1875 0.65235,-0.445312 0.86328,-0.773437 0.20704,-0.328125 0.3125,-0.703125 0.3125,-1.125 v -3.421875 h -1.54296 z m 0,0"
     id="path14" />
  <path
     fill-rule="nonzero"
     fill="#e84610"
     fill-opacity="1"
     d="m 313.73828,43.875 -1.49218,-2.425781 h -1.3711 v 5.554687 h 1.51563 v -1.484375 c 0,-0.511719 -0.0117,-0.953125 -0.0352,-1.328125 -0.004,-0.05859 -0.0117,-0.117187 -0.0156,-0.175781 l 1.10546,1.75 h 0.52344 L 315.11326,44 c -0.008,0.07813 -0.0156,0.15625 -0.0195,0.234375 -0.0234,0.382813 -0.0351,0.8125 -0.0351,1.285156 v 1.484375 h 1.51171 v -5.554687 h -1.32421 z m 0,0"
     id="path15" />
  <path
     fill-rule="nonzero"
     fill="#e84610"
     fill-opacity="1"
     d="m 322.47266,44.972656 0.20312,-0.546875 c 0.0547,-0.148437 0.10157,-0.28125 0.14844,-0.402343 0.043,-0.125 0.082,-0.238282 0.12109,-0.351563 0.0274,-0.07813 0.0508,-0.164063 0.0781,-0.25 0.0234,0.08594 0.0469,0.167969 0.0742,0.25 0.0351,0.117187 0.0742,0.234375 0.11719,0.359375 0.043,0.121094 0.0898,0.253906 0.14453,0.394531 l 0.19922,0.546875 z m -0.0664,-3.523437 -2.21484,5.554687 h 1.53125 l 0.33984,-0.917968 h 1.90625 l 0.33985,0.917968 h 1.5664 l -2.19922,-5.554687 z m 0,0"
     id="path16" />
  <path
     fill-rule="nonzero"
     fill="#e84610"
     fill-opacity="1"
     d="M 333.39453,41.449219 V 43.1875 c 0,0.171875 0.004,0.328125 0.0117,0.46875 0.008,0.144531 0.0195,0.285156 0.0312,0.429688 0.0117,0.140624 0.0312,0.292968 0.0469,0.449218 0.004,0.03125 0.008,0.0625 0.0117,0.08984 l -2.31641,-3.175781 h -1.40234 v 5.554687 h 1.51562 v -1.648437 c 0,-0.167969 -0.004,-0.320313 -0.004,-0.453125 -0.004,-0.132813 -0.008,-0.257813 -0.0156,-0.371094 -0.0117,-0.117188 -0.0195,-0.238281 -0.0312,-0.367188 -0.008,-0.07812 -0.0156,-0.167968 -0.0234,-0.261718 l 2.26953,3.101562 h 1.42188 v -5.554687 z m 0,0"
     id="path17" />
  <path
     fill-rule="nonzero"
     fill="#e84610"
     fill-opacity="1"
     d="m 297.89063,34.574219 c -0.008,-0.117188 -0.0156,-0.207031 -0.0234,-0.265625 h -2.67969 v 1.140625 h 1.24219 c -0.0117,0.09375 -0.0312,0.179687 -0.0664,0.261719 -0.0547,0.109374 -0.1289,0.210937 -0.21875,0.292968 -0.0937,0.08203 -0.20312,0.144532 -0.33203,0.191406 -0.125,0.05078 -0.26172,0.07422 -0.41015,0.07422 -0.21094,0 -0.41016,-0.03906 -0.58985,-0.117187 -0.18359,-0.07813 -0.34375,-0.183594 -0.47265,-0.320313 -0.13287,-0.13672 -0.23834,-0.300782 -0.31255,-0.488282 -0.0742,-0.1875 -0.10938,-0.390625 -0.10938,-0.605469 0,-0.222656 0.0352,-0.429687 0.10547,-0.617187 0.0742,-0.1875 0.17187,-0.347656 0.30078,-0.484375 0.125,-0.132813 0.27344,-0.238281 0.44531,-0.316407 0.17188,-0.07422 0.36328,-0.113281 0.57032,-0.113281 0.18359,0 0.35156,0.02344 0.5039,0.07031 0.14844,0.04687 0.28906,0.109375 0.41797,0.191406 0.13281,0.07813 0.25391,0.171875 0.37109,0.285156 l 0.9336,-1 c -0.15625,-0.167968 -0.34766,-0.324218 -0.57031,-0.460937 -0.22266,-0.136719 -0.47266,-0.246094 -0.75,-0.324219 -0.27735,-0.08203 -0.57422,-0.121094 -0.88282,-0.121094 -0.45703,0 -0.87109,0.07422 -1.24218,0.214844 -0.375,0.144531 -0.69922,0.34375 -0.97266,0.605469 -0.27344,0.257812 -0.48438,0.5625 -0.63281,0.914062 -0.14453,0.351563 -0.21485,0.738281 -0.21485,1.15625 0,0.410157 0.0625,0.792969 0.19532,1.148438 0.13281,0.355469 0.32812,0.660156 0.58593,0.921875 0.25782,0.257812 0.56641,0.460937 0.9336,0.601562 0.36328,0.144532 0.77343,0.214844 1.23437,0.214844 0.38672,0 0.74219,-0.0625 1.0625,-0.183594 0.32422,-0.121094 0.60547,-0.289062 0.84375,-0.507812 0.23438,-0.214844 0.42188,-0.476563 0.55469,-0.777344 0.13281,-0.300781 0.19922,-0.628906 0.19922,-0.984375 0,-0.04687 -0.004,-0.128906 -0.004,-0.246094 -0.004,-0.113281 -0.008,-0.234375 -0.0156,-0.351562"
     id="path18" />
  <path
     fill-rule="nonzero"
     fill="#e84610"
     fill-opacity="1"
     d="m 303.84375,35.339844 h 2.21094 v -1.222656 h -2.21094 v -0.832032 h 2.53125 v -1.292968 h -4.03906 v 5.554687 h 4.15625 v -1.292969 h -2.64844 z m 0,0"
     id="path19" />
  <path
     fill-rule="nonzero"
     fill="#e84610"
     fill-opacity="1"
     d="m 312.82813,33.253906 h 0.80859 c 0.15234,0 0.28125,0.02344 0.38281,0.07422 0.10547,0.05078 0.1836,0.121094 0.23438,0.214844 0.0547,0.09375 0.082,0.203125 0.082,0.328125 0,0.132812 -0.0273,0.246094 -0.0781,0.347656 -0.0469,0.09766 -0.12109,0.171875 -0.21484,0.226562 -0.0898,0.05859 -0.20703,0.08594 -0.34375,0.08594 h -0.87109 z m 2.09375,2.160156 c 0.29687,-0.160156 0.52734,-0.382812 0.69531,-0.667968 0.16406,-0.289063 0.25,-0.613282 0.25,-0.984375 0,-0.34375 -0.0859,-0.648438 -0.25,-0.914063 -0.16797,-0.265625 -0.39844,-0.472656 -0.69531,-0.625 -0.29688,-0.15625 -0.63282,-0.230468 -1.00782,-0.230468 h -2.5625 v 5.554687 h 1.47657 V 35.65625 h 0.43359 l 1.06641,1.890625 h 1.76562 L 314.8711,35.4375 c 0.0156,-0.0078 0.0351,-0.01172 0.0508,-0.02344"
     id="path20" />
  <path
     fill-rule="nonzero"
     fill="#e84610"
     fill-opacity="1"
     d="m 323.04688,34.414062 -1.48828,-2.421874 h -1.375 v 5.554687 h 1.51562 V 36.0625 c 0,-0.515625 -0.0117,-0.957031 -0.0352,-1.328125 -0.004,-0.0625 -0.0117,-0.117187 -0.0156,-0.179687 l 1.10937,1.753906 h 0.51954 l 1.14453,-1.769532 c -0.008,0.07813 -0.0156,0.15625 -0.0195,0.238282 -0.0234,0.378906 -0.0352,0.808594 -0.0352,1.285156 v 1.484375 h 1.51562 v -5.554687 h -1.32812 z m 0,0"
     id="path21" />
  <path
     fill-rule="nonzero"
     fill="#e84610"
     fill-opacity="1"
     d="m 331.78125,35.515625 0.20313,-0.550781 c 0.0547,-0.144532 0.10156,-0.28125 0.14843,-0.402344 0.043,-0.121094 0.0859,-0.238281 0.1211,-0.347656 0.0273,-0.08203 0.0547,-0.164063 0.0781,-0.25 0.0234,0.08203 0.0469,0.167968 0.0742,0.25 0.0352,0.113281 0.0781,0.234375 0.11719,0.355468 0.043,0.121094 0.0937,0.253907 0.14453,0.394532 l 0.20313,0.550781 z m -0.0664,-3.523437 -2.21094,5.554687 h 1.53125 L 331.3711,36.625 h 1.91015 l 0.33985,0.921875 h 1.5625 l -2.19922,-5.554687 z m 0,0"
     id="path22" />
  <path
     fill-rule="nonzero"
     fill="#e84610"
     fill-opacity="1"
     d="m 342.70313,31.992188 v 1.738281 c 0,0.167969 0.004,0.324219 0.0117,0.464843 0.008,0.144532 0.0195,0.285157 0.0312,0.429688 0.0156,0.144531 0.0273,0.292969 0.0469,0.453125 0.004,0.02734 0.008,0.05859 0.0117,0.08594 l -2.31641,-3.171874 h -1.40228 v 5.554687 h 1.51562 v -1.652344 c 0,-0.167969 -0.004,-0.320312 -0.004,-0.453125 -0.004,-0.132812 -0.008,-0.253906 -0.0156,-0.371094 -0.008,-0.117187 -0.0195,-0.238281 -0.0273,-0.363281 -0.008,-0.08203 -0.0156,-0.171875 -0.0273,-0.265625 l 2.26953,3.105469 h 1.42187 v -5.554687 z m 0,0"
     id="path23" />
  <path
     fill-rule="nonzero"
     fill="#e84610"
     fill-opacity="1"
     d="m 297.89063,53.605469 c -0.008,-0.121094 -0.0156,-0.210938 -0.0234,-0.265625 h -2.67969 v 1.140625 h 1.24219 c -0.0117,0.08984 -0.0312,0.175781 -0.0664,0.257812 -0.0547,0.113281 -0.1289,0.210938 -0.21875,0.292969 -0.0937,0.08203 -0.20312,0.148438 -0.33203,0.195312 -0.125,0.04688 -0.26172,0.07031 -0.41015,0.07031 -0.21094,0 -0.41016,-0.03516 -0.58985,-0.113281 -0.18359,-0.07813 -0.34375,-0.183594 -0.47265,-0.324219 -0.13282,-0.136719 -0.23829,-0.296875 -0.3125,-0.484375 -0.0742,-0.1875 -0.10938,-0.390625 -0.10938,-0.609375 0,-0.222656 0.0352,-0.425781 0.10547,-0.613281 0.0742,-0.1875 0.17187,-0.351563 0.30078,-0.484375 0.125,-0.136719 0.27344,-0.242188 0.44531,-0.316407 0.17188,-0.07812 0.36328,-0.117187 0.57032,-0.117187 0.18359,0 0.35156,0.02344 0.5039,0.07422 0.14844,0.04687 0.28906,0.109375 0.41797,0.1875 0.13281,0.07813 0.25391,0.175781 0.37109,0.285156 l 0.9336,-1 c -0.15625,-0.167969 -0.34766,-0.320312 -0.57031,-0.457031 -0.22266,-0.140625 -0.47266,-0.246094 -0.75,-0.324219 -0.27735,-0.08203 -0.57422,-0.121094 -0.88282,-0.121094 -0.45703,0 -0.87109,0.07031 -1.24218,0.214844 -0.375,0.140625 -0.69922,0.34375 -0.97266,0.601562 -0.27344,0.257813 -0.48438,0.566407 -0.63281,0.917969 -0.14453,0.351563 -0.21485,0.734375 -0.21485,1.152344 0,0.414063 0.0625,0.796875 0.19532,1.152344 0.13281,0.351562 0.32812,0.660156 0.58593,0.917969 0.25782,0.261718 0.56641,0.460937 0.9336,0.605468 0.36328,0.140625 0.77343,0.214844 1.23437,0.214844 0.38672,0 0.74219,-0.0625 1.0625,-0.183594 0.32422,-0.121094 0.60547,-0.292968 0.84375,-0.507812 0.23438,-0.214844 0.42188,-0.476563 0.55469,-0.777344 0.13281,-0.300781 0.19922,-0.628906 0.19922,-0.984375 0,-0.04687 -0.004,-0.128906 -0.004,-0.246094 -0.004,-0.117187 -0.008,-0.234375 -0.0156,-0.351562"
     id="path24" />
  <path
     fill-rule="nonzero"
     fill="#e84610"
     fill-opacity="1"
     d="m 303.84375,54.371094 h 2.21094 v -1.222656 h -2.21094 V 52.3125 h 2.53125 v -1.292969 h -4.03906 v 5.554688 h 4.15625 V 55.28125 h -2.64844 z m 0,0"
     id="path25" />
  <path
     fill-rule="nonzero"
     fill="#e84610"
     fill-opacity="1"
     d="m 314.77344,52.1875 v 0.570312 c 0,0.171876 0.004,0.328126 0.0117,0.46875 0.008,0.144532 0.0195,0.285157 0.0312,0.429688 0.0156,0.140625 0.0312,0.292969 0.0508,0.453125 0,0.02734 0.008,0.05859 0.0117,0.08594 l -2.32031,-3.171874 h -1.40235 v 5.550781 h 1.51563 v -1.648438 c 0,-0.171875 0,-0.320312 -0.004,-0.453125 -0.004,-0.132812 -0.008,-0.257812 -0.0156,-0.375 -0.008,-0.113281 -0.0195,-0.234375 -0.0274,-0.363281 -0.008,-0.07813 -0.0156,-0.167969 -0.0273,-0.261719 l 2.27344,3.101563 h 1.41796 v -5.550781 h -1.51562 z m 0,0"
     id="path26" />
  <path
     fill-rule="nonzero"
     fill="#e84610"
     fill-opacity="1"
     d="m 324.27735,54.339844 c -0.0664,0.171875 -0.16016,0.324218 -0.28125,0.453125 -0.1211,0.132812 -0.26172,0.230469 -0.42969,0.300781 -0.16016,0.06641 -0.33985,0.101562 -0.53125,0.101562 -0.19531,0 -0.375,-0.03516 -0.53516,-0.101562 -0.16797,-0.07031 -0.30859,-0.167969 -0.42969,-0.300781 -0.125,-0.128907 -0.21875,-0.28125 -0.28125,-0.453125 -0.0664,-0.175782 -0.10156,-0.367188 -0.10156,-0.574219 0,-0.210937 0.0352,-0.402344 0.10156,-0.574219 0.0625,-0.171875 0.15625,-0.324218 0.28125,-0.453125 0.1211,-0.128906 0.26172,-0.226562 0.42969,-0.296875 0.16016,-0.07031 0.33985,-0.101562 0.53516,-0.101562 0.1914,0 0.37109,0.03125 0.53125,0.101562 0.16797,0.07031 0.30859,0.167969 0.42969,0.296875 0.12109,0.128907 0.21484,0.28125 0.28125,0.457031 0.0664,0.175782 0.10156,0.363282 0.10156,0.570313 0,0.207031 -0.0352,0.398437 -0.10156,0.574219 m 0.875,-2.644532 c -0.26954,-0.257812 -0.58204,-0.460937 -0.9375,-0.601562 -0.35547,-0.144531 -0.75,-0.214844 -1.17969,-0.214844 -0.42578,0 -0.82031,0.07031 -1.17969,0.214844 -0.35937,0.140625 -0.67187,0.34375 -0.9375,0.601562 -0.26562,0.257813 -0.46875,0.5625 -0.61328,0.914063 -0.14844,0.347656 -0.21875,0.734375 -0.21875,1.15625 0,0.417969 0.0703,0.804687 0.21875,1.15625 0.14453,0.351563 0.34766,0.65625 0.61328,0.914063 0.26563,0.261718 0.57813,0.460937 0.9375,0.605468 0.35938,0.140625 0.75391,0.214844 1.17969,0.214844 0.42969,0 0.82422,-0.07422 1.17969,-0.214844 0.35546,-0.144531 0.66796,-0.34375 0.9375,-0.605468 0.26562,-0.257813 0.47265,-0.5625 0.61328,-0.914063 0.14453,-0.351563 0.21484,-0.738281 0.21484,-1.164063 0,-0.417968 -0.0703,-0.800781 -0.21484,-1.148437 -0.14063,-0.351563 -0.34766,-0.65625 -0.61328,-0.914063"
     id="path27" />
  <path
     fill-rule="nonzero"
     fill="#e84610"
     fill-opacity="1"
     d="m 332.35547,53.445312 -1.48828,-2.421874 h -1.37109 v 5.550781 h 1.51171 v -1.484375 c 0,-0.511719 -0.0117,-0.953125 -0.0351,-1.328125 -0.004,-0.05859 -0.0117,-0.117188 -0.0156,-0.175781 l 1.10938,1.75 h 0.52344 l 1.14062,-1.765626 c -0.008,0.07813 -0.0156,0.15625 -0.0195,0.234376 -0.0234,0.382812 -0.0352,0.8125 -0.0352,1.285156 v 1.484375 h 1.51563 v -5.550781 h -1.32422 z m 0,0"
     id="path28" />
  <path
     fill-rule="nonzero"
     fill="#e84610"
     fill-opacity="1"
     d="m 341.08203,54.371094 h 2.21094 v -1.222656 h -2.21094 V 52.3125 h 2.53125 v -1.292969 h -4.03906 v 5.554688 h 4.15625 V 55.28125 h -2.64844 z m 0,0"
     id="path29" />
  <path
     fill-rule="nonzero"
     fill="#e84610"
     fill-opacity="1"
     d="m 349.125,54.957031 h 2.94531 V 53.632812 H 349.125 Z m 0,0"
     id="path30" />
  <path
     fill-rule="nonzero"
     fill="#e84610"
     fill-opacity="1"
     d="m 295.60156,62.742188 c -0.0469,0.08594 -0.11718,0.148437 -0.19921,0.195312 -0.0859,0.04297 -0.1836,0.06641 -0.29297,0.06641 h -0.64453 v -1.109375 h 0.64453 c 0.10937,0 0.20703,0.01953 0.29297,0.05859 0.082,0.03906 0.15234,0.09766 0.19921,0.175781 0.0508,0.08203 0.0781,0.183594 0.0781,0.304688 0,0.121094 -0.0273,0.222656 -0.0781,0.308594 m 0.75391,-1.964844 c -0.28516,-0.160156 -0.61328,-0.242188 -0.97656,-0.242188 h -2.46094 v 5.554688 h 1.57031 v -1.730469 h 0.89063 c 0.36328,0 0.6914,-0.08203 0.97656,-0.253906 0.28906,-0.167969 0.51953,-0.398438 0.68359,-0.695313 0.16797,-0.292968 0.25,-0.625 0.25,-1 0,-0.367187 -0.082,-0.6875 -0.25,-0.96875 -0.16406,-0.28125 -0.39453,-0.5 -0.68359,-0.664062"
     id="path31" />
  <path
     fill-rule="nonzero"
     fill="#e84610"
     fill-opacity="1"
     d="m 305.3086,62.628906 h -1.79297 v -2.09375 h -1.57032 v 5.554688 h 1.57032 v -2.078125 h 1.79297 v 2.078125 h 1.57421 v -5.554688 h -1.57421 z m 0,0"
     id="path32" />
  <path
     fill-rule="nonzero"
     fill="#e84610"
     fill-opacity="1"
     d="m 313.15235,63.882812 h 2.21484 v -1.21875 h -2.21484 v -0.835937 h 2.53125 v -1.292969 h -4.03907 v 5.554688 h 4.15625 v -1.292969 h -2.64843 z m 0,0"
     id="path33" />
  <path
     fill-rule="nonzero"
     fill="#e84610"
     fill-opacity="1"
     d="m 324.08594,61.703125 v 0.570313 c 0,0.167968 0.004,0.324218 0.0117,0.46875 0.008,0.140624 0.0156,0.285156 0.0312,0.429687 0.0117,0.140625 0.0273,0.292969 0.0469,0.449219 0.004,0.02734 0.008,0.05859 0.0117,0.08984 l -2.3164,-3.175782 h -1.40625 v 5.554688 h 1.51562 V 64.4375 c 0,-0.167969 0,-0.316406 -0.004,-0.449219 0,-0.132812 -0.008,-0.257812 -0.0156,-0.371093 C 321.95281,63.5 321.94521,63.375 321.93351,63.25 c -0.008,-0.08203 -0.0156,-0.167969 -0.0234,-0.261719 l 2.26953,3.101563 h 1.42187 v -5.554688 h -1.51557 z m 0,0"
     id="path34" />
  <path
     fill-rule="nonzero"
     fill="#e84610"
     fill-opacity="1"
     d="m 333.58985,63.851562 c -0.0664,0.175782 -0.16407,0.328126 -0.28516,0.457032 -0.12109,0.128906 -0.26172,0.230468 -0.42578,0.296875 -0.16406,0.07031 -0.33985,0.105469 -0.53125,0.105469 -0.19531,0 -0.37891,-0.03516 -0.53906,-0.105469 -0.16797,-0.06641 -0.3086,-0.167969 -0.42969,-0.296875 -0.1211,-0.128906 -0.21485,-0.28125 -0.28125,-0.457032 -0.0664,-0.171874 -0.10156,-0.363281 -0.10156,-0.570312 0,-0.210938 0.0351,-0.402344 0.10156,-0.574219 0.0664,-0.171875 0.16015,-0.324219 0.28125,-0.453125 0.12109,-0.128906 0.26172,-0.230468 0.42969,-0.296875 0.16015,-0.07031 0.34375,-0.105469 0.53906,-0.105469 0.1914,0 0.36719,0.03516 0.53125,0.105469 0.16406,0.06641 0.30469,0.167969 0.42578,0.296875 0.12109,0.128906 0.21875,0.28125 0.28516,0.457032 0.0625,0.175781 0.0976,0.363281 0.0976,0.570312 0,0.207031 -0.0351,0.398438 -0.0976,0.570312 m 0.87109,-2.640624 c -0.26563,-0.257813 -0.57813,-0.460938 -0.9375,-0.601563 -0.35547,-0.144531 -0.75,-0.214844 -1.17578,-0.214844 -0.42969,0 -0.82422,0.07031 -1.1836,0.214844 -0.35937,0.140625 -0.67187,0.34375 -0.9375,0.601563 -0.26171,0.257812 -0.46875,0.5625 -0.61328,0.910156 -0.14453,0.351562 -0.21875,0.738281 -0.21875,1.160156 0,0.417969 0.0742,0.800781 0.21875,1.15625 0.14453,0.351562 0.35157,0.65625 0.61328,0.914062 0.26563,0.261719 0.57813,0.460938 0.9375,0.601563 0.35938,0.144531 0.75391,0.214844 1.1836,0.214844 0.42578,0 0.82031,-0.07031 1.17578,-0.214844 0.35937,-0.140625 0.67187,-0.339844 0.9375,-0.601563 0.26562,-0.257812 0.47266,-0.5625 0.61719,-0.914062 0.14062,-0.355469 0.21093,-0.742188 0.21093,-1.164062 0,-0.417969 -0.0703,-0.800782 -0.21093,-1.152344 -0.14453,-0.347656 -0.35157,-0.652344 -0.61719,-0.910156"
     id="path35" />
  <path
     fill-rule="nonzero"
     fill="#e84610"
     fill-opacity="1"
     d="m 341.66406,62.960938 -1.48828,-2.425782 h -1.37109 v 5.554688 h 1.51172 v -1.484375 c 0,-0.511719 -0.008,-0.953125 -0.0312,-1.328125 -0.004,-0.05859 -0.0117,-0.117188 -0.0195,-0.175782 l 1.10937,1.75 h 0.52344 l 1.14453,-1.769531 c -0.008,0.08203 -0.0195,0.160157 -0.0234,0.238281 -0.0234,0.382813 -0.0351,0.808594 -0.0351,1.285157 v 1.484375 h 1.51562 v -5.554688 h -1.32422 z m 0,0"
     id="path36" />
  <path
     fill-rule="nonzero"
     fill="#e84610"
     fill-opacity="1"
     d="m 350.39063,64.796875 v -0.914063 h 2.21484 v -1.222656 h -2.21484 v -0.832031 h 2.53125 v -1.292969 h -4.03907 v 5.554688 h 4.15625 v -1.292969 z m 0,0"
     id="path37" />
  <path
     fill-rule="nonzero"
     fill="#e84610"
     fill-opacity="1"
     d="m 294.54688,73.57422 0.19922,-0.54688 c 0.0547,-0.14843 0.10156,-0.28515 0.14843,-0.40625 0.043,-0.12109 0.0859,-0.23828 0.1211,-0.34765 0.0273,-0.0781 0.0508,-0.16406 0.0781,-0.25 0.0234,0.0859 0.0469,0.16797 0.0742,0.25 0.0391,0.11719 0.0781,0.23437 0.11719,0.35547 0.043,0.12109 0.0898,0.2539 0.14453,0.39843 l 0.20312,0.54688 z m -0.0703,-3.52344 -2.21484,5.55469 h 1.53516 l 0.33984,-0.92188 h 1.90625 l 0.33984,0.92188 h 1.5625 l -2.19921,-5.55469 z m 0,0"
     id="path38" />
  <path
     fill-rule="nonzero"
     fill="#e84610"
     fill-opacity="1"
     d="m 303.51563,71.3125 h 0.8125 c 0.15234,0 0.27734,0.0234 0.38281,0.0742 0.10156,0.0508 0.17969,0.12109 0.23437,0.21484 0.0547,0.0937 0.0781,0.20313 0.0781,0.32813 0,0.13281 -0.0234,0.25 -0.0742,0.34765 -0.0508,0.0977 -0.12109,0.17579 -0.21484,0.23047 -0.0937,0.0547 -0.20703,0.082 -0.34375,0.082 h -0.875 z m 2.09765,2.16016 c 0.29297,-0.16016 0.52735,-0.38282 0.69141,-0.66797 0.16797,-0.28516 0.25,-0.61328 0.25,-0.98438 0,-0.34375 -0.082,-0.64843 -0.25,-0.91015 -0.16406,-0.26563 -0.39844,-0.47657 -0.69141,-0.62891 -0.29687,-0.15234 -0.63281,-0.23047 -1.00781,-0.23047 h -2.5625 v 5.55469 h 1.47266 v -1.89063 h 0.4375 l 1.0625,1.89063 h 1.76953 l -1.22266,-2.10938 c 0.0156,-0.008 0.0352,-0.0117 0.0508,-0.0234"
     id="path39" />
  <path
     fill-rule="nonzero"
     fill="#e84610"
     fill-opacity="1"
     d="m 313.19141,71.73438 c 0.1289,-0.12891 0.27734,-0.22266 0.44922,-0.29297 0.17187,-0.0625 0.35547,-0.0977 0.55078,-0.0977 0.16797,0 0.32422,0.0234 0.46484,0.0703 0.14063,0.043 0.26563,0.10547 0.375,0.1836 0.11328,0.082 0.21094,0.16797 0.30469,0.26953 l 0.94141,-1.09375 c -0.17188,-0.19141 -0.3711,-0.34766 -0.59375,-0.47656 -0.22266,-0.125 -0.46094,-0.22266 -0.71094,-0.28907 -0.25,-0.0664 -0.50781,-0.10156 -0.77344,-0.10156 -0.44141,0 -0.84375,0.0742 -1.21484,0.21484 -0.36719,0.14454 -0.69141,0.34375 -0.95703,0.60547 -0.27344,0.25782 -0.48047,0.5625 -0.63282,0.91407 -0.15234,0.35546 -0.22656,0.73828 -0.22656,1.15625 0,0.42187 0.0742,0.80859 0.21875,1.16406 0.14453,0.34765 0.35156,0.65234 0.61719,0.91015 0.26953,0.25782 0.58594,0.45704 0.94922,0.59766 0.36718,0.14453 0.76562,0.21484 1.19922,0.21484 0.27343,0 0.54687,-0.0312 0.82031,-0.0977 0.27344,-0.0664 0.51953,-0.15625 0.74609,-0.27344 0.22266,-0.11719 0.40235,-0.25 0.53516,-0.39844 l -0.7461,-1.17968 c -0.0937,0.0937 -0.20312,0.17968 -0.32421,0.26171 -0.1211,0.0781 -0.25391,0.14063 -0.40235,0.1875 -0.14453,0.0469 -0.30078,0.0742 -0.46094,0.0742 -0.23437,0 -0.44531,-0.0352 -0.63281,-0.10547 -0.1875,-0.0664 -0.34765,-0.16406 -0.48437,-0.28906 -0.13282,-0.125 -0.23828,-0.27344 -0.3086,-0.45312 -0.0703,-0.17578 -0.10937,-0.375 -0.10937,-0.59766 0,-0.23437 0.0391,-0.4375 0.10937,-0.62109 0.0703,-0.17969 0.17188,-0.33203 0.29688,-0.45703"
     id="path40" />
  <path
     fill-rule="nonzero"
     fill="#e84610"
     fill-opacity="1"
     d="m 323.92969,72.14453 h -1.79297 v -2.09375 h -1.57031 v 5.55469 h 1.57031 v -2.07813 h 1.79297 v 2.07813 H 325.5 v -5.55469 h -1.57031 z m 0,0"
     id="path41" />
  <path
     fill-rule="nonzero"
     fill="#e84610"
     fill-opacity="1"
     d="m 330.59375,71.33594 h 0.96875 v 2.98437 h -0.96875 v 1.28516 h 3.5 v -1.28516 h -0.96094 v -2.98437 h 0.96094 v -1.28516 h -3.5 z m 0,0"
     id="path42" />
  <path
     fill-rule="nonzero"
     fill="#e84610"
     fill-opacity="1"
     d="m 342.01172,72.63672 c -0.0781,0.21875 -0.14062,0.39844 -0.19141,0.53906 -0.0508,0.14453 -0.0976,0.28516 -0.14062,0.42969 0,0 0,0.004 0,0.004 -0.0195,-0.0742 -0.043,-0.14844 -0.0625,-0.21485 -0.0312,-0.10156 -0.0703,-0.21484 -0.10938,-0.33203 -0.0469,-0.12109 -0.0976,-0.26172 -0.16015,-0.42578 l -0.96094,-2.58594 h -1.58594 l 2.21094,5.55469 h 1.26563 l 2.22656,-5.55469 h -1.54688 z m 0,0"
     id="path43" />
  <path
     fill-rule="nonzero"
     fill="#e84610"
     fill-opacity="1"
     d="m 350.39063,74.3125 v -0.91406 h 2.21484 v -1.22266 h -2.21484 v -0.83203 h 2.53125 v -1.29297 h -4.03907 v 5.55469 h 4.15625 V 74.3125 Z m 0,0"
     id="path44" />
</svg>
