<?xml version="1.0" encoding="utf-8"?>
<!-- Generator: Adobe Illustrator 28.3.0, SVG Export Plug-In . SVG Version: 6.00 Build 0)  -->
<svg version="1.1" id="Ebene_1" xmlns="http://www.w3.org/2000/svg" xmlns:xlink="http://www.w3.org/1999/xlink" x="0px" y="0px"
	 viewBox="0 0 141.73 33.89" style="enable-background:new 0 0 141.73 33.89;" xml:space="preserve">
<style type="text/css">
	.st0{fill:#009ED4;}
	.st1{fill:none;stroke:#494D5C;stroke-width:0.6464;stroke-linecap:round;stroke-linejoin:round;stroke-miterlimit:10;}
	.st2{fill:#494D5C;}
	.st3{fill:#FFFFFF;}
	.st4{fill:none;stroke:#494D5C;stroke-width:0.6249;stroke-linecap:round;stroke-linejoin:round;stroke-miterlimit:10;}
	.st5{fill:#4A4D5D;}
</style>
<g>
	
		<rect x="114.39" y="9.84" transform="matrix(0.9659 0.2588 -0.2588 0.9659 7.656 -30.2003)" class="st0" width="8.27" height="8.27"/>
	<polyline class="st1" points="129.98,14.47 125.6,14.85 122.11,12.68 121.27,12.74 	"/>
	<path class="st2" d="M136.42,17.45c-0.66-0.16-1.31-0.24-1.94-0.24c0.32-0.32,0.59-0.72,0.79-1.17c0.79-1.78,0.14-3.77-1.45-4.46
		c-0.39-0.17-0.8-0.24-1.21-0.23c1.52-1.9,1.6-4.54-0.04-6.03c-3.12-2.81-9.12-2.02-9.12-2.02s-0.83,6.05,2.24,8.94
		c1.07,1.01,2.58,1.33,4.02,0.99c-0.06,0.11-0.13,0.21-0.18,0.33c-0.79,1.78-0.14,3.77,1.45,4.46c0.04,0.02,0.08,0.02,0.12,0.04
		c-0.95,0.56-1.64,1.38-1.9,2.38c-0.63,2.48,1.57,5.15,4.92,5.98c3.35,0.82,6.59-0.52,7.22-3
		C141.98,20.94,139.78,18.27,136.42,17.45z"/>
	<polyline class="st1" points="134.11,13.96 138.33,12.82 140.41,10.45 140.62,9.54 	"/>
	<polyline class="st1" points="130.55,21.65 126.07,31.63 124.7,31.63 	"/>
	<polyline class="st1" points="131.17,23.58 129.84,31.63 128.39,31.63 	"/>
	<polyline class="st1" points="140.35,31.63 138.99,31.63 135.28,23.39 	"/>
	<polyline class="st1" points="137.36,31.63 135.92,31.63 134.46,23.51 	"/>
	<path class="st3" d="M130.13,7.61c-0.45,0.42-1.17,0.4-1.59-0.06c-0.42-0.45-0.4-1.17,0.06-1.59c0.45-0.42,1.17-0.4,1.59,0.06
		C130.61,6.48,130.59,7.19,130.13,7.61"/>
	<path class="st2" d="M129.54,7.1c-0.21,0.19-0.53,0.18-0.72-0.03c-0.19-0.21-0.18-0.53,0.03-0.72c0.21-0.19,0.53-0.18,0.72,0.03
		C129.76,6.58,129.75,6.9,129.54,7.1"/>
	<path class="st4" d="M132.1,6.27l1.8-1.59l1.28-3.83 M132.8,7.39l2.5-1.62l1.55-3.36"/>
	<g>
		<path class="st2" d="M78.7,28.79h-0.88v-1.78c0-0.27-0.2-0.5-0.46-0.5c-0.24,0-0.44,0.22-0.44,0.5l0,1.78h-2.26l1.09-3.57
			c0.08-0.25-0.04-0.53-0.26-0.62c-0.1-0.04-0.22-0.04-0.32,0.01c-0.11,0.05-0.2,0.16-0.24,0.29l-1.25,4.12
			c-0.04,0.12-0.03,0.25,0.01,0.36c0.05,0.18,0.2,0.3,0.38,0.3h2.85v1.84c0,0.29,0.19,0.5,0.45,0.5c0.25,0,0.44-0.22,0.44-0.5v-1.83
			l0.88-0.01c0.23,0,0.4-0.19,0.4-0.44C79.1,28.98,78.93,28.79,78.7,28.79z"/>
		<g>
			<path class="st2" d="M56.82,32.02c-0.18,0-0.34-0.07-0.43-0.22l-3.33-5.41v5.21c0,0.23-0.19,0.42-0.42,0.42
				c-0.23,0-0.41-0.19-0.41-0.42v-6.65c0-0.23,0.17-0.42,0.44-0.42c0.19,0,0.34,0.07,0.44,0.25l3.32,5.39v-5.22
				c0-0.23,0.19-0.42,0.42-0.42c0.23,0,0.41,0.19,0.41,0.42v6.65C57.26,31.83,57.09,32.02,56.82,32.02z"/>
			<path class="st2" d="M62.61,25.48h-2.79v2.38h2.34c0.23,0,0.41,0.19,0.41,0.42c0,0.23-0.18,0.42-0.41,0.42h-2.34v2.87
				c0,0.25-0.2,0.45-0.45,0.45c-0.25,0-0.45-0.2-0.45-0.45v-6.52c0-0.23,0.19-0.43,0.43-0.43h3.26c0.24,0,0.43,0.2,0.43,0.43
				C63.04,25.28,62.85,25.48,62.61,25.48z"/>
			<path class="st2" d="M66.65,31.93h-1.96c-0.25,0-0.45-0.2-0.45-0.45v-6.41c0-0.24,0.2-0.45,0.45-0.45h1.96
				c2.24,0,2.58,1.63,2.58,2.73v1.87C69.23,30.3,68.88,31.93,66.65,31.93z M66.6,31.08c1.46,0,1.73-0.94,1.73-1.88v-1.86
				c0-0.94-0.27-1.88-1.73-1.88h-1.45v5.61H66.6z"/>
			<path class="st2" d="M71.19,32.02c-0.25,0-0.45-0.2-0.45-0.45v-6.59c0-0.24,0.2-0.45,0.45-0.45c0.25,0,0.45,0.21,0.45,0.45v6.59
				C71.64,31.82,71.44,32.02,71.19,32.02z"/>
		</g>
		<g>
			<path class="st2" d="M82.84,32.02c-0.75,0-1.35-0.08-1.93-0.32c-0.2-0.08-0.29-0.24-0.29-0.41c0-0.22,0.16-0.43,0.4-0.43
				c0.18,0,0.34,0.15,0.85,0.25c0.23,0.05,0.51,0.09,0.89,0.09c1.22,0,1.78-0.55,1.78-1.34c0-0.61-0.31-0.88-0.97-1.07
				c-0.53-0.18-1.48-0.26-2.03-0.53c-0.53-0.26-0.9-0.71-0.9-1.56c0-1.36,1.02-2.16,2.36-2.16c0.62,0,1.16,0.07,1.68,0.28
				c0.2,0.07,0.29,0.24,0.29,0.4c0,0.22-0.15,0.44-0.42,0.44c-0.15,0-0.31-0.13-0.74-0.22c-0.19-0.04-0.42-0.07-0.75-0.07
				c-0.94,0-1.5,0.48-1.5,1.24c0,0.64,0.36,0.88,0.99,1.05c0.67,0.19,1.65,0.25,2.19,0.62c0.47,0.31,0.72,0.78,0.72,1.5
				C85.45,31.21,84.41,32.02,82.84,32.02z"/>
			<path class="st2" d="M88.62,31.99c-1.42,0-2.02-0.93-2.02-2.08v-1.03c0-1.14,0.59-2.08,2.02-2.08c1.43,0,2.02,0.93,2.02,2.08
				v1.03C90.64,31.05,90.06,31.99,88.62,31.99z M88.62,31.18c0.81,0,1.14-0.49,1.14-1.27v-1.02c0-0.78-0.33-1.27-1.14-1.27
				c-0.8,0-1.13,0.49-1.13,1.27v1.02C87.49,30.69,87.82,31.18,88.62,31.18z"/>
			<path class="st2" d="M94.7,27.75c-0.25-0.14-0.51-0.2-0.86-0.2c-0.75,0-1.17,0.58-1.17,1.43v0.81c0,0.89,0.37,1.43,1.14,1.43
				c0.31,0,0.6-0.05,0.91-0.21c0.2-0.09,0.4,0,0.48,0.18c0.08,0.21-0.01,0.4-0.18,0.49c-0.4,0.22-0.84,0.29-1.25,0.29
				c-1.4,0-1.99-0.94-1.99-2.23v-0.7c0-1.22,0.66-2.26,1.99-2.26c0.41,0,0.89,0.07,1.25,0.29c0.18,0.1,0.26,0.29,0.16,0.49
				C95.09,27.76,94.9,27.84,94.7,27.75z"/>
			<path class="st2" d="M96.75,25.77c-0.3,0-0.54-0.23-0.54-0.53c0-0.31,0.24-0.55,0.54-0.55c0.31,0,0.55,0.24,0.55,0.55
				C97.3,25.54,97.06,25.77,96.75,25.77z M96.31,27.24c0-0.25,0.19-0.44,0.43-0.44c0.24,0,0.44,0.19,0.44,0.44v4.3
				c0,0.25-0.2,0.44-0.44,0.44c-0.24,0-0.43-0.19-0.43-0.44V27.24z"/>
			<path class="st2" d="M102.05,29.66h-2.74v0.27c0,0.79,0.35,1.31,1.15,1.31c0.43,0,0.7-0.07,0.89-0.14
				c0.23-0.08,0.35-0.18,0.51-0.18c0.2,0,0.33,0.15,0.33,0.36c0,0.2-0.21,0.37-0.51,0.49c-0.35,0.14-0.83,0.21-1.27,0.21
				c-1.45,0-1.98-0.98-1.98-2.13v-0.93c0-1.13,0.57-2.13,1.98-2.13c1.45,0,1.97,0.94,1.97,2.13v0.39
				C102.38,29.53,102.23,29.66,102.05,29.66z M101.52,28.97v-0.18c0-0.77-0.28-1.27-1.1-1.27c-0.78,0-1.11,0.51-1.11,1.28v0.17
				H101.52z"/>
			<path class="st2" d="M105.83,31.93h-0.3c-1.38,0-1.75-0.86-1.75-2.18v-2.14h-0.29c-0.21,0-0.38-0.17-0.38-0.37
				c0-0.21,0.17-0.38,0.38-0.38h0.29v-1.03c0-0.24,0.19-0.44,0.44-0.44c0.24,0,0.43,0.2,0.43,0.44v1.03h0.93
				c0.21,0,0.38,0.17,0.38,0.38c0,0.2-0.17,0.37-0.38,0.37h-0.93l0.01,2.13c0,1,0.16,1.38,0.95,1.38h0.21c0.22,0,0.39,0.18,0.39,0.4
				C106.22,31.75,106.05,31.93,105.83,31.93z"/>
			<path class="st2" d="M107.17,33.76c-0.31,0.02-0.47-0.2-0.47-0.43c0-0.2,0.12-0.4,0.4-0.42c0.54-0.01,0.99-0.22,1.42-1.02
				c-0.67-1.65-1.3-3.33-1.69-4.54c-0.1-0.33,0.16-0.54,0.41-0.54c0.17,0,0.33,0.09,0.39,0.3c0.33,1.01,0.77,2.3,1.3,3.69l1.24-3.7
				c0.06-0.21,0.24-0.29,0.39-0.29c0.28,0,0.53,0.24,0.42,0.58l-1.35,3.84C109.06,32.92,108.39,33.71,107.17,33.76z"/>
		</g>
	</g>
	<g>
		<g>
			<path class="st5" d="M6.01,6.39l3.87,6.88c0.82,1.38,1.1,1.52,2.01,1.52v0.64H9.22L4.92,7.64L3.46,9.5v3.71
				c0,1.46,0.1,1.58,1.48,1.58v0.64H0.21v-0.64c1.46,0,1.57-0.12,1.57-1.56V2.86c0-1.44-0.12-1.56-1.57-1.56V0.67h4.65V1.3
				c-1.3,0-1.4,0.14-1.4,1.56v5.2h0.06l3.95-5.08c0.52-0.68,0.82-1.1,0.82-1.36c0-0.24-0.28-0.32-0.9-0.32V0.67h3.67V1.3
				c-0.8,0-1.08,0.1-1.79,0.98L6.01,6.39z"/>
			<path class="st5" d="M12.51,10.38c0-2.69,1.2-5.2,4.67-5.2c3.07,0,4.65,1.99,4.65,5.2c0,2.87-1.02,5.28-4.65,5.28
				C14.08,15.66,12.51,13.84,12.51,10.38z M14.14,10.4c0,4.01,1.77,4.59,3.01,4.59c2.47,0,3.01-2.39,3.01-4.59
				c0-2.91-0.94-4.53-3.01-4.53C15.1,5.87,14.14,7.44,14.14,10.4z"/>
			<path class="st5" d="M25.69,7.03c0.96-1.16,2.11-1.85,3.41-1.85c2.23,0,3.07,1.26,3.07,3.27v4.98c0,1.26,0.1,1.44,1.12,1.44v0.56
				h-3.83v-0.56c1.08,0,1.16-0.14,1.16-1.48V8.5c0-1.85-0.62-2.51-1.95-2.51c-0.98,0-2.03,0.82-2.97,2.05v5.36
				c0,1.32,0.04,1.46,1.12,1.46v0.56h-3.99v-0.56c1.22,0,1.32-0.12,1.32-1.48V8c0-1.3-0.12-1.44-1.32-1.42V6.11
				c1.02-0.18,1.77-0.42,2.51-0.94l0.24,0.14l0.08,1.71H25.69z"/>
			<path class="st5" d="M34.85,12.63c0.5,1.85,1.46,2.35,2.87,2.35c1.69,0,2.57-1,2.57-1.97c0-0.46-0.16-0.8-0.44-1.12
				c-0.44-0.44-1.24-0.7-2.33-1.24c-0.9-0.52-1.75-0.84-2.31-1.42c-0.36-0.44-0.6-0.98-0.6-1.63c0-1.28,1.12-2.43,3.63-2.43
				c1.08,0,1.91,0.18,2.67,0.48c0.08,0.56,0.18,1.22,0.36,2.09l-0.6,0.12c-0.32-1.6-0.96-1.99-2.33-1.99c-0.8,0-2.23,0.34-2.23,1.5
				c0,0.52,0.38,1.02,0.92,1.36c0.72,0.38,1.85,0.72,2.31,1.02c1.28,0.58,2.57,1.56,2.57,2.97c0,1.91-1.87,2.95-4.05,2.95
				c-1.38,0-2.31-0.24-3.15-0.62c-0.14-0.88-0.3-1.58-0.44-2.25L34.85,12.63z"/>
			<path class="st5" d="M43.24,10.38c0-2.69,1.2-5.2,4.67-5.2c3.07,0,4.65,1.99,4.65,5.2c0,2.87-1.02,5.28-4.65,5.28
				C44.82,15.66,43.24,13.84,43.24,10.38z M44.88,10.4c0,4.01,1.77,4.59,3.01,4.59c2.47,0,3.01-2.39,3.01-4.59
				c0-2.91-0.94-4.53-3.01-4.53C45.83,5.87,44.88,7.44,44.88,10.4z"/>
			<path class="st5" d="M56.36,6.87h0.04c0.94-1.18,1.65-1.69,2.67-1.69c1.1,0,1.71,0.82,1.71,1.44c0,0.5-0.26,0.78-0.66,0.78
				c-0.32,0-0.58-0.2-0.76-0.66c-0.2-0.52-0.36-0.72-0.74-0.72c-0.72,0-1.44,0.76-2.23,1.85v5.54c0,1.3,0.1,1.46,1.56,1.46v0.56
				h-4.41v-0.56c1.2,0,1.3-0.14,1.3-1.48V7.96c0-1.26-0.12-1.38-1.3-1.38V6.11c1-0.16,1.73-0.4,2.53-0.94l0.2,0.14L56.36,6.87z"/>
			<path class="st5" d="M61.85,6.13V5.61c1.57-0.12,2.05-0.92,2.45-2.99h0.54v2.81h2.71v0.7h-2.71v7.04c0,1.18,0.42,1.71,1.28,1.71
				c0.6,0,1.08-0.2,1.63-0.6l0.34,0.5c-0.68,0.6-1.46,0.88-2.39,0.88c-1.18,0-2.39-0.48-2.39-2.39V6.13H61.85z"/>
			<path class="st5" d="M69.69,11.79c0.62,2.47,1.58,3.11,3.43,3.11c1.4,0,2.99-0.9,2.99-2.85c0-1.79-1.02-2.43-3.15-3.77
				c-1.28-0.82-2.59-1.63-3.09-2.45c-0.34-0.58-0.58-1.26-0.58-2.03c0-1.44,1-3.43,4.33-3.43c1.22,0,2.17,0.18,3.07,0.54
				c0.1,0.8,0.28,1.95,0.44,2.93l-0.76,0.14c-0.42-2.11-0.84-2.79-2.83-2.79c-1.4,0-2.69,0.78-2.69,2.27c0,1.5,0.82,2.05,2.87,3.39
				c1.56,0.98,2.61,1.56,3.21,2.37c0.48,0.66,0.82,1.44,0.82,2.47c0,2.25-1.73,4.03-4.79,4.03c-1.12,0-2.35-0.24-3.43-0.62
				c-0.16-1.3-0.38-2.23-0.6-3.09L69.69,11.79z"/>
			<path class="st5" d="M97.77,1.3c-0.72,0-0.86,0.14-1.16,1.16l-3.63,13.26h-1.14L88.3,3.82h-0.04l-3.47,11.9h-1.18L79.83,2.66
				c-0.38-1.2-0.52-1.36-1.28-1.36V0.67h3.93V1.3c-0.88,0-1.18,0.08-1.18,0.52c0,0.2,0.06,0.48,0.16,0.86l3.09,10.65h0.04L87.8,2.3
				c-0.36-0.9-0.4-1-1.36-1V0.67h4.05V1.3c-0.84,0-1.16,0.08-1.16,0.54c0,0.2,0.06,0.48,0.18,0.86l3.19,10.63h0.04l2.87-10.51
				c0.12-0.44,0.18-0.74,0.18-0.98c0-0.46-0.28-0.54-1.06-0.54V0.67h3.03V1.3z"/>
			<path class="st5" d="M99.07,15.42v-0.64c1.46,0,1.58-0.12,1.58-1.56V2.86c0-1.44-0.12-1.56-1.58-1.56V0.67h5.36
				c2.21,0,3.63,0.46,4.78,1.65c1.3,1.38,1.81,3.31,1.81,5.56c0,5.74-2.95,7.54-7.02,7.54H99.07z M102.94,1.46
				c-0.52,0-0.62,0.14-0.62,0.84v11.24c0,0.94,0.1,1.08,0.68,1.08h0.96c3.15,0,5.34-1.79,5.34-6.5c0-2.27-0.36-3.89-1.3-5.14
				c-0.86-1.12-2.09-1.52-3.65-1.52H102.94z"/>
		</g>
	</g>
</g>
</svg>
