<svg xmlns="http://www.w3.org/2000/svg" width="855" height="215" viewBox="0 0 855 215" version="1.1"><path d="M 93.263 32.514 C 62.197 39.263, 45.017 75.385, 59.264 104 L 62.500 110.500 54.893 118 C 45.398 127.361, 42.698 133.394, 42.584 145.500 C 42.520 152.317, 42.921 154.340, 45.295 159.182 C 49.612 167.989, 56.564 173.178, 68.720 176.670 C 73.356 178.002, 79.349 178.347, 99 178.415 C 123.051 178.498, 123.592 178.546, 128.500 181 C 141.830 187.665, 140.761 204.462, 126.500 212.434 L 123.500 214.111 127 213.534 C 135.822 212.079, 146.617 208.418, 156.133 203.655 L 166.500 198.465 166.403 190.483 C 166.207 174.258, 156.674 162.634, 138.714 156.722 C 133.240 154.920, 129.025 154.607, 103.313 154.088 L 74.127 153.500 71.076 150.575 C 65.068 144.815, 66.521 135.331, 74.188 130.257 C 78.184 127.612, 78.385 127.615, 88.500 130.428 C 97.207 132.849, 112.695 132.693, 121 130.101 C 138.465 124.649, 151.302 109.624, 154.035 91.434 C 155.911 78.952, 152.350 65.024, 145.202 56.883 L 142.107 53.358 149.303 51.551 C 160.321 48.784, 161 48.150, 161 40.632 C 161 30.572, 162.413 30.986, 128.421 31.079 C 108.093 31.135, 97.647 31.562, 93.263 32.514 M 95.215 58.257 C 90.722 59.696, 83.355 66.385, 80.847 71.299 C 71.496 89.630, 86.421 111.600, 106.961 109.737 C 114.032 109.096, 119.554 106.343, 124.295 101.095 C 129.239 95.622, 131.178 90.675, 131.217 83.427 C 131.300 68.206, 120.032 56.869, 105.054 57.102 C 101.449 57.158, 97.022 57.678, 95.215 58.257" stroke="none" fill="#f9fafb" fill-rule="evenodd"/><path d="M 88.655 1.531 C 46.436 9.512, 13.696 39.962, 2.864 81.323 C 0.143 91.710, -0.808 113.691, 0.982 124.797 C 7.684 166.366, 38.282 200.226, 79.487 211.668 C 91.898 215.115, 116.662 216.165, 123.544 213.536 C 140.162 207.190, 143.043 188.272, 128.500 181 C 123.592 178.546, 123.051 178.498, 99 178.415 C 79.349 178.347, 73.356 178.002, 68.720 176.670 C 56.564 173.178, 49.612 167.989, 45.295 159.182 C 42.921 154.340, 42.520 152.317, 42.584 145.500 C 42.698 133.394, 45.398 127.361, 54.893 118 L 62.500 110.500 59.264 104 C 44.900 75.150, 62.251 39.140, 93.730 32.469 C 98.694 31.417, 108.127 31.030, 129.095 31.017 C 162.459 30.997, 161 30.549, 161 40.806 C 161 48.127, 160.271 48.796, 149.303 51.551 L 142.107 53.358 145.202 56.883 C 161.902 75.903, 155.368 110.390, 132.291 125.032 C 121.370 131.961, 102.414 134.297, 88.500 130.428 C 78.385 127.615, 78.184 127.612, 74.188 130.257 C 66.521 135.331, 65.068 144.815, 71.076 150.575 L 74.127 153.500 103.313 154.088 C 129.025 154.607, 133.240 154.920, 138.714 156.722 C 147.126 159.491, 152.792 162.966, 157.856 168.460 C 163.490 174.571, 166.133 180.896, 166.754 189.750 C 167.034 193.738, 167.463 197, 167.707 197 C 168.987 197, 180.277 187.414, 185.531 181.867 C 200.351 166.221, 209.659 148.122, 213.556 127.372 C 216.008 114.315, 215.127 91.749, 211.686 79.500 C 201.101 41.821, 171.984 13.163, 134.337 3.370 C 121.796 0.108, 100.682 -0.742, 88.655 1.531 M 95.215 58.257 C 90.722 59.696, 83.355 66.385, 80.847 71.299 C 71.496 89.630, 86.421 111.600, 106.961 109.737 C 114.032 109.096, 119.554 106.343, 124.295 101.095 C 129.239 95.622, 131.178 90.675, 131.217 83.427 C 131.300 68.206, 120.032 56.869, 105.054 57.102 C 101.449 57.158, 97.022 57.678, 95.215 58.257 M 270.123 61.959 C 261.829 64.023, 254.733 72.057, 253.394 80.898 C 251.924 90.613, 258.960 101.852, 268.480 104.993 C 273.046 106.500, 281.983 105.869, 287.251 103.668 L 291 102.102 291 93.051 L 291 84 284 84 L 277 84 277 87.500 C 277 90.722, 277.238 91, 280 91 C 282.498 91, 283 91.401, 283 93.393 C 283 96.229, 281.376 97, 275.404 97 C 271.773 97, 270.312 96.396, 267.331 93.665 C 264.168 90.766, 263.639 89.620, 263.290 84.915 C 262.799 78.294, 265.304 73.607, 270.490 71.440 C 275.171 69.484, 277.834 69.627, 282.412 72.081 L 286.293 74.161 288.787 71.667 C 291.947 68.508, 291.269 66.790, 285.831 64.171 C 280.607 61.655, 274.692 60.822, 270.123 61.959 M 349.942 61.917 C 342.646 64.220, 339.426 68.681, 340.308 75.261 C 340.991 80.352, 344.022 83.509, 351.749 87.177 C 356.277 89.327, 358.167 90.816, 358.611 92.585 C 359.959 97.957, 354.454 99.599, 347.534 95.890 L 343.597 93.780 341.756 96.053 C 339.112 99.318, 339.894 101.194, 344.962 103.750 C 356.536 109.586, 370.199 102.876, 368.594 92.144 C 367.793 86.792, 365.444 84.248, 357.728 80.374 C 353.753 78.378, 350.169 76.240, 349.765 75.623 C 348.334 73.435, 349.031 70.943, 351.373 69.876 C 353.270 69.011, 354.725 69.227, 358.621 70.950 L 363.495 73.107 365.248 70.943 C 367.987 67.559, 367.416 65.484, 363.250 63.683 C 358.414 61.594, 353.170 60.898, 349.942 61.917 M 408.942 61.904 C 404.005 63.487, 401.818 65.191, 400.415 68.548 C 397.162 76.334, 400.085 81.664, 410.508 86.952 C 416.463 89.974, 417.549 90.929, 417.830 93.391 C 418.394 98.327, 413.753 99.445, 407 96 C 404.844 94.900, 402.848 94, 402.566 94 C 401.499 94, 398.947 100.105, 399.583 101.133 C 400.825 103.144, 408.486 105.956, 412.782 105.978 C 418.708 106.008, 423.586 103.728, 425.974 99.810 C 430.452 92.466, 427.234 85.370, 417.192 80.446 C 409.430 76.640, 407.586 74.879, 408.464 72.114 C 409.475 68.929, 413.328 68.455, 418.245 70.913 L 422.500 73.039 424.797 70.410 C 427.624 67.173, 427.326 66.121, 422.939 63.859 C 418.732 61.690, 412.380 60.802, 408.942 61.904 M 303.667 62.667 C 303.300 63.033, 303 72.708, 303 84.167 L 303 105 317.060 105 L 331.121 105 330.810 101.250 L 330.500 97.500 321.250 97.212 L 312 96.925 312 91.962 L 312 87 320.060 87 L 328.121 87 327.810 83.250 L 327.500 79.500 319.750 79.208 L 312 78.916 312 74.458 L 312 70 321.500 70 L 331 70 331 66 L 331 62 317.667 62 C 310.333 62, 304.033 62.300, 303.667 62.667 M 379.714 62.619 C 379.321 63.012, 379 72.708, 379 84.167 L 379 105 383.520 105 L 388.040 105 387.770 83.750 L 387.500 62.500 383.964 62.202 C 382.020 62.039, 380.107 62.226, 379.714 62.619 M 455.709 62.624 C 455.319 63.014, 455 72.708, 455 84.167 L 455 105 467.070 105 C 479.014 105, 479.136 104.977, 478.820 102.750 C 478.520 100.639, 477.960 100.482, 469.772 100.211 L 461.044 99.923 460.772 81.211 C 460.511 63.240, 460.419 62.488, 458.459 62.208 C 457.336 62.047, 456.099 62.235, 455.709 62.624 M 526 83.430 L 526 104.999 529.250 104.956 C 531.038 104.933, 534.191 105.208, 536.257 105.567 C 547.911 107.594, 553.859 88.618, 543.783 81.561 C 542.452 80.629, 539.445 80, 536.316 80 L 531.078 80 530.789 71.250 C 530.518 63.039, 530.361 62.480, 528.250 62.180 L 526 61.861 526 83.430 M 641 83.500 L 641 105 643.500 105 L 646 105 646 83.500 L 646 62 643.500 62 L 641 62 641 83.500 M 511.046 64.444 C 508.345 67.699, 512.815 71.614, 515.811 68.618 C 517.084 67.344, 517.215 66.563, 516.376 65.231 C 514.916 62.913, 512.601 62.571, 511.046 64.444 M 586.163 63.878 C 585.427 64.345, 584.977 65.800, 585.163 67.113 C 585.645 70.529, 590.355 70.529, 590.837 67.113 C 591.126 65.072, 589.707 63.031, 588 63.031 C 587.725 63.031, 586.898 63.412, 586.163 63.878 M 730.163 63.878 C 729.427 64.345, 728.977 65.800, 729.163 67.113 C 729.645 70.529, 734.355 70.529, 734.837 67.113 C 735.126 65.072, 733.707 63.031, 732 63.031 C 731.725 63.031, 730.898 63.412, 730.163 63.878 M 710.667 72.667 C 710.300 73.033, 710 74.833, 710 76.667 C 710 79.333, 709.600 80, 708 80 C 706.637 80, 706 80.667, 706 82.094 C 706 83.346, 706.803 84.397, 708 84.710 C 709.809 85.183, 710 86.074, 710 94.045 C 710 103.898, 711.059 106, 716.024 106 C 720.112 106, 724.142 103.951, 723.752 102.072 C 723.506 100.889, 722.384 100.566, 719.213 100.768 L 715 101.036 715 93.079 L 715 85.121 718.750 84.810 C 721.762 84.561, 722.563 84.057, 722.820 82.250 C 723.106 80.233, 722.718 80, 719.070 80 L 715 80 715 76 C 715 72.788, 714.639 72, 713.167 72 C 712.158 72, 711.033 72.300, 710.667 72.667 M 745 75.861 C 745 79.248, 744.655 79.910, 742.750 80.180 C 741.273 80.390, 740.500 81.187, 740.500 82.500 C 740.500 83.813, 741.273 84.610, 742.750 84.820 C 744.899 85.125, 745 85.556, 745 94.447 C 745 105.320, 745.776 106.562, 752.049 105.720 C 756.769 105.087, 759.112 103.456, 758.308 101.361 C 757.873 100.226, 756.810 100.025, 753.868 100.522 L 750 101.176 750 93.148 L 750 85.121 753.750 84.810 C 756.730 84.564, 757.500 84.089, 757.500 82.500 C 757.500 80.916, 756.731 80.436, 753.807 80.193 C 750.337 79.905, 750.095 79.663, 749.807 76.193 C 749.561 73.239, 749.050 72.436, 747.250 72.180 C 745.238 71.895, 745 72.285, 745 75.861 M 795.607 73.582 C 795.273 74.452, 795 76.199, 795 77.465 C 795 78.926, 794.269 79.958, 793 80.290 C 791.900 80.577, 791 81.572, 791 82.500 C 791 83.428, 791.900 84.423, 793 84.710 C 794.778 85.175, 795.002 86.081, 795.015 92.867 C 795.023 97.082, 795.604 101.620, 796.312 103 C 797.409 105.137, 798.267 105.492, 802.213 105.442 C 807.283 105.379, 810.202 103.690, 809.301 101.342 C 808.864 100.202, 807.857 99.992, 805.214 100.488 C 800.686 101.337, 800.035 100.250, 800.015 91.807 L 800 85.115 804.250 84.807 C 807.731 84.556, 808.500 84.138, 808.500 82.500 C 808.500 80.862, 807.731 80.444, 804.250 80.193 C 800.021 79.886, 800 79.866, 800 75.943 C 800 72.741, 799.644 72, 798.107 72 C 797.066 72, 795.941 72.712, 795.607 73.582 M 563.294 80.632 C 560.611 81.554, 559.374 81.605, 558.883 80.811 C 558.509 80.205, 557.481 79.985, 556.601 80.323 C 555.256 80.839, 555 82.859, 555 92.969 L 555 105 557.500 105 C 559.978 105, 560 104.922, 560 96.169 C 560 87.853, 560.141 87.263, 562.418 86.044 C 565.431 84.431, 569.772 84.373, 571.325 85.924 C 571.989 86.587, 572.652 90.992, 572.849 96.049 C 573.192 104.831, 573.246 105, 575.693 105 L 578.187 105 577.844 95.078 C 577.541 86.329, 577.225 84.864, 575.171 82.680 C 572.316 79.644, 568.222 78.938, 563.294 80.632 M 690.211 80.221 C 682.758 82.162, 683.774 89.926, 692.072 94.442 C 699.508 98.490, 698.196 103.780, 690.549 100.585 C 687.330 99.240, 685 99.907, 685 102.174 C 685 103.626, 690.892 106, 694.496 106 C 698.647 106, 703 102.389, 703 98.945 C 703 96.475, 698.002 91.325, 693.058 88.701 C 689.970 87.063, 689.809 86.763, 691.248 85.323 C 692.555 84.017, 693.392 83.941, 696.101 84.885 C 700.026 86.254, 702.103 84.972, 700.382 82.244 C 698.998 80.049, 694.388 79.132, 690.211 80.221 M 486.095 82.574 C 480.153 87.574, 479.822 97.665, 485.426 102.931 C 488.630 105.941, 495.341 106.720, 500.280 104.656 C 504.290 102.981, 504.815 101.922, 502.564 100.053 C 501.518 99.185, 500.584 99.152, 499.130 99.931 C 494.630 102.339, 489.579 101.020, 487.437 96.879 L 485.949 94 495.474 94 L 505 94 505 90.934 C 505 84.234, 500.721 80.055, 493.827 80.022 C 490.244 80.005, 488.439 80.601, 486.095 82.574 M 511.667 80.667 C 511.300 81.033, 511 86.658, 511 93.167 L 511 105 513.500 105 L 516 105 516 92.500 C 516 81.045, 515.847 80, 514.167 80 C 513.158 80, 512.033 80.300, 511.667 80.667 M 586 92.430 L 586 105 588.531 105 L 591.062 105 590.781 92.750 C 590.509 80.905, 590.426 80.489, 588.250 80.180 C 586.019 79.864, 586 79.967, 586 92.430 M 597.336 81.567 C 596.442 83.896, 597.968 84.845, 603.161 85.190 L 607.822 85.500 601.980 94.457 C 598.767 99.384, 596.359 103.771, 596.628 104.207 C 596.898 104.643, 600.916 105, 605.559 105 C 613.258 105, 614 104.829, 614 103.052 C 614 101.426, 613.186 101.055, 609.067 100.802 L 604.134 100.500 610.035 91.102 C 613.280 85.933, 615.698 81.321, 615.409 80.852 C 615.119 80.383, 611.069 80, 606.410 80 C 599.640 80, 597.816 80.315, 597.336 81.567 M 656.667 80.667 C 656.300 81.033, 656 86.658, 656 93.167 L 656 105 658.500 105 C 660.970 105, 661 104.898, 661 96.523 C 661 88.571, 661.156 87.944, 663.515 86.398 C 666.452 84.474, 670.648 84.248, 672.325 85.924 C 672.989 86.587, 673.652 90.992, 673.849 96.049 C 674.189 104.734, 674.270 105, 676.599 105 C 678.957 105, 679 104.837, 679 95.950 C 679 86.543, 677.602 81.829, 674.455 80.621 C 671.948 79.659, 665.078 79.888, 662.995 81.003 C 661.743 81.673, 660.916 81.673, 660.502 81.003 C 659.796 79.861, 657.660 79.674, 656.667 80.667 M 730 92.430 L 730 105 732.531 105 L 735.062 105 734.781 92.750 C 734.509 80.905, 734.426 80.489, 732.250 80.180 C 730.019 79.864, 730 79.967, 730 92.430 M 764 89.383 C 764 94.621, 764.508 100.022, 765.130 101.385 C 766.652 104.727, 771.084 106.446, 775.767 105.510 C 777.820 105.099, 780.976 104.817, 782.781 104.884 L 786.062 105.004 785.781 92.752 C 785.509 80.905, 785.426 80.489, 783.250 80.180 C 781.059 79.869, 781 80.099, 781 88.874 C 781 97.054, 780.795 98.030, 778.777 99.443 C 776.106 101.314, 771.431 101.484, 770.309 99.750 C 769.864 99.063, 769.275 94.450, 769 89.500 C 768.534 81.105, 768.349 80.479, 766.250 80.180 C 764.052 79.868, 764 80.080, 764 89.383 M 818.358 81.772 C 815.596 84, 813 89.190, 813 92.482 C 813 95.990, 815.270 101.095, 817.852 103.396 C 820.534 105.785, 828.593 106.564, 832 104.763 C 835.083 103.132, 835.468 99.340, 832.500 99.831 C 831.400 100.014, 829.034 100.401, 827.243 100.692 C 823.455 101.307, 819.542 99.180, 818.727 96.064 C 818.210 94.087, 818.582 94, 827.594 94 L 837 94 837 90.723 C 837 87.452, 834.972 83.588, 832.046 81.282 C 829.681 79.418, 820.885 79.734, 818.358 81.772 M 489 86 C 485.750 89.250, 486.593 90, 493.500 90 C 497.075 90, 500 89.635, 500 89.189 C 500 88.742, 499.082 87.392, 497.961 86.189 C 495.418 83.459, 491.621 83.379, 489 86 M 533.750 84.791 C 531.049 85.127, 531 85.255, 531 92.031 C 531 97.828, 531.309 99.095, 532.934 99.965 C 537.708 102.520, 542.137 100.333, 543.535 94.731 C 545.056 88.639, 540.448 83.958, 533.750 84.791 M 821.223 85.557 C 816.971 88.535, 818.401 90, 825.559 90 C 832.403 90, 832.622 89.743, 829.193 85.750 C 827.332 83.584, 824.150 83.506, 821.223 85.557 M 261.704 131.547 C 258.216 133.499, 257 136.607, 257 143.565 C 257 148.735, 256.875 149, 254.430 149 C 252.338 149, 251.920 149.418, 252.180 151.250 C 252.386 152.696, 253.304 153.614, 254.750 153.820 C 256.911 154.126, 257 154.533, 257 164.070 C 257 173.995, 257.001 174, 259.500 174 C 261.999 174, 262 173.996, 262 164.060 L 262 154.121 265.750 153.810 C 268.762 153.561, 269.563 153.057, 269.820 151.250 C 270.106 149.233, 269.718 149, 266.070 149 L 262 149 262 143.691 C 262 135.441, 264.374 133.587, 271.242 136.475 C 272.425 136.973, 273.190 136.668, 273.628 135.526 C 275.170 131.508, 266.777 128.706, 261.704 131.547 M 438.094 131.254 C 433.404 132.969, 430.512 137.150, 430.639 142.028 C 430.792 147.856, 433.248 150.689, 441.654 154.735 C 449.704 158.610, 452.579 161.599, 451.507 164.978 C 449.794 170.375, 442.095 171.340, 435.905 166.932 C 433.126 164.953, 432.680 164.892, 431.278 166.294 C 429.053 168.518, 430.209 170.438, 435.235 172.872 C 446.114 178.138, 457.620 172.886, 457.355 162.776 C 457.221 157.633, 454.382 154.716, 445.002 150.081 C 434.655 144.969, 433.050 140.139, 440.326 136.007 C 442.690 134.665, 443.464 134.695, 447.996 136.305 C 453.384 138.218, 455 137.941, 455 135.101 C 455 131.494, 444.174 129.030, 438.094 131.254 M 592.415 131.367 C 584.943 134.752, 582.691 143.103, 587.658 149.006 C 589.121 150.744, 592.829 153.276, 595.898 154.634 C 605.620 158.933, 608.430 163.570, 604 168 C 601.231 170.769, 596.109 170.563, 591.595 167.500 C 587.182 164.505, 586.376 164.428, 585.067 166.874 C 583.853 169.143, 585.749 171.162, 591.254 173.462 C 603.782 178.696, 616.117 168.862, 610.544 158.085 C 609.569 156.200, 606.422 153.882, 601.028 151.076 C 591.750 146.249, 589.115 143.237, 590.846 139.439 C 592.675 135.425, 596.577 134.498, 602.825 136.591 C 607.407 138.127, 608.277 138.175, 609.060 136.938 C 610.470 134.708, 610.220 134.165, 607.017 132.509 C 602.649 130.250, 596.026 129.732, 592.415 131.367 M 360 152.500 L 360 174 362.500 174 C 364.983 174, 365 173.937, 365 164.949 L 365 155.898 368.573 154.405 C 372.848 152.619, 375.813 153.334, 376.495 156.317 C 376.769 157.517, 377.108 161.875, 377.247 166 C 377.492 173.266, 377.578 173.500, 380 173.500 C 382.486 173.500, 382.500 173.450, 382.488 164.307 C 382.477 156.568, 382.145 154.669, 380.392 152.307 C 377.578 148.516, 372.290 147.210, 368.139 149.281 L 365 150.847 365 140.923 C 365 131.005, 364.999 131, 362.500 131 L 360 131 360 152.500 M 559 152.500 L 559 174.139 561.250 173.820 L 563.500 173.500 563.500 152.500 L 563.500 131.500 561.250 131.180 L 559 130.861 559 152.500 M 520.163 132.878 C 519.427 133.345, 518.977 134.800, 519.163 136.113 C 519.416 137.902, 520.126 138.500, 522 138.500 C 523.874 138.500, 524.584 137.902, 524.837 136.113 C 525.126 134.072, 523.707 132.031, 522 132.031 C 521.725 132.031, 520.898 132.412, 520.163 132.878 M 645.667 132.667 C 644.638 133.696, 644.879 137.807, 646.009 138.506 C 647.970 139.718, 651 137.917, 651 135.540 C 651 132.785, 647.457 130.876, 645.667 132.667 M 340.667 141.667 C 340.300 142.033, 340 143.833, 340 145.667 C 340 148.333, 339.600 149, 338 149 C 336.637 149, 336 149.667, 336 151.094 C 336 152.346, 336.803 153.397, 338 153.710 C 339.794 154.179, 340 155.074, 340 162.394 C 340 171.940, 341.459 175, 346.010 175 C 349.162 175, 354 173.136, 354 171.921 C 354 169.103, 352.733 168.151, 350.242 169.098 C 345.734 170.812, 345 169.752, 345 161.531 L 345 154 348.250 153.985 C 352.366 153.965, 354.466 152.656, 353.677 150.601 C 353.254 149.499, 351.805 149, 349.031 149 L 345 149 345 145 C 345 141.788, 344.639 141, 343.167 141 C 342.158 141, 341.033 141.300, 340.667 141.667 M 280.062 149.827 C 278.188 150.832, 275.832 153.188, 274.827 155.062 C 268.721 166.448, 279.993 179.192, 291.094 173.451 C 300.416 168.631, 300.046 153.424, 290.510 149.440 C 286 147.555, 284.171 147.623, 280.062 149.827 M 311.750 149.447 C 310.238 150.236, 309 150.458, 309 149.941 C 309 149.423, 308.100 149, 307 149 C 305.107 149, 305 149.667, 305 161.500 L 305 174 307.500 174 C 309.979 174, 310 173.925, 310 165.122 C 310 155.081, 310.882 153.544, 316.553 153.704 C 319.113 153.777, 320.084 153.311, 320.571 151.775 C 321.733 148.116, 316.798 146.814, 311.750 149.447 M 396.415 149.421 C 391.488 151.567, 389 155.513, 389 161.185 C 389 172.359, 397.234 177.854, 407.532 173.551 C 411.299 171.977, 411.786 170.898, 409.564 169.053 C 408.518 168.185, 407.584 168.152, 406.130 168.931 C 402.790 170.718, 398.521 170.184, 396.174 167.686 C 392.352 163.617, 393.252 163, 403 163 L 412 163 412 159.223 C 412 154.548, 409.764 151.217, 405.401 149.394 C 401.346 147.700, 400.362 147.703, 396.415 149.421 M 468.121 149.710 C 458.835 154.285, 458.704 168.693, 467.906 173.451 C 479.079 179.229, 490.319 166.522, 484.173 155.062 C 482.258 151.491, 476.948 147.984, 473.516 148.023 C 472.407 148.035, 469.980 148.795, 468.121 149.710 M 498.270 149.435 C 493.816 151.437, 491.008 156.394, 491.004 162.265 C 491.001 166.259, 491.531 167.609, 494.284 170.613 C 496.884 173.450, 498.500 174.292, 502.034 174.653 C 507.262 175.187, 513 172.281, 513 169.098 C 513 166.380, 510.917 165.975, 508.115 168.149 C 501.552 173.242, 493.462 165.778, 496.621 157.545 C 497.484 155.296, 502.498 152.881, 504.687 153.659 C 505.684 154.014, 507.206 154.907, 508.070 155.644 C 509.386 156.767, 509.952 156.751, 511.570 155.547 C 513.453 154.146, 513.438 154.048, 510.946 151.524 C 507.817 148.355, 502.589 147.493, 498.270 149.435 M 536.250 149.119 C 533.935 149.787, 533 150.652, 533 152.122 C 533 154.027, 533.390 154.134, 538.030 153.496 C 543.432 152.753, 546 153.865, 546 156.949 C 546 158.273, 545.332 158.556, 543.013 158.215 C 536.104 157.201, 531 160.740, 531 166.545 C 531 169.015, 531.776 170.867, 533.557 172.648 C 535.714 174.805, 536.693 175.104, 539.807 174.557 C 541.838 174.201, 545.075 173.817, 547 173.705 L 550.500 173.500 550.814 165.500 C 551.424 149.963, 547.727 145.805, 536.250 149.119 M 624.071 149.702 C 619.112 152.302, 616.667 156.124, 616.667 161.275 C 616.667 171.516, 626.339 177.979, 634.979 173.511 C 636.563 172.692, 638.163 171.061, 638.536 169.886 C 639.532 166.748, 637.132 165.751, 634.178 168.075 C 630.861 170.683, 627.404 170.495, 624.455 167.545 C 619.541 162.632, 622.368 153.667, 628.831 153.667 C 630.560 153.667, 632.799 154.413, 633.807 155.325 C 635.416 156.782, 635.875 156.809, 637.570 155.547 C 639.453 154.146, 639.438 154.048, 636.946 151.524 C 633.572 148.107, 628.487 147.387, 624.071 149.702 M 664.270 149.444 C 659.962 151.368, 657.008 156.410, 657.004 161.846 C 656.995 172.135, 665.723 177.649, 675.532 173.551 C 679.185 172.025, 679.537 171.398, 678.056 169.057 C 677.312 167.880, 676.660 167.834, 674.525 168.807 C 673.084 169.463, 670.782 170, 669.407 170 C 666.923 170, 662 166.042, 662 164.045 C 662 163.395, 665.415 163, 671.031 163 C 681.297 163, 682.164 162.345, 679.871 156.320 C 677.384 149.786, 670.396 146.706, 664.270 149.444 M 694.250 149.443 C 692.462 150.246, 691 150.475, 691 149.952 C 691 149.428, 690.100 149, 689 149 C 687.107 149, 687 149.667, 687 161.500 L 687 174 689.500 174 C 691.983 174, 692 173.937, 692 164.949 L 692 155.898 695.595 154.396 C 698.810 153.053, 699.439 153.058, 701.556 154.445 C 703.702 155.851, 703.949 156.809, 704.211 164.748 C 704.482 172.961, 704.639 173.520, 706.750 173.820 C 708.955 174.133, 709 173.938, 709 164.125 C 709 155.175, 708.761 153.837, 706.750 151.522 C 703.975 148.329, 698.688 147.449, 694.250 149.443 M 723.071 149.752 C 717.925 152.376, 715.488 156.300, 715.568 161.832 C 715.682 169.718, 720.819 175, 728.374 175 C 733.844 175, 740.797 168.138, 736.750 166.733 C 736.063 166.494, 734.427 167.131, 733.115 168.149 C 726.114 173.583, 717.597 165.227, 721.915 157.160 C 724.139 153.003, 729.208 152.343, 733.131 155.699 C 734.536 156.901, 734.991 156.866, 736.416 155.441 C 738.471 153.386, 737.095 151.357, 732.282 149.345 C 728.125 147.607, 727.196 147.648, 723.071 149.752 M 750.415 149.421 C 745.488 151.567, 743 155.513, 743 161.185 C 743 172.359, 751.234 177.854, 761.532 173.551 C 765.299 171.977, 765.786 170.898, 763.564 169.053 C 762.518 168.185, 761.584 168.152, 760.130 168.931 C 756.790 170.718, 752.521 170.184, 750.174 167.686 C 746.352 163.617, 747.252 163, 757 163 L 766 163 766 159.223 C 766 154.548, 763.764 151.217, 759.401 149.394 C 755.346 147.700, 754.362 147.703, 750.415 149.421 M 775.242 148.988 C 772.351 150.209, 770.564 154.127, 771.393 157.429 C 771.835 159.192, 773.769 160.981, 777.520 163.098 C 781.316 165.241, 783 166.808, 783 168.200 C 783 169.935, 782.486 170.149, 779.250 169.767 C 777.188 169.523, 774.771 169, 773.879 168.604 C 771.660 167.620, 770.470 170.899, 772.360 172.789 C 773.149 173.577, 775.783 174.447, 778.214 174.721 C 781.876 175.133, 783.116 174.804, 785.442 172.804 C 790.505 168.448, 788.663 162.912, 780.818 158.908 C 776.484 156.696, 775.366 155.234, 776.862 153.738 C 777.642 152.958, 778.941 152.953, 781.440 153.720 C 784.231 154.577, 785.169 154.502, 786.128 153.345 C 788.763 150.171, 780.381 146.816, 775.242 148.988 M 520 161.430 L 520 174 522.531 174 L 525.062 174 524.781 161.750 C 524.509 149.905, 524.426 149.489, 522.250 149.180 C 520.019 148.864, 520 148.967, 520 161.430 M 646 161.500 C 646 174.035, 646.018 174.136, 648.250 173.820 C 650.441 173.508, 650.500 173.183, 650.500 161.500 C 650.500 149.817, 650.441 149.492, 648.250 149.180 C 646.018 148.864, 646 148.965, 646 161.500 M 280.800 156.046 C 278.166 158.680, 277.834 159.594, 278.346 162.796 C 279.444 169.654, 285.917 172.174, 290.545 167.545 C 294.592 163.499, 293.785 156.975, 288.928 154.463 C 285.006 152.435, 284.268 152.578, 280.800 156.046 M 396 155 C 392.750 158.250, 393.593 159, 400.500 159 C 404.167 159, 407 158.564, 407 158 C 407 156.088, 402.985 153, 400.500 153 C 399.125 153, 397.100 153.900, 396 155 M 470.364 154.170 C 467.887 155.369, 466 159.012, 466 162.593 C 466 165.847, 470.204 170, 473.500 170 C 476.796 170, 481 165.847, 481 162.593 C 481 158.854, 479.080 155.358, 476.343 154.110 C 473.482 152.807, 473.172 152.810, 470.364 154.170 M 664.174 155.314 C 662.978 156.587, 662 157.937, 662 158.314 C 662 158.692, 664.925 159, 668.500 159 C 675.469 159, 676.704 157.852, 673.171 154.655 C 670.589 152.318, 666.723 152.602, 664.174 155.314 M 750 155 C 746.750 158.250, 747.593 159, 754.500 159 C 758.167 159, 761 158.564, 761 158 C 761 156.088, 756.985 153, 754.500 153 C 753.125 153, 751.100 153.900, 750 155 M 537.596 163.306 C 536.498 164.109, 535.943 165.554, 536.155 167.056 C 536.822 171.781, 546 170.397, 546 165.572 C 546 162.051, 541.114 160.734, 537.596 163.306" stroke="none" fill="#0482c8" fill-rule="evenodd"/></svg>