<?xml version="1.0" encoding="UTF-8"?>
<svg version="1.1" xmlns="http://www.w3.org/2000/svg" width="718" height="269">
<path d="M0 0 C236.94 0 473.88 0 718 0 C718 88.77 718 177.54 718 269 C481.06 269 244.12 269 0 269 C0 180.23 0 91.46 0 0 Z " fill="#FEFEFE" transform="translate(0,0)"/>
<path d="M0 0 C14.34232917 11.19016891 26.54816551 28.60117789 29.21875 46.96875 C30.37641644 60.9712035 30.959716 75.88272457 25.21875 88.96875 C24.69796875 90.16371094 24.1771875 91.35867187 23.640625 92.58984375 C17.7224523 105.48476555 7.91969378 119.04513083 -4.78125 125.96875 C-4.80703125 125.2675 -4.8328125 124.56625 -4.859375 123.84375 C-5.37670661 115.19020308 -7.02711351 109.32828365 -13.34375 103.21875 C-24.2854295 94.68836697 -36.44598318 95.39819496 -49.65625 95.40625 C-52.45566143 95.40263381 -55.25445848 95.39307299 -58.05374146 95.36549377 C-59.78435494 95.34878809 -61.51517188 95.34576443 -63.24581909 95.35850525 C-67.90746772 95.31762723 -70.99797569 95.00545942 -74.78125 91.96875 C-76.35580739 88.81963521 -76.12924118 86.44866184 -75.78125 82.96875 C-74.14971495 80.03198691 -72.17152278 77.55717686 -69 76.21484375 C-65.93037603 75.87437489 -63.50820732 76.61262986 -60.53125 77.40625 C-50.29482578 79.87711102 -40.84182369 79.5259856 -31.22265625 74.6796875 C-23.39827752 69.74491913 -18.37324138 63.97716483 -15.4765625 55.12890625 C-13.36798474 45.5455388 -13.65658077 35.53843098 -18.78125 26.96875 C-19.7800574 25.96755882 -20.77981631 24.96731425 -21.78125 23.96875 C-21.78125 23.30875 -21.78125 22.64875 -21.78125 21.96875 C-20.99878906 21.76378906 -20.21632813 21.55882812 -19.41015625 21.34765625 C-18.39824219 21.07824219 -17.38632813 20.80882812 -16.34375 20.53125 C-15.33441406 20.26441406 -14.32507813 19.99757812 -13.28515625 19.72265625 C-10.86372999 19.20896923 -10.86372999 19.20896923 -9.78125 17.96875 C-9.70919489 16.28266034 -9.69738932 14.59374341 -9.71875 12.90625 C-9.72777344 11.98714844 -9.73679687 11.06804687 -9.74609375 10.12109375 C-9.75769531 9.41082031 -9.76929688 8.70054688 -9.78125 7.96875 C-13.11505067 6.30184966 -16.85670326 6.78398281 -20.5234375 6.765625 C-21.40218536 6.75992493 -22.28093323 6.75422485 -23.18630981 6.74835205 C-25.0542073 6.73888932 -26.92212157 6.73236303 -28.79003906 6.72851562 C-31.61033723 6.71890643 -34.42987602 6.68793679 -37.25 6.65625 C-51.74975766 6.56966891 -64.41999388 7.23576611 -75.52734375 17.59765625 C-83.29192194 25.94312558 -85.33058207 35.81819959 -85.1484375 46.90625 C-84.80320947 53.06724252 -82.39717165 58.42860165 -79.78125 63.96875 C-80.30074219 64.35804688 -80.82023437 64.74734375 -81.35546875 65.1484375 C-87.87040404 70.37483661 -91.15840755 76.10022266 -93.78125 83.96875 C-94.26121997 90.9283146 -93.626276 97.26292126 -89.2578125 102.953125 C-79.21621819 112.86761053 -65.05154311 112.52119867 -51.90625 112.46875 C-48.82490796 112.45662376 -45.74525713 112.4704927 -42.6640625 112.5 C-41.63105515 112.48302063 -41.63105515 112.48302063 -40.57717896 112.46569824 C-35.16173647 112.52170778 -32.15642752 114.01116034 -27.78125 116.96875 C-25.17629717 120.52415859 -25.64730889 123.59366226 -26.24609375 127.78515625 C-27.03843031 131.01812076 -28.34377745 132.72891036 -30.78125 134.96875 C-42.27772542 141.67502733 -55.88819636 139.51421941 -68.24609375 136.359375 C-87.335889 130.89232528 -104.22769747 118.15781963 -114.15625 100.96875 C-117.36717929 95.17320337 -119.81945584 89.29008673 -121.78125 82.96875 C-122.07902344 82.18113281 -122.37679687 81.39351563 -122.68359375 80.58203125 C-127.54099995 66.3231937 -125.65399087 49.91020303 -120.78125 35.96875 C-120.348125 34.62296875 -120.348125 34.62296875 -119.90625 33.25 C-113.36376247 14.79083874 -97.95650689 -0.47962669 -80.53125 -8.84375 C-53.58124415 -21.02743449 -23.9935983 -17.52341449 0 0 Z " fill="#1F8CC7" transform="translate(183.78125,73.03125)"/>
<path d="M0 0 C5.04029176 2.75789549 9.09908797 6.45371297 11.3125 11.8125 C12.11639718 18.03780135 11.82181792 23.58401669 8.65625 29.08984375 C5.64889756 32.94519964 1.90519851 35.2816005 -2.6875 36.8125 C-9.21120746 37.59740366 -14.28957696 36.61933219 -19.6875 32.8125 C-23.80416061 29.18691312 -25.77283736 25.2090096 -26.6875 19.8125 C-26.97853244 13.61127039 -25.47096197 9.30507624 -21.48828125 4.54296875 C-15.15376888 -1.54420908 -8.29755614 -2.67209435 0 0 Z " fill="#208DC7" transform="translate(141.6875,99.1875)"/>
<path d="M0 0 C2.36185168 1.09708729 3.96522046 2.3304373 6 4 C5.34 5.32 4.68 6.64 4 8 C3.505 7.835 3.01 7.67 2.5 7.5 C-1.056902 6.7886196 -4.4190717 6.39017855 -8 7 C-10.99380345 8.99586897 -12.63808488 10.38259171 -13.44140625 13.97265625 C-13.63331226 17.28458255 -13.21310447 19.62938353 -11.5625 22.5 C-7.78106272 24.71352426 -4.2792407 24.32917236 0 24 C0.33 23.01 0.66 22.02 1 21 C-0.32 21 -1.64 21 -3 21 C-3 19.35 -3 17.7 -3 16 C0.3 16 3.6 16 7 16 C7 19.96 7 23.92 7 28 C1.64392304 30.73501802 -2.97364281 32.10603811 -9 31 C-13.05831187 29.28492211 -16.0810972 27.03376566 -19 23.75 C-20.87319715 18.59870784 -20.65729692 13.89885776 -18.875 8.75 C-14.03758708 1.65512772 -8.4799798 -1.09373274 0 0 Z " fill="#258FC9" transform="translate(261,102)"/>
<path d="M0 0 C6.27 0 12.54 0 19 0 C19 1.65 19 3.3 19 5 C14.71 5 10.42 5 6 5 C6 7.64 6 10.28 6 13 C9.63 13 13.26 13 17 13 C17 14.65 17 16.3 17 18 C13.37 18 9.74 18 6 18 C6 20.64 6 23.28 6 26 C10.29 26 14.58 26 19 26 C19 27.65 19 29.3 19 31 C12.73 31 6.46 31 0 31 C0 20.77 0 10.54 0 0 Z " fill="#208DC8" transform="translate(277,102)"/>
<path d="M0 0 C3.4375 1.5 3.4375 1.5 6 3 C5.34 4.32 4.68 5.64 4 7 C0.7 6.67 -2.6 6.34 -6 6 C-5.83786076 8.42048293 -5.83786076 8.42048293 -5 11 C-3.05257217 12.56882088 -3.05257217 12.56882088 -0.625 13.625 C2.4165623 15.10119799 4.86825819 16.32696952 7 19 C7.5625 22.375 7.5625 22.375 7 26 C4.37156373 29.16760269 2.8119058 30.66622788 -1.2265625 31.41015625 C-5.95859314 31.59215743 -9.15671092 30.97544961 -13 28 C-12.34 26.35 -11.68 24.7 -11 23 C-10.278125 23.33 -9.55625 23.66 -8.8125 24 C-5.98302573 25.00603529 -3.97104534 25.16977402 -1 25 C-0.67 23.68 -0.34 22.36 0 21 C-1.03060547 20.41992188 -1.03060547 20.41992188 -2.08203125 19.828125 C-2.98308594 19.30734375 -3.88414062 18.7865625 -4.8125 18.25 C-5.70582031 17.73953125 -6.59914063 17.2290625 -7.51953125 16.703125 C-11.07066066 14.26486922 -12.74926493 12.30939424 -13.5625 8.0625 C-12.91125479 4.51683161 -11.68286831 3.03338629 -8.77734375 0.9140625 C-5.71278871 -0.66199438 -3.35527198 -0.47932457 0 0 Z " fill="#2690C9" transform="translate(359,102)"/>
<path d="M0 0 C1.16015625 0.11794922 1.16015625 0.11794922 2.34375 0.23828125 C4.5 0.6875 4.5 0.6875 7.5 2.6875 C6.84 4.0075 6.18 5.3275 5.5 6.6875 C2.2 6.3575 -1.1 6.0275 -4.5 5.6875 C-4.33786076 8.10798293 -4.33786076 8.10798293 -3.5 10.6875 C-1.55257217 12.25632088 -1.55257217 12.25632088 0.875 13.3125 C3.91321599 14.78707388 6.38084673 16.00680454 8.5 18.6875 C9.01126266 22.70456374 9.18398851 24.79123919 6.6875 28.0625 C2.6530509 31.05951933 -1.62912075 31.25608513 -6.5 30.6875 C-9.5 29.1875 -9.5 29.1875 -11.5 27.6875 C-10.84 26.0375 -10.18 24.3875 -9.5 22.6875 C-8.778125 23.0175 -8.05625 23.3475 -7.3125 23.6875 C-4.48302573 24.69353529 -2.47104534 24.85727402 0.5 24.6875 C0.83 23.3675 1.16 22.0475 1.5 20.6875 C0.46939453 20.10742188 0.46939453 20.10742188 -0.58203125 19.515625 C-1.48308594 18.99484375 -2.38414062 18.4740625 -3.3125 17.9375 C-4.20582031 17.42703125 -5.09914063 16.9165625 -6.01953125 16.390625 C-8.51785865 14.675238 -9.9369035 13.26559422 -11.5 10.6875 C-11.9375 7.6875 -11.9375 7.6875 -11.5 4.6875 C-8.1702165 0.43915554 -5.26288299 -0.5876886 0 0 Z " fill="#2690C8" transform="translate(314.5,102.3125)"/>
<path d="M0 0 C0.99 0 1.98 0 3 0 C3.33 4.29 3.66 8.58 4 13 C5.051875 12.896875 6.10375 12.79375 7.1875 12.6875 C11 13 11 13 13.9375 15 C16.23136937 18.33653726 16.7545711 20.09962386 16.484375 24.0625 C15.61901083 27.52395669 13.85801731 29.01181405 11 31 C6.85775694 31.57991403 5.51824511 31.34549674 2 29 C2 29.66 2 30.32 2 31 C1.34 31 0.68 31 0 31 C0 20.77 0 10.54 0 0 Z " fill="#043E79" transform="translate(436,102)"/>
<path d="M0 0 C3.62532374 0.75527578 5.36306228 2.06340335 8 4.625 C9.45147903 7.52795805 9.37239025 9.39761779 9 12.625 C6.9375 16 6.9375 16 4 18.625 C0.03792731 19.32010047 -1.95926722 19.28230491 -5.375 17.125 C-7.60949464 13.68731594 -8.45600826 10.72907434 -8 6.625 C-6.2764662 2.87749991 -4.12477961 0.85932909 0 0 Z " fill="#12477F" transform="translate(398,163.375)"/>
<path d="M0 0 C3.62532374 0.75527578 5.36306228 2.06340335 8 4.625 C9.45147903 7.52795805 9.37239025 9.39761779 9 12.625 C6.9375 16 6.9375 16 4 18.625 C0.03792731 19.32010047 -1.95926722 19.28230491 -5.375 17.125 C-7.60949464 13.68731594 -8.45600826 10.72907434 -8 6.625 C-6.2764662 2.87749991 -4.12477961 0.85932909 0 0 Z " fill="#12477F" transform="translate(263,163.375)"/>
<path d="M0 0 C2.9375 1 2.9375 1 5 2 C4.67 2.99 4.34 3.98 4 5 C3.30132812 4.9278125 2.60265625 4.855625 1.8828125 4.78125 C0.97273438 4.6884375 0.06265625 4.595625 -0.875 4.5 C-1.77992188 4.4071875 -2.68484375 4.314375 -3.6171875 4.21875 C-5.93313211 3.96952705 -5.93313211 3.96952705 -8 4 C-8.33397787 6.87413125 -8.33397787 6.87413125 -8 10 C-5.30735674 12.91703019 -1.38454344 14.31643316 2.1953125 15.9375 C4 17 4 17 6 20 C6.4375 23.4375 6.4375 23.4375 6 27 C3.89888659 29.56073196 2.36122061 30.75849312 -0.9375 31.34375 C-5.35895593 31.54472527 -8.51464019 30.94077234 -12 28 C-12 27.01 -12 26.02 -12 25 C-9.83125748 25.50603992 -8.00032373 25.99983813 -6 27 C-4.62657169 27.0689472 -3.24997898 27.08467708 -1.875 27.0625 C-0.59625 27.041875 0.6825 27.02125 2 27 C2.33397787 24.12586875 2.33397787 24.12586875 2 21 C-0.69264326 18.08296981 -4.61545656 16.68356684 -8.1953125 15.0625 C-10 14 -10 14 -12 11 C-12.61420709 6.96378195 -12.34355123 5.47888959 -9.9375 2.125 C-6.26538251 -0.53142542 -4.44778953 -0.55597369 0 0 Z " fill="#194D82" transform="translate(381,151)"/>
<path d="M0 0 C2.9375 1 2.9375 1 5 2 C4.67 2.99 4.34 3.98 4 5 C3.30132812 4.9278125 2.60265625 4.855625 1.8828125 4.78125 C0.97273438 4.6884375 0.06265625 4.595625 -0.875 4.5 C-1.77992188 4.4071875 -2.68484375 4.314375 -3.6171875 4.21875 C-5.93313211 3.96952705 -5.93313211 3.96952705 -8 4 C-8.33397787 6.87413125 -8.33397787 6.87413125 -8 10 C-5.30735674 12.91703019 -1.38454344 14.31643316 2.1953125 15.9375 C4 17 4 17 6 20 C6.4375 23.4375 6.4375 23.4375 6 27 C3.89888659 29.56073196 2.36122061 30.75849312 -0.9375 31.34375 C-5.35895593 31.54472527 -8.51464019 30.94077234 -12 28 C-12 27.01 -12 26.02 -12 25 C-9.83125748 25.50603992 -8.00032373 25.99983813 -6 27 C-4.62657169 27.0689472 -3.24997898 27.08467708 -1.875 27.0625 C-0.59625 27.041875 0.6825 27.02125 2 27 C2.33397787 24.12586875 2.33397787 24.12586875 2 21 C-0.69264326 18.08296981 -4.61545656 16.68356684 -8.1953125 15.0625 C-10 14 -10 14 -12 11 C-12.61420709 6.96378195 -12.34355123 5.47888959 -9.9375 2.125 C-6.26538251 -0.53142542 -4.44778953 -0.55597369 0 0 Z " fill="#184D83" transform="translate(491,151)"/>
<path d="M0 0 C1.98 0 3.96 0 6 0 C6 10.23 6 20.46 6 31 C4.02 31 2.04 31 0 31 C0 20.77 0 10.54 0 0 Z " fill="#2891CA" transform="translate(331,102)"/>
<path d="M0 0 C4.04381805 0.84246209 5.53235541 2.35899981 8 5.625 C8 7.275 8 8.925 8 10.625 C3.71 10.625 -0.58 10.625 -5 10.625 C-2.61050787 14.74582838 -2.61050787 14.74582838 0.04296875 15.015625 C0.75066406 14.96921875 1.45835937 14.9228125 2.1875 14.875 C4.0746875 14.75125 4.0746875 14.75125 6 14.625 C6 15.615 6 16.605 6 17.625 C2.86128812 19.19435594 0.46144178 18.97701103 -3 18.625 C-5.91963173 16.63716563 -7.61102978 15.1935303 -8.48046875 11.6875 C-8.76091862 7.68540455 -8.24214679 5.96685429 -5.875 2.625 C-3 0.625 -3 0.625 0 0 Z " fill="#0B427C" transform="translate(651,114.375)"/>
<path d="M0 0 C4.04381805 0.84246209 5.53235541 2.35899981 8 5.625 C8 7.275 8 8.925 8 10.625 C3.71 10.625 -0.58 10.625 -5 10.625 C-4.67 11.945 -4.34 13.265 -4 14.625 C-0.7 14.625 2.6 14.625 6 14.625 C6 15.615 6 16.605 6 17.625 C-1.85024507 19.35239597 -1.85024507 19.35239597 -6.0625 16.6875 C-8.18637734 13.33040356 -8.7502442 11.46191488 -8.484375 7.5625 C-7.3378965 2.97658599 -4.43992713 0.92498482 0 0 Z " fill="#0A417B" transform="translate(538,163.375)"/>
<path d="M0 0 C4.04381805 0.84246209 5.53235541 2.35899981 8 5.625 C8 7.275 8 8.925 8 10.625 C3.71 10.625 -0.58 10.625 -5 10.625 C-4.67 11.945 -4.34 13.265 -4 14.625 C-0.7 14.625 2.6 14.625 6 14.625 C6 15.615 6 16.605 6 17.625 C-1.85024507 19.35239597 -1.85024507 19.35239597 -6.0625 16.6875 C-8.18637734 13.33040356 -8.7502442 11.46191488 -8.484375 7.5625 C-7.3378965 2.97658599 -4.43992713 0.92498482 0 0 Z " fill="#0A417B" transform="translate(346,163.375)"/>
<path d="M0 0 C4.04381805 0.84246209 5.53235541 2.35899981 8 5.625 C8 7.275 8 8.925 8 10.625 C3.71 10.625 -0.58 10.625 -5 10.625 C-4.67 11.945 -4.34 13.265 -4 14.625 C-0.7 14.625 2.6 14.625 6 14.625 C6 15.615 6 16.605 6 17.625 C-1.85024507 19.35239597 -1.85024507 19.35239597 -6.0625 16.6875 C-8.18637734 13.33040356 -8.7502442 11.46191488 -8.484375 7.5625 C-7.3378965 2.97658599 -4.43992713 0.92498482 0 0 Z " fill="#12487E" transform="translate(600,163.375)"/>
<path d="M0 0 C4.04381805 0.84246209 5.53235541 2.35899981 8 5.625 C8 7.275 8 8.925 8 10.625 C3.71 10.625 -0.58 10.625 -5 10.625 C-4.67 11.945 -4.34 13.265 -4 14.625 C-0.7 14.625 2.6 14.625 6 14.625 C6 15.615 6 16.605 6 17.625 C-1.85024507 19.35239597 -1.85024507 19.35239597 -6.0625 16.6875 C-8.18637734 13.33040356 -8.7502442 11.46191488 -8.484375 7.5625 C-7.3378965 2.97658599 -4.43992713 0.92498482 0 0 Z " fill="#0D437C" transform="translate(413,114.375)"/>
<path d="M0 0 C0.99 0 1.98 0 3 0 C3.33 4.62 3.66 9.24 4 14 C5.0725 13.79375 6.145 13.5875 7.25 13.375 C10.86935819 13.01306418 12.14160546 12.91117322 15 15 C16.50156874 18.00313748 16.09281204 20.79067522 16.0625 24.125 C16.05347656 25.40632813 16.04445313 26.68765625 16.03515625 28.0078125 C16.02355469 28.99523437 16.01195312 29.98265625 16 31 C15.01 31 14.02 31 13 31 C12.93941406 30.07316406 12.87882812 29.14632812 12.81640625 28.19140625 C12.73261719 26.99386719 12.64882813 25.79632813 12.5625 24.5625 C12.48128906 23.36753906 12.40007812 22.17257813 12.31640625 20.94140625 C12.32343886 18.11429756 12.32343886 18.11429756 11 17 C8.66055264 17.28730055 6.3260857 17.61936779 4 18 C3.67 22.29 3.34 26.58 3 31 C2.01 31 1.02 31 0 31 C0 20.77 0 10.54 0 0 Z " fill="#033D78" transform="translate(318,151)"/>
<path d="M0 0 C1.27875 -0.061875 2.5575 -0.12375 3.875 -0.1875 C4.95394531 -0.23970703 4.95394531 -0.23970703 6.0546875 -0.29296875 C6.69664062 -0.19628906 7.33859375 -0.09960938 8 0 C10.45391569 3.68087353 10.22802759 6.44355588 10.125 10.6875 C10.11597656 11.38939453 10.10695313 12.09128906 10.09765625 12.81445312 C10.07413704 14.54311525 10.03826713 16.27160145 10 18 C9.34 18 8.68 18 8 18 C8 17.34 8 16.68 8 16 C7.01 16.66 6.02 17.32 5 18 C2.13277207 18.35840349 0.62764331 18.41121458 -1.8125 16.8125 C-3.42525784 14.35092224 -3.4334014 12.88934264 -3 10 C-1.9375 8.1875 -1.9375 8.1875 0 7 C3.6875 6.8125 3.6875 6.8125 7 7 C7 5.68 7 4.36 7 3 C4.36 3 1.72 3 -1 3 C-0.67 2.01 -0.34 1.02 0 0 Z " fill="#1F5285" transform="translate(443,164)"/>
<path d="M0 0 C0.66 0 1.32 0 2 0 C2 0.66 2 1.32 2 2 C2.99 1.34 3.98 0.68 5 0 C6.9375 -0.3359375 6.9375 -0.3359375 9 -0.375 C9.680625 -0.40335938 10.36125 -0.43171875 11.0625 -0.4609375 C13 0 13 0 14.73828125 1.5703125 C16.47014765 4.90536172 16.29123429 7.51556551 16.1875 11.25 C16.16042969 12.51328125 16.13335938 13.7765625 16.10546875 15.078125 C16.07066406 16.04234375 16.03585937 17.0065625 16 18 C15.01 18 14.02 18 13 18 C12.93941406 17.07316406 12.87882813 16.14632812 12.81640625 15.19140625 C12.73261719 13.99386719 12.64882813 12.79632813 12.5625 11.5625 C12.48128906 10.36753906 12.40007813 9.17257813 12.31640625 7.94140625 C12.32343886 5.11429756 12.32343886 5.11429756 11 4 C8.66055264 4.28730055 6.3260857 4.61936779 4 5 C3.67 9.29 3.34 13.58 3 18 C2.01 18 1.02 18 0 18 C0 12.06 0 6.12 0 0 Z " fill="#08417B" transform="translate(552,164)"/>
<path d="M0 0 C0.66 0 1.32 0 2 0 C2 0.66 2 1.32 2 2 C2.515625 1.67 3.03125 1.34 3.5625 1 C6.90236837 -0.37020241 9.42599644 -0.3898913 13 0 C15.64128425 2.43531255 15.98651012 3.84099923 16.29296875 7.453125 C16.25816406 8.70609375 16.22335937 9.9590625 16.1875 11.25 C16.16042969 12.51328125 16.13335937 13.7765625 16.10546875 15.078125 C16.07066406 16.04234375 16.03585937 17.0065625 16 18 C15.01 18 14.02 18 13 18 C12.93941406 17.07316406 12.87882812 16.14632812 12.81640625 15.19140625 C12.73261719 13.99386719 12.64882813 12.79632813 12.5625 11.5625 C12.48128906 10.36753906 12.40007812 9.17257813 12.31640625 7.94140625 C12.32343886 5.11429756 12.32343886 5.11429756 11 4 C8.66055264 4.28730055 6.3260857 4.61936779 4 5 C3.67 9.29 3.34 13.58 3 18 C2.01 18 1.02 18 0 18 C0 12.06 0 6.12 0 0 Z " fill="#08407B" transform="translate(457,115)"/>
<path d="M0 0 C0.99 0 1.98 0 3 0 C3 9.24 3 18.48 3 28 C7.29 28 11.58 28 16 28 C16 28.99 16 29.98 16 31 C10.72 31 5.44 31 0 31 C0 20.77 0 10.54 0 0 Z " fill="#013C78" transform="translate(386,102)"/>
<path d="M0 0 C0.66 0 1.32 0 2 0 C2 0.66 2 1.32 2 2 C2.680625 1.649375 3.36125 1.29875 4.0625 0.9375 C7.7820374 -0.24958641 10.23213639 0.07580704 14 1 C16.49118953 4.7367843 16.2065226 6.74451819 16.125 11.1875 C16.10695313 12.45980469 16.08890625 13.73210937 16.0703125 15.04296875 C16.04710937 16.01878906 16.02390625 16.99460938 16 18 C15.01 18 14.02 18 13 18 C12.93941406 17.07316406 12.87882813 16.14632812 12.81640625 15.19140625 C12.73261719 13.99386719 12.64882813 12.79632813 12.5625 11.5625 C12.48128906 10.36753906 12.40007813 9.17257813 12.31640625 7.94140625 C12.32343886 5.11429756 12.32343886 5.11429756 11 4 C8.66055264 4.28730055 6.3260857 4.61936779 4 5 C3.67 9.29 3.34 13.58 3 18 C2.01 18 1.02 18 0 18 C0 12.06 0 6.12 0 0 Z " fill="#053F79" transform="translate(530,115)"/>
<path d="M0 0 C0.99 0 1.98 0 3 0 C3.33 4.29 3.66 8.58 4 13 C8.60532389 14.45314664 8.60532389 14.45314664 11 13 C11.46954261 9.95418731 11.46954261 9.95418731 11.625 6.4375 C11.69976563 5.23996094 11.77453125 4.04242188 11.8515625 2.80859375 C11.90054688 1.88175781 11.94953125 0.95492187 12 0 C12.99 0 13.98 0 15 0 C15 5.94 15 11.88 15 18 C14.34 18 13.68 18 13 18 C13 17.34 13 16.68 13 16 C12.46375 16.33 11.9275 16.66 11.375 17 C8.34303035 18.2766188 6.25996064 18.41616519 3 18 C0.387955 15.54663063 0.01312908 14.15474815 -0.29296875 10.546875 C-0.25816406 9.29390625 -0.22335937 8.0409375 -0.1875 6.75 C-0.16042969 5.48671875 -0.13335938 4.2234375 -0.10546875 2.921875 C-0.07066406 1.95765625 -0.03585937 0.9934375 0 0 Z " fill="#07417A" transform="translate(607,115)"/>
<path d="M0 0 C0 0.99 0 1.98 0 3 C-2.31 3 -4.62 3 -7 3 C-7.33 5.97 -7.66 8.94 -8 12 C-6.35 12 -4.7 12 -3 12 C-3 12.66 -3 13.32 -3 14 C-4.65 14 -6.3 14 -8 14 C-8 19.28 -8 24.56 -8 30 C-8.99 30 -9.98 30 -11 30 C-11 24.72 -11 19.44 -11 14 C-11.99 14 -12.98 14 -14 14 C-14 13.34 -14 12.68 -14 12 C-13.01 12 -12.02 12 -11 12 C-11.04640625 11.39671875 -11.0928125 10.7934375 -11.140625 10.171875 C-11.43175822 3.7253538 -11.43175822 3.7253538 -9.4375 0.375 C-6.01315661 -1.55668089 -3.73770642 -0.86254764 0 0 Z " fill="#023D78" transform="translate(254,152)"/>
<path d="M0 0 C3.375 0.5 3.375 0.5 6.375 2.5 C6.375 3.49 6.375 4.48 6.375 5.5 C5.43527344 5.35691406 5.43527344 5.35691406 4.4765625 5.2109375 C3.65929687 5.10007813 2.84203125 4.98921875 2 4.875 C1.18789063 4.75898438 0.37578125 4.64296875 -0.4609375 4.5234375 C-1.17507813 4.51570312 -1.88921875 4.50796875 -2.625 4.5 C-3.285 5.16 -3.945 5.82 -4.625 6.5 C-4.52804884 10.84194936 -4.52804884 10.84194936 -2.625 14.5 C-1.09980724 14.41062197 0.42181929 14.25462854 1.9375 14.0625 C2.76378906 13.96066406 3.59007812 13.85882813 4.44140625 13.75390625 C5.07949219 13.67011719 5.71757813 13.58632812 6.375 13.5 C6.375 14.49 6.375 15.48 6.375 16.5 C2.95959721 18.60178633 0.35248585 19.06821226 -3.625 18.5 C-7.22642761 15.91636715 -8.45260832 14.44815425 -9.25 10.0625 C-8.24654214 4.34279021 -6.16034891 0.8497033 0 0 Z " fill="#164A80" transform="translate(580.625,163.5)"/>
<path d="M0 0 C3.375 0.5 3.375 0.5 6.375 2.5 C6.375 3.49 6.375 4.48 6.375 5.5 C5.43527344 5.35691406 5.43527344 5.35691406 4.4765625 5.2109375 C3.65929687 5.10007813 2.84203125 4.98921875 2 4.875 C1.18789063 4.75898438 0.37578125 4.64296875 -0.4609375 4.5234375 C-1.17507813 4.51570312 -1.88921875 4.50796875 -2.625 4.5 C-4.94063087 6.38500271 -4.94063087 6.38500271 -4.875 9.5 C-4.94063087 12.61499729 -4.94063087 12.61499729 -2.625 14.5 C-0.40371445 14.52308597 -0.40371445 14.52308597 2 14.125 C2.81726563 14.01414063 3.63453125 13.90328125 4.4765625 13.7890625 C5.10304688 13.69367188 5.72953125 13.59828125 6.375 13.5 C6.375 14.49 6.375 15.48 6.375 16.5 C2.95959721 18.60178633 0.35248585 19.06821226 -3.625 18.5 C-7.22642761 15.91636715 -8.45260832 14.44815425 -9.25 10.0625 C-8.24654214 4.34279021 -6.16034891 0.8497033 0 0 Z " fill="#144980" transform="translate(510.625,163.5)"/>
<path d="M0 0 C0.99 0 1.98 0 3 0 C3 1.65 3 3.3 3 5 C4.98 5 6.96 5 9 5 C9 5.99 9 6.98 9 8 C7.02 8 5.04 8 3 8 C3 11.96 3 15.92 3 20 C4.98 19.67 6.96 19.34 9 19 C9 19.99 9 20.98 9 22 C5.625 22.625 5.625 22.625 2 23 C0 21 0 21 -0.1953125 17.7421875 C-0.17210937 16.46601562 -0.14890625 15.18984375 -0.125 13.875 C-0.10695313 12.59367187 -0.08890625 11.31234375 -0.0703125 9.9921875 C-0.04710937 9.00476563 -0.02390625 8.01734375 0 7 C-0.99 7 -1.98 7 -3 7 C-3 6.34 -3 5.68 -3 5 C-2.01 5 -1.02 5 0 5 C0 3.35 0 1.7 0 0 Z " fill="#013B78" transform="translate(593,110)"/>
<path d="M0 0 C0.99 0 1.98 0 3 0 C3 1.65 3 3.3 3 5 C4.98 5 6.96 5 9 5 C9 5.99 9 6.98 9 8 C7.02 8 5.04 8 3 8 C3 11.96 3 15.92 3 20 C4.98 19.67 6.96 19.34 9 19 C9 19.99 9 20.98 9 22 C5.625 22.625 5.625 22.625 2 23 C0 21 0 21 -0.1953125 17.7421875 C-0.17210937 16.46601563 -0.14890625 15.18984375 -0.125 13.875 C-0.10695313 12.59367188 -0.08890625 11.31234375 -0.0703125 9.9921875 C-0.04710937 9.00476563 -0.02390625 8.01734375 0 7 C-0.99 7 -1.98 7 -3 7 C-3 6.34 -3 5.68 -3 5 C-2.01 5 -1.02 5 0 5 C0 3.35 0 1.7 0 0 Z " fill="#124981" transform="translate(303,159)"/>
<path d="M0 0 C3.96 0 7.92 0 12 0 C11.05261485 3.7895406 9.82863856 6.37009279 7.9375 9.75 C7.38964844 10.73484375 6.84179688 11.7196875 6.27734375 12.734375 C5.64505859 13.85585937 5.64505859 13.85585937 5 15 C7.31 15 9.62 15 12 15 C12 15.99 12 16.98 12 18 C8.04 18 4.08 18 0 18 C0.95159442 13.24202791 1.95750318 11.11867702 4.5625 7.1875 C5.20316406 6.21167969 5.84382813 5.23585938 6.50390625 4.23046875 C6.99761719 3.49441406 7.49132812 2.75835937 8 2 C5.36 2 2.72 2 0 2 C0 1.34 0 0.68 0 0 Z " fill="#245689" transform="translate(488,115)"/>
<path d="M0 0 C0.99 0 1.98 0 3 0 C3 1.65 3 3.3 3 5 C4.98 5 6.96 5 9 5 C9 5.99 9 6.98 9 8 C7.02 8 5.04 8 3 8 C3 11.96 3 15.92 3 20 C4.98 19.67 6.96 19.34 9 19 C9 19.99 9 20.98 9 22 C5.625 22.625 5.625 22.625 2 23 C0 21 0 21 -0.1953125 17.7421875 C-0.17210937 16.46601562 -0.14890625 15.18984375 -0.125 13.875 C-0.10695313 12.59367187 -0.08890625 11.31234375 -0.0703125 9.9921875 C-0.04710937 9.00476563 -0.02390625 8.01734375 0 7 C-0.99 7 -1.98 7 -3 7 C-3 6.34 -3 5.68 -3 5 C-2.01 5 -1.02 5 0 5 C0 3.35 0 1.7 0 0 Z " fill="#0F467E" transform="translate(568,110)"/>
<path d="M0 0 C1.875 1.0625 1.875 1.0625 3 3 C2.66666667 9.33333333 2.66666667 9.33333333 0 12 C-2.4375 12.375 -2.4375 12.375 -5 12 C-7.2855347 9.87208838 -7.92303658 8.52591672 -8.375 5.4375 C-8 3 -8 3 -6.8125 1.1875 C-4.35092224 -0.42525784 -2.88934264 -0.4334014 0 0 Z " fill="#F4F7F8" transform="translate(266,167)"/>
<path d="M0 0 C1.875 1.0625 1.875 1.0625 3 3 C2.66666667 9.33333333 2.66666667 9.33333333 0 12 C-2.4375 12.375 -2.4375 12.375 -5 12 C-7.2855347 9.87208838 -7.92303658 8.52591672 -8.375 5.4375 C-8 3 -8 3 -6.8125 1.1875 C-4.35092224 -0.42525784 -2.88934264 -0.4334014 0 0 Z " fill="#F4F7F9" transform="translate(401,167)"/>
<path d="M0 0 C0.66 0.33 1.32 0.66 2 1 C1.67 1.99 1.34 2.98 1 4 C-1.31 3.67 -3.62 3.34 -6 3 C-6 3.99 -6 4.98 -6 6 C-5.071875 6.268125 -4.14375 6.53625 -3.1875 6.8125 C1.4516129 8.54079696 1.4516129 8.54079696 3 11 C2.875 13.5625 2.875 13.5625 2 16 C-1.8503105 18.56687367 -3.58569763 17.83288724 -8 17 C-8.33 16.01 -8.66 15.02 -9 14 C-6.36 14 -3.72 14 -1 14 C-1 13.34 -1 12.68 -1 12 C-2.7015625 11.195625 -2.7015625 11.195625 -4.4375 10.375 C-7.54629332 8.63257149 -7.89118154 8.37723731 -8.9375 4.75 C-8.958125 3.8425 -8.97875 2.935 -9 2 C-5.54337669 -0.30441554 -4.05142119 -0.25860135 0 0 Z " fill="#1A4E82" transform="translate(560,115)"/>
<path d="M0 0 C3.375 0.625 3.375 0.625 5.3125 2.625 C5.663125 3.285 6.01375 3.945 6.375 4.625 C4.375 5.625 4.375 5.625 0.875 5.0625 C-0.28 4.918125 -1.435 4.77375 -2.625 4.625 C-3.285 5.285 -3.945 5.945 -4.625 6.625 C-4.52804884 10.96694936 -4.52804884 10.96694936 -2.625 14.625 C-1.09980724 14.53562197 0.42181929 14.37962854 1.9375 14.1875 C2.76378906 14.08566406 3.59007812 13.98382813 4.44140625 13.87890625 C5.07949219 13.79511719 5.71757812 13.71132812 6.375 13.625 C6.375 14.615 6.375 15.605 6.375 16.625 C2.97075912 18.71991746 0.34085158 19.12073145 -3.625 18.625 C-6.15325264 16.98505234 -7.27125504 15.6387813 -8.265625 12.7890625 C-8.88360389 9.80216451 -9.05558047 7.60153179 -7.80859375 4.7734375 C-5.51057845 1.57290134 -3.85395185 0.66447446 0 0 Z " fill="#12477E" transform="translate(419.625,163.375)"/>
<path d="M0 0 C0.66 0.33 1.32 0.66 2 1 C1.67 1.99 1.34 2.98 1 4 C-1.31 3.67 -3.62 3.34 -6 3 C-6 3.99 -6 4.98 -6 6 C-5.071875 6.268125 -4.14375 6.53625 -3.1875 6.8125 C1.4516129 8.54079696 1.4516129 8.54079696 3 11 C2.875 13.5625 2.875 13.5625 2 16 C-1.8503105 18.56687367 -3.58569763 17.83288724 -8 17 C-8 16.01 -8 15.02 -8 14 C-5.36 14.33 -2.72 14.66 0 15 C-0.73971936 11.61916393 -0.73971936 11.61916393 -4.5 10.1875 C-6.41015625 9.18359375 -6.41015625 9.18359375 -8 8 C-8.9375 4.75 -8.9375 4.75 -9 2 C-5.54337669 -0.30441554 -4.05142119 -0.25860135 0 0 Z " fill="#1A4E83" transform="translate(621,164)"/>
<path d="M0 0 C3.125 0.25 3.125 0.25 5.0625 1.25 C6.85829417 4.63031844 5.83906958 7.56064051 5.125 11.25 C4.125 12.25 4.125 12.25 1.1875 12.4375 C-1.875 12.25 -1.875 12.25 -3.875 10.25 C-4.10546875 8.12109375 -4.10546875 8.12109375 -4.0625 5.6875 C-4.05605469 4.88183594 -4.04960937 4.07617188 -4.04296875 3.24609375 C-3.77445756 0.05518169 -3.25495017 0.28303915 0 0 Z " fill="#F7F9FA" transform="translate(442.875,117.75)"/>
<path d="M0 0 C0.99 0 1.98 0 3 0 C3 1.65 3 3.3 3 5 C4.65 5 6.3 5 8 5 C8 5.66 8 6.32 8 7 C6.35 7 4.7 7 3 7 C3 11.29 3 15.58 3 20 C4.98 19.67 6.96 19.34 9 19 C9 19.99 9 20.98 9 22 C6.29120665 23.35439668 3.99066732 23.06501451 1 23 C-0.50156874 19.99686252 -0.09281204 17.20932478 -0.0625 13.875 C-0.05347656 12.59367187 -0.04445313 11.31234375 -0.03515625 9.9921875 C-0.02355469 9.00476563 -0.01195312 8.01734375 0 7 C-0.99 7 -1.98 7 -3 7 C-3 6.34 -3 5.68 -3 5 C-2.01 5 -1.02 5 0 5 C0 3.35 0 1.7 0 0 Z " fill="#074079" transform="translate(629,110)"/>
<path d="M0 0 C0.99 0 1.98 0 3 0 C3 0.66 3 1.32 3 2 C3.99 2.33 4.98 2.66 6 3 C5.34 3.639375 4.68 4.27875 4 4.9375 C1.31778447 9.04464253 1.62618026 12.23379829 2 17 C1.01 17 0.02 17 -1 17 C-1 16.34 -1 15.68 -1 15 C-2.32 15 -3.64 15 -5 15 C-5.31549831 9.74169479 -4.73345236 6.52070968 -2 2 C-1.34 1.34 -0.68 0.68 0 0 Z " fill="#208DC7" transform="translate(246,106)"/>
<path d="M0 0 C0.99 0 1.98 0 3 0 C3 10.23 3 20.46 3 31 C2.01 31 1.02 31 0 31 C0 20.77 0 10.54 0 0 Z " fill="#033D78" transform="translate(460,151)"/>
<path d="M0 0 C0.99 0 1.98 0 3 0 C3 10.23 3 20.46 3 31 C2.01 31 1.02 31 0 31 C0 20.77 0 10.54 0 0 Z " fill="#023B78" transform="translate(519,102)"/>
<path d="M0 0 C0.70125 0.06703125 1.4025 0.1340625 2.125 0.203125 C4 0.75 4 0.75 6 3.75 C6.1953125 7.10546875 6.1953125 7.10546875 6.125 10.9375 C6.10695313 12.20980469 6.08890625 13.48210937 6.0703125 14.79296875 C6.03550781 16.25669922 6.03550781 16.25669922 6 17.75 C5.01 17.75 4.02 17.75 3 17.75 C2.93941406 16.82316406 2.87882812 15.89632812 2.81640625 14.94140625 C2.73261719 13.74386719 2.64882813 12.54632813 2.5625 11.3125 C2.48128906 10.11753906 2.40007812 8.92257813 2.31640625 7.69140625 C2.32343886 4.86429756 2.32343886 4.86429756 1 3.75 C-1.69082872 3.92635452 -4.32851446 4.36835921 -7 4.75 C-6.625 2.8125 -6.625 2.8125 -6 0.75 C-3.64710301 -0.4264485 -2.58181049 -0.28475851 0 0 Z " fill="#184A80" transform="translate(328,164.25)"/>
<path d="M0 0 C0.66 0 1.32 0 2 0 C2 0.66 2 1.32 2 2 C2.99 1.34 3.98 0.68 5 0 C8.1875 -0.125 8.1875 -0.125 11 0 C11 0.99 11 1.98 11 3 C8.69 3.66 6.38 4.32 4 5 C3.67 9.29 3.34 13.58 3 18 C2.01 18 1.02 18 0 18 C0 12.06 0 6.12 0 0 Z " fill="#0B427B" transform="translate(278,164)"/>
<path d="M0 0 C0.99 0 1.98 0 3 0 C5.45700792 3.68551188 5.80737582 6.72174051 5 11 C2.875 14 2.875 14 0 16 C-3.3125 16.3125 -3.3125 16.3125 -6 16 C-5.67 15.01 -5.34 14.02 -5 13 C-3.35 12.67 -1.7 12.34 0 12 C0.20625 10.741875 0.4125 9.48375 0.625 8.1875 C0.74101562 7.47980469 0.85703125 6.77210937 0.9765625 6.04296875 C1.19577848 3.68244176 1.19577848 3.68244176 -1 1 C-0.67 0.67 -0.34 0.34 0 0 Z " fill="#235488" transform="translate(447,117)"/>
<path d="M0 0 C0.66 0 1.32 0 2 0 C2 0.66 2 1.32 2 2 C3.65 1.67 5.3 1.34 7 1 C6.01 1.495 6.01 1.495 5 2 C3.89485234 5.31544299 3.67892369 8.20410111 3.4375 11.6875 C3.35371094 12.86699219 3.26992188 14.04648438 3.18359375 15.26171875 C3.12300781 16.16535156 3.06242188 17.06898438 3 18 C2.01 18 1.02 18 0 18 C0 12.06 0 6.12 0 0 Z " fill="#053E78" transform="translate(552,164)"/>
<path d="M0 0 C2.16874252 0.50603992 3.99967627 0.99983813 6 2 C7.37342831 2.0689472 8.75002102 2.08467708 10.125 2.0625 C11.40375 2.041875 12.6825 2.02125 14 2 C14.33 1.34 14.66 0.68 15 0 C15.99 0.66 16.98 1.32 18 2 C15.12653347 4.87346653 13.0402246 6.30741701 9 6.4375 C5.33977991 6.24339742 2.85570735 5.40950307 0 3 C0 2.01 0 1.02 0 0 Z " fill="#144881" transform="translate(479,176)"/>
<path d="M0 0 C0.99 0 1.98 0 3 0 C3.06058594 0.88042969 3.12117187 1.76085937 3.18359375 2.66796875 C3.26738281 3.82941406 3.35117187 4.99085937 3.4375 6.1875 C3.55931641 7.91033203 3.55931641 7.91033203 3.68359375 9.66796875 C3.95403812 12.51598171 4.37521747 15.21210482 5 18 C1.125 16.25 1.125 16.25 0 14 C-0.07116382 11.62597499 -0.08409085 9.24999323 -0.0625 6.875 C-0.05347656 5.59367187 -0.04445313 4.31234375 -0.03515625 2.9921875 C-0.02355469 2.00476563 -0.01195312 1.01734375 0 0 Z " fill="#0F467E" transform="translate(607,115)"/>
<path d="M0 0 C0.33 1.32 0.66 2.64 1 4 C1.66 4 2.32 4 3 4 C3.33 5.65 3.66 7.3 4 9 C7.3 9 10.6 9 14 9 C14 9.99 14 10.98 14 12 C6.14975493 13.72739597 6.14975493 13.72739597 1.9375 11.0625 C-0.64112032 6.98661626 -0.40225117 4.74656376 0 0 Z " fill="#205387" transform="translate(592,169)"/>
<path d="M0 0 C0.99 0 1.98 0 3 0 C3 5.94 3 11.88 3 18 C2.01 18 1.02 18 0 18 C0 12.06 0 6.12 0 0 Z " fill="#043F79" transform="translate(522,164)"/>
<path d="M0 0 C0.99 0 1.98 0 3 0 C3 5.94 3 11.88 3 18 C2.01 18 1.02 18 0 18 C0 12.06 0 6.12 0 0 Z " fill="#043F79" transform="translate(432,164)"/>
<path d="M0 0 C0.99 0 1.98 0 3 0 C3 5.94 3 11.88 3 18 C2.01 18 1.02 18 0 18 C0 12.06 0 6.12 0 0 Z " fill="#053E78" transform="translate(582,115)"/>
<path d="M0 0 C0.99 0 1.98 0 3 0 C3 5.94 3 11.88 3 18 C2.01 18 1.02 18 0 18 C0 12.06 0 6.12 0 0 Z " fill="#053E79" transform="translate(479,115)"/>
<path d="M0 0 C0.99 0 1.98 0 3 0 C3 5.94 3 11.88 3 18 C2.01 18 1.02 18 0 18 C0 12.06 0 6.12 0 0 Z " fill="#053F78" transform="translate(426,115)"/>
<path d="M0 0 C0.33 0 0.66 0 1 0 C1.48875646 4.10555424 1.12882814 5.78919032 -1.0625 9.375 C-4 12 -4 12 -7.6875 12.5625 C-8.780625 12.376875 -9.87375 12.19125 -11 12 C-11.66 11.01 -12.32 10.02 -13 9 C-12.34 8.34 -11.68 7.68 -11 7 C-10.67 7.33 -10.34 7.66 -10 8 C-8.33382885 8.04063832 -6.66611905 8.042721 -5 8 C-4.54625 7.05125 -4.0925 6.1025 -3.625 5.125 C-2 2 -2 2 0 0 Z " fill="#215387" transform="translate(406,170)"/>
<path d="M0 0 C3.96 0 7.92 0 12 0 C11.12650515 3.49397942 10.19458184 5.68637013 8.4375 8.75 C7.98246094 9.54921875 7.52742188 10.3484375 7.05859375 11.171875 C6.70925781 11.77515625 6.35992187 12.3784375 6 13 C5.34 12.34 4.68 11.68 4 11 C5.32 8.03 6.64 5.06 8 2 C5.36 2 2.72 2 0 2 C0 1.34 0 0.68 0 0 Z " fill="#15497E" transform="translate(488,115)"/>
<path d="M0 0 C1.79093191 -0.08086147 3.58289628 -0.13912702 5.375 -0.1875 C6.87160156 -0.23970703 6.87160156 -0.23970703 8.3984375 -0.29296875 C9.25695312 -0.19628906 10.11546875 -0.09960938 11 0 C11.66 0.99 12.32 1.98 13 3 C11 5 11 5 7.0625 5.3125 C4.32994009 5.24802944 3.29117734 5.20018442 1 3.625 C0 2 0 2 0 0 Z " fill="#F6F8F9" transform="translate(533,174)"/>
<path d="M0 0 C1.79093191 -0.08086147 3.58289628 -0.13912702 5.375 -0.1875 C6.87160156 -0.23970703 6.87160156 -0.23970703 8.3984375 -0.29296875 C9.25695312 -0.19628906 10.11546875 -0.09960938 11 0 C11.66 0.99 12.32 1.98 13 3 C11 5 11 5 7.0625 5.3125 C4.32994009 5.24802944 3.29117734 5.20018442 1 3.625 C0 2 0 2 0 0 Z " fill="#F6F8F9" transform="translate(341,174)"/>
<path d="M0 0 C0.33 0 0.66 0 1 0 C1 1.65 1 3.3 1 5 C1.99 5 2.98 5 4 5 C4.79953138 8.28696233 5.09658936 9.71023192 4 13 C3.01 13 2.02 13 1 13 C0.67 14.32 0.34 15.64 0 17 C-0.66 16.67 -1.32 16.34 -2 16 C-1.34 10.72 -0.68 5.44 0 0 Z " fill="#2A92CB" transform="translate(170,115)"/>
<path d="M0 0 C0.5878125 0.7425 0.5878125 0.7425 1.1875 1.5 C2.93681178 3.21045864 2.93681178 3.21045864 5.5 3.375 C8.37824511 2.94326323 9.22510401 2.24197388 11 0 C11.66 0.99 12.32 1.98 13 3 C10.54953627 6.13659357 9.47006326 6.94227293 5.4375 7.4375 C2 7 2 7 0 5.75 C-1 4 -1 4 -0.6875 1.8125 C-0.460625 1.214375 -0.23375 0.61625 0 0 Z " fill="#235388" transform="translate(258,175)"/>
<path d="M0 0 C1.32 0.66 2.64 1.32 4 2 C3.6875 4.375 3.6875 4.375 3 7 C-0.8503105 9.56687367 -2.58569763 8.83288724 -7 8 C-7 7.01 -7 6.02 -7 5 C-4.36 5.33 -1.72 5.66 1 6 C0.34 4.35 -0.32 2.7 -1 1 C-0.67 0.67 -0.34 0.34 0 0 Z " fill="#10477E" transform="translate(620,173)"/>
<path d="M0 0 C1.32 0.33 2.64 0.66 4 1 C4 1.66 4 2.32 4 3 C7.3 3 10.6 3 14 3 C14 3.99 14 4.98 14 6 C10.97192642 6.66630813 8.10590813 7.13503948 5 7 C1.9375 4.6875 1.9375 4.6875 0 2 C0 1.34 0 0.68 0 0 Z " fill="#255788" transform="translate(530,175)"/>
<path d="M0 0 C1.32 0.33 2.64 0.66 4 1 C4 1.66 4 2.32 4 3 C7.3 3 10.6 3 14 3 C14 3.99 14 4.98 14 6 C10.97192642 6.66630813 8.10590813 7.13503948 5 7 C1.9375 4.6875 1.9375 4.6875 0 2 C0 1.34 0 0.68 0 0 Z " fill="#255788" transform="translate(338,175)"/>
<path d="M0 0 C4.875 1.875 4.875 1.875 6 3 C8.67058851 3.14115161 11.32432238 3.04247107 14 3 C14 3.99 14 4.98 14 6 C10.86128812 7.56935594 8.46144178 7.35201103 5 7 C2.0625 4.625 2.0625 4.625 0 2 C0 1.34 0 0.68 0 0 Z " fill="#27588A" transform="translate(643,126)"/>
<path d="M0 0 C1.9375 0.75 1.9375 0.75 4 2 C5.27677226 4.94639752 4.96706319 6.99135897 4 10 C2.125 9.875 2.125 9.875 0 9 C-1.375 6.125 -1.375 6.125 -2 3 C-1.34 2.01 -0.68 1.02 0 0 Z " fill="#208CC7" transform="translate(317,117)"/>
<path d="M0 0 C0 0.33 0 0.66 0 1 C-1.98 1 -3.96 1 -6 1 C-6 2.32 -6 3.64 -6 5 C-5.01 5.33 -4.02 5.66 -3 6 C-8.625 7.125 -8.625 7.125 -12 6 C-12 5.34 -12 4.68 -12 4 C-12.66 3.67 -13.32 3.34 -14 3 C-9.43672206 -0.53286034 -5.50366792 -0.32374517 0 0 Z " fill="#3799CD" transform="translate(261,102)"/>
<path d="M0 0 C1.43836751 0.11458693 2.87570966 0.24209116 4.3125 0.375 C5.51326172 0.47941406 5.51326172 0.47941406 6.73828125 0.5859375 C9 1 9 1 12 3 C11.34 4.32 10.68 5.64 10 7 C8.35 6.67 6.7 6.34 5 6 C5 5.34 5 4.68 5 4 C4.34 3.67 3.68 3.34 3 3 C3.33 2.34 3.66 1.68 4 1 C3.01 1 2.02 1 1 1 C0.67 1.66 0.34 2.32 0 3 C0 2.01 0 1.02 0 0 Z " fill="#2A91CA" transform="translate(310,102)"/>
<path d="M0 0 C3.0625 0.1875 3.0625 0.1875 5.0625 2.1875 C5.0625 3.1775 5.0625 4.1675 5.0625 5.1875 C1.7625 5.1875 -1.5375 5.1875 -4.9375 5.1875 C-3.69966216 0.23614865 -3.69966216 0.23614865 0 0 Z " fill="#D3DEE7" transform="translate(599.9375,166.8125)"/>
<path d="M0 0 C3.0625 0.1875 3.0625 0.1875 5.0625 2.1875 C5.0625 3.1775 5.0625 4.1675 5.0625 5.1875 C1.7625 5.1875 -1.5375 5.1875 -4.9375 5.1875 C-3.69966216 0.23614865 -3.69966216 0.23614865 0 0 Z " fill="#D3DEE7" transform="translate(537.9375,166.8125)"/>
<path d="M0 0 C3.0625 0.1875 3.0625 0.1875 5.0625 2.1875 C5.0625 3.1775 5.0625 4.1675 5.0625 5.1875 C1.7625 5.1875 -1.5375 5.1875 -4.9375 5.1875 C-3.69966216 0.23614865 -3.69966216 0.23614865 0 0 Z " fill="#D3DEE7" transform="translate(345.9375,166.8125)"/>
<path d="M0 0 C3.0625 0.1875 3.0625 0.1875 5.0625 2.1875 C5.0625 3.1775 5.0625 4.1675 5.0625 5.1875 C1.7625 5.1875 -1.5375 5.1875 -4.9375 5.1875 C-3.69966216 0.23614865 -3.69966216 0.23614865 0 0 Z " fill="#D3DEE7" transform="translate(650.9375,117.8125)"/>
<path d="M0 0 C0.99 0.33 1.98 0.66 3 1 C3 5.62 3 10.24 3 15 C2.01 15 1.02 15 0 15 C0 10.05 0 5.1 0 0 Z " fill="#033D78" transform="translate(457,118)"/>
<path d="M0 0 C3.0625 0.1875 3.0625 0.1875 5.0625 2.1875 C5.0625 3.1775 5.0625 4.1675 5.0625 5.1875 C1.7625 5.1875 -1.5375 5.1875 -4.9375 5.1875 C-3.69966216 0.23614865 -3.69966216 0.23614865 0 0 Z " fill="#D2DEE7" transform="translate(412.9375,117.8125)"/>
<path d="M0 0 C0.66 0 1.32 0 2 0 C2 0.66 2 1.32 2 2 C2.515625 1.67 3.03125 1.34 3.5625 1 C6.86224134 -0.35374004 9.47013492 -0.32683936 13 0 C13.66 0.99 14.32 1.98 15 3 C14.34 3 13.68 3 13 3 C12.67 3.66 12.34 4.32 12 5 C11.67 4.67 11.34 4.34 11 4 C8.99907602 4.29045671 6.99808598 4.5852134 5.0078125 4.94140625 C3 5 3 5 0 3 C0 2.01 0 1.02 0 0 Z " fill="#0A417A" transform="translate(457,115)"/>
<path d="M0 0 C3.05917167 0.33990796 4.80401508 0.85698398 7.3125 2.6875 C9.45553291 5.62424881 9.32316568 7.44517748 9 11 C8.01 11 7.02 11 6 11 C5.62875 9.6078125 5.62875 9.6078125 5.25 8.1875 C3.91303807 4.77824707 2.94881621 3.96587748 0 2 C0 1.34 0 0.68 0 0 Z " fill="#0D437C" transform="translate(488,166)"/>
<path d="M0 0 C4.05780213 -0.47183746 5.56195324 -0.33329645 8.875 2.1875 C11 5 11 5 11.3125 7.8125 C11.1578125 8.8953125 11.1578125 8.8953125 11 10 C10.01 10 9.02 10 8 10 C7.34 8.02 6.68 6.04 6 4 C4.35 3.67 2.7 3.34 1 3 C0.67 2.01 0.34 1.02 0 0 Z " fill="#1C5086" transform="translate(410,115)"/>
<path d="M0 0 C0.99 0 1.98 0 3 0 C3 1.65 3 3.3 3 5 C4.98 5 6.96 5 9 5 C9 5.99 9 6.98 9 8 C5.65747276 8.07427838 3.1964086 8.06546953 0 7 C-0.99 7 -1.98 7 -3 7 C-3 6.34 -3 5.68 -3 5 C-2.01 5 -1.02 5 0 5 C0 3.35 0 1.7 0 0 Z " fill="#1F5086" transform="translate(593,110)"/>
<path d="M0 0 C4.05780213 -0.47183746 5.56195324 -0.33329645 8.875 2.1875 C11 5 11 5 11.3125 7.8125 C11.1578125 8.8953125 11.1578125 8.8953125 11 10 C10.01 10 9.02 10 8 10 C7.7525 9.030625 7.505 8.06125 7.25 7.0625 C6.63125 5.5465625 6.63125 5.5465625 6 4 C3.96756452 3.03122943 3.96756452 3.03122943 2 3 C2 2.34 2 1.68 2 1 C1.34 0.67 0.68 0.34 0 0 Z " fill="#1E5084" transform="translate(535,164)"/>
<path d="M0 0 C4.05780213 -0.47183746 5.56195324 -0.33329645 8.875 2.1875 C11 5 11 5 11.3125 7.8125 C11.1578125 8.8953125 11.1578125 8.8953125 11 10 C10.01 10 9.02 10 8 10 C7.7525 9.030625 7.505 8.06125 7.25 7.0625 C6.63125 5.5465625 6.63125 5.5465625 6 4 C3.96756452 3.03122943 3.96756452 3.03122943 2 3 C2 2.34 2 1.68 2 1 C1.34 0.67 0.68 0.34 0 0 Z " fill="#1E5084" transform="translate(343,164)"/>
<path d="M0 0 C0.042721 1.66611905 0.04063832 3.33382885 0 5 C-1 6 -1 6 -4.0625 6.0625 C-5.5165625 6.0315625 -5.5165625 6.0315625 -7 6 C-7 4.35 -7 2.7 -7 1 C-4.53721199 -0.231394 -2.7204945 -0.07159196 0 0 Z " fill="#E7EDF1" transform="translate(450,173)"/>
<path d="M0 0 C3.53677664 -0.32152515 5.3962104 -0.4131192 8.375 1.625 C10.4131192 4.6037896 10.32152515 6.46322336 10 10 C9.01 9.67 8.02 9.34 7 9 C6.71125 8.236875 6.4225 7.47375 6.125 6.6875 C4.7351884 3.36739451 2.89492901 2.05692325 0 0 Z " fill="#073E79" transform="translate(377,167)"/>
<path d="M0 0 C0.66 0.33 1.32 0.66 2 1 C2 1.66 2 2.32 2 3 C2.66 3.66 3.32 4.32 4 5 C0.79619983 7.13586678 -0.01939967 7.23132175 -3.6875 7.125 C-4.89986328 7.09792969 -4.89986328 7.09792969 -6.13671875 7.0703125 C-7.05904297 7.03550781 -7.05904297 7.03550781 -8 7 C-5.94766315 4.7522025 -4.99332739 3.9977758 -2 3 C-1.34 2.01 -0.68 1.02 0 0 Z " fill="#3196CC" transform="translate(359,126)"/>
<path d="M0 0 C1 3 1 3 0 6 C0.69867187 5.97679687 1.39734375 5.95359375 2.1171875 5.9296875 C3.02726563 5.91164062 3.93734375 5.89359375 4.875 5.875 C5.77992188 5.85179687 6.68484375 5.82859375 7.6171875 5.8046875 C10 6 10 6 12 8 C10.04174127 8.02694851 8.08337774 8.04637218 6.125 8.0625 C5.03445313 8.07410156 3.94390625 8.08570313 2.8203125 8.09765625 C0 8 0 8 -2 7 C-2.125 4.625 -2.125 4.625 -2 2 C-1.34 1.34 -0.68 0.68 0 0 Z " fill="#033C78" transform="translate(595,166)"/>
<path d="M0 0 C0.99 0 1.98 0 3 0 C3 3.96 3 7.92 3 12 C2.01 12 1.02 12 0 12 C0 8.04 0 4.08 0 0 Z " fill="#043E79" transform="translate(331,170)"/>
<path d="M0 0 C0.66 0.33 1.32 0.66 2 1 C1.67 1.99 1.34 2.98 1 4 C-0.27875 3.95875 -1.5575 3.9175 -2.875 3.875 C-5.01871492 3.75787127 -5.01871492 3.75787127 -7 4 C-7.66 4.66 -8.32 5.32 -9 6 C-8.625 3.5625 -8.625 3.5625 -8 1 C-5.26094655 -0.36952673 -3.02912668 -0.12621361 0 0 Z " fill="#2E5F91" transform="translate(560,115)"/>
<path d="M0 0 C4.98012761 1.50912958 8.24259942 4.55661849 12 8 C11.01 8.33 10.02 8.66 9 9 C6.8125 7.6875 6.8125 7.6875 5 6 C5 5.34 5 4.68 5 4 C3.35 3.67 1.7 3.34 0 3 C0 2.01 0 1.02 0 0 Z " fill="#2992CB" transform="translate(180,72)"/>
<path d="M0 0 C2.97 0 5.94 0 9 0 C9 0.99 9 1.98 9 3 C4.545 3.495 4.545 3.495 0 4 C0 2.68 0 1.36 0 0 Z " fill="#255789" transform="translate(410,129)"/>
<path d="M0 0 C-0.33 1.32 -0.66 2.64 -1 4 C-3.97 4 -6.94 4 -10 4 C-8 1 -8 1 -6.125 0.3125 C-4 0 -4 0 0 0 Z " fill="#F3F9FB" transform="translate(262,123)"/>
<path d="M0 0 C2.64 0 5.28 0 8 0 C8 0.99 8 1.98 8 3 C5.03 3 2.06 3 -1 3 C-0.67 2.01 -0.34 1.02 0 0 Z " fill="#2B5B8C" transform="translate(443,164)"/>
<path d="M0 0 C0.99 0 1.98 0 3 0 C3 1.65 3 3.3 3 5 C4.65 5 6.3 5 8 5 C8 5.66 8 6.32 8 7 C1.125 6.125 1.125 6.125 0 5 C-0.04063832 3.33382885 -0.042721 1.66611905 0 0 Z " fill="#083F77" transform="translate(303,159)"/>
<path d="M0 0 C1.27875 -0.061875 2.5575 -0.12375 3.875 -0.1875 C4.95394531 -0.23970703 4.95394531 -0.23970703 6.0546875 -0.29296875 C6.69664062 -0.19628906 7.33859375 -0.09960938 8 0 C8.66 0.99 9.32 1.98 10 3 C5.545 3.495 5.545 3.495 1 4 C0.67 2.68 0.34 1.36 0 0 Z " fill="#235587" transform="translate(557,164)"/>
<path d="M0 0 C2.4375 -0.4375 2.4375 -0.4375 5 0 C6.8125 2 6.8125 2 8 4 C5.45297384 5.27351308 4.5717055 4.80191925 1.875 4.0625 C1.15054687 3.86785156 0.42609375 3.67320312 -0.3203125 3.47265625 C-0.87460937 3.31667969 -1.42890625 3.16070312 -2 3 C-1.34 2.01 -0.68 1.02 0 0 Z " fill="#0A427B" transform="translate(418,164)"/>
<path d="M0 0 C0.33 0.99 0.66 1.98 1 3 C2.98 3 4.96 3 7 3 C7 3.66 7 4.32 7 5 C5.02 5 3.04 5 1 5 C1 5.66 1 6.32 1 7 C0.01 6.67 -0.98 6.34 -2 6 C-1.34 4.02 -0.68 2.04 0 0 Z " fill="#033C76" transform="translate(645,120)"/>
<path d="M0 0 C2.05078125 0.03255208 4.1015625 0.06510417 6.15234375 0.09765625 C6.15234375 1.08765625 6.15234375 2.07765625 6.15234375 3.09765625 C3.84234375 3.42765625 1.53234375 3.75765625 -0.84765625 4.09765625 C-1.50765625 3.10765625 -2.16765625 2.11765625 -2.84765625 1.09765625 C-1.84765625 0.09765625 -1.84765625 0.09765625 0 0 Z " fill="#144980" transform="translate(595.84765625,128.90234375)"/>
<path d="M0 0 C2.31 0 4.62 0 7 0 C7 0.99 7 1.98 7 3 C4.36 3.33 1.72 3.66 -1 4 C-0.67 2.68 -0.34 1.36 0 0 Z " fill="#13487F" transform="translate(440,115)"/>
<path d="M0 0 C0.99 0 1.98 0 3 0 C3.66 1.98 4.32 3.96 5 6 C4.01 6.66 3.02 7.32 2 8 C-0.1519437 4.77208445 -0.20086443 3.71599191 0 0 Z " fill="#0C447C" transform="translate(369,157)"/>
<path d="M0 0 C0.33 0 0.66 0 1 0 C1.25 3.3125 1.25 3.3125 1 7 C-1 8.9375 -1 8.9375 -3 10 C-3.66 9.34 -4.32 8.68 -5 8 C-4.67 7.34 -4.34 6.68 -4 6 C-3.01 6 -2.02 6 -1 6 C-0.67 4.02 -0.34 2.04 0 0 Z " fill="#3596CC" transform="translate(322,121)"/>
<path d="M0 0 C0 0.66 0 1.32 0 2 C0.99 2.33 1.98 2.66 3 3 C2.05125 3.28875 1.1025 3.5775 0.125 3.875 C-3.05211578 4.76825109 -3.05211578 4.76825109 -5 7 C-5.66 7.66 -6.32 8.32 -7 9 C-6.53149863 4.78348764 -4.94559315 0 0 0 Z " fill="#27588B" transform="translate(650,115)"/>
<path d="M0 0 C3.96 0 7.92 0 12 0 C10.68 1.32 9.36 2.64 8 4 C8 3.34 8 2.68 8 2 C5.36 2 2.72 2 0 2 C0 1.34 0 0.68 0 0 Z " fill="#043C78" transform="translate(488,115)"/>
<path d="M0 0 C0.33 0 0.66 0 1 0 C1 3.3 1 6.6 1 10 C0.34 10 -0.32 10 -1 10 C-1 9.34 -1 8.68 -1 8 C-2.32 7.67 -3.64 7.34 -5 7 C-3.68 7 -2.36 7 -1 7 C-1.020625 6.030625 -1.04125 5.06125 -1.0625 4.0625 C-1 1 -1 1 0 0 Z " fill="#053F78" transform="translate(452,172)"/>
<path d="M0 0 C2.91387197 0.2913872 3.82565583 0.79452294 5.75 3.0625 C6.1625 3.701875 6.575 4.34125 7 5 C6.01 5.33 5.02 5.66 4 6 C2.35 4.35 0.7 2.7 -1 1 C-0.67 0.67 -0.34 0.34 0 0 Z " fill="#2F94CC" transform="translate(91,175)"/>
<path d="M0 0 C0.66 0.33 1.32 0.66 2 1 C2.26252625 5.33168317 1.29243536 8.8803623 0 13 C-0.66 12.67 -1.32 12.34 -2 12 C-2 10.02 -2 8.04 -2 6 C-1.34 6 -0.68 6 0 6 C-0.2784375 4.7934375 -0.2784375 4.7934375 -0.5625 3.5625 C-0.706875 2.716875 -0.85125 1.87125 -1 1 C-0.67 0.67 -0.34 0.34 0 0 Z " fill="#154A81" transform="translate(451,166)"/>
<path d="M0 0 C3.625 0.375 3.625 0.375 7 1 C7 1.99 7 2.98 7 4 C2.545 3.01 2.545 3.01 -2 2 C-1.34 1.34 -0.68 0.68 0 0 Z " fill="#2B5A8C" transform="translate(247,151)"/>
<path d="M0 0 C0.94875 0.165 1.8975 0.33 2.875 0.5 C5.80168901 1.0526635 5.80168901 1.0526635 8 1 C8 1.99 8 2.98 8 4 C6.02 4.33 4.04 4.66 2 5 C1.34 3.35 0.68 1.7 0 0 Z " fill="#10467F" transform="translate(630,128)"/>
<path d="M0 0 C0.99 0.66 1.98 1.32 3 2 C2.21625 2.45375 1.4325 2.9075 0.625 3.375 C-2.03698031 4.88428742 -2.03698031 4.88428742 -4 7 C-5.32 6.67 -6.64 6.34 -8 6 C-5.36 4.02 -2.72 2.04 0 0 Z " fill="#2C93CC" transform="translate(96,68)"/>
<path d="M0 0 C3.375 -0.1875 3.375 -0.1875 7 0 C7.66 0.99 8.32 1.98 9 3 C8.34 3 7.68 3 7 3 C6.67 3.66 6.34 4.32 6 5 C3.98079663 3.69593116 1.98075027 2.36176581 0 1 C0 0.67 0 0.34 0 0 Z " fill="#215389" transform="translate(463,115)"/>
<path d="M0 0 C1.65 0.99 3.3 1.98 5 3 C4.34 4.32 3.68 5.64 3 7 C1.68 6.34 0.36 5.68 -1 5 C-0.34 5 0.32 5 1 5 C0.67 3.35 0.34 1.7 0 0 Z " fill="#2A91CA" transform="translate(262,103)"/>
<path d="M0 0 C0 0.99 0 1.98 0 3 C-3.4019487 5.09350689 -6.05272412 5.17942163 -10 5 C-7 3 -7 3 -4 3 C-4 2.34 -4 1.68 -4 1 C-2 0 -2 0 0 0 Z " fill="#1D4F86" transform="translate(587,177)"/>
<path d="M0 0 C0.66 0.33 1.32 0.66 2 1 C0.12050295 4.57104439 -1.17053157 6.54744301 -5 8 C-3.8141763 4.62496331 -2.72426311 2.35277269 0 0 Z " fill="#215385" transform="translate(416,164)"/>
<path d="M0 0 C2.35953094 2.35953094 2.49141413 3.77895617 3 7 C1.68 7 0.36 7 -1 7 C-1.04254356 5.00045254 -1.04080783 2.99958364 -1 1 C-0.67 0.67 -0.34 0.34 0 0 Z " fill="#094178" transform="translate(480,155)"/>
<path d="M0 0 C0 0.99 0 1.98 0 3 C-3.4019487 5.09350689 -6.05272412 5.17942163 -10 5 C-6.25 3 -6.25 3 -4 3 C-4 2.34 -4 1.68 -4 1 C-2 0 -2 0 0 0 Z " fill="#1D5084" transform="translate(517,177)"/>
<path d="M0 0 C1.32 0.33 2.64 0.66 4 1 C4 1.66 4 2.32 4 3 C4.66 3 5.32 3 6 3 C6 3.99 6 4.98 6 6 C4.125 5.8125 4.125 5.8125 2 5 C0.75 2.4375 0.75 2.4375 0 0 Z " fill="#1C4F85" transform="translate(530,175)"/>
<path d="M0 0 C1.32 0.33 2.64 0.66 4 1 C4 1.66 4 2.32 4 3 C4.66 3 5.32 3 6 3 C6 3.99 6 4.98 6 6 C4.125 5.8125 4.125 5.8125 2 5 C0.75 2.4375 0.75 2.4375 0 0 Z " fill="#1C4F85" transform="translate(338,175)"/>
<path d="M0 0 C2.4375 0.75 2.4375 0.75 5 2 C5.8125 4.125 5.8125 4.125 6 6 C3.5625 5.25 3.5625 5.25 1 4 C0.1875 1.875 0.1875 1.875 0 0 Z " fill="#1E5084" transform="translate(540,115)"/>
<path d="M0 0 C0.33 1.32 0.66 2.64 1 4 C1.66 4 2.32 4 3 4 C3.66 6.31 4.32 8.62 5 11 C0.07692308 6.81538462 0.07692308 6.81538462 -0.3125 2.6875 C-0.209375 1.800625 -0.10625 0.91375 0 0 Z " fill="#3598CC" transform="translate(346,107)"/>
<path d="M0 0 C0.33 1.32 0.66 2.64 1 4 C2.98 4.495 2.98 4.495 5 5 C5.33 4.01 5.66 3.02 6 2 C6.33 3.32 6.66 4.64 7 6 C6.01 6.33 5.02 6.66 4 7 C3.34 6.67 2.68 6.34 2 6 C1.67 6.66 1.34 7.32 1 8 C-0.35439668 5.29120665 -0.06501451 2.99066732 0 0 Z " fill="#3798CF" transform="translate(303,107)"/>
<path d="M0 0 C0.66 0.66 1.32 1.32 2 2 C1.67 2.99 1.34 3.98 1 5 C-1.31 4.01 -3.62 3.02 -6 2 C-6 1.67 -6 1.34 -6 1 C-3.125 0.375 -3.125 0.375 0 0 Z " fill="#3093CB" transform="translate(110,203)"/>
<path d="M0 0 C0.33 0.66 0.66 1.32 1 2 C3.02463255 2.65213292 3.02463255 2.65213292 5 3 C5 2.34 5 1.68 5 1 C5.99 1 6.98 1 8 1 C8 1.66 8 2.32 8 3 C5.69 3.66 3.38 4.32 1 5 C1 4.34 1 3.68 1 3 C0.34 2.67 -0.32 2.34 -1 2 C-0.67 1.34 -0.34 0.68 0 0 Z " fill="#2D94CC" transform="translate(136,131)"/>
<path d="M0 0 C2.875 0.3125 2.875 0.3125 6 1 C6.66 1.99 7.32 2.98 8 4 C5 5 5 5 2.3125 3.6875 C1.549375 3.130625 0.78625 2.57375 0 2 C0 1.34 0 0.68 0 0 Z " fill="#184B80" transform="translate(650,115)"/>
<path d="M0 0 C-0.99 0.33 -1.98 0.66 -3 1 C-3 1.66 -3 2.32 -3 3 C-2.34 3.33 -1.68 3.66 -1 4 C-2.32 4 -3.64 4 -5 4 C-5 3.34 -5 2.68 -5 2 C-6.32 1.67 -7.64 1.34 -9 1 C-6.04335481 -0.4783226 -3.25770263 -0.06032783 0 0 Z " fill="#2891CB" transform="translate(150,58)"/>
<path d="M0 0 C1.46726798 3.81489674 0.43336419 6.29011622 -1 10 C-1.33 10 -1.66 10 -2 10 C-2.25 3.375 -2.25 3.375 0 0 Z " fill="#3999CB" transform="translate(181,189)"/>
<path d="M0 0 C0.66 0.33 1.32 0.66 2 1 C2 2.98 2 4.96 2 7 C1.01 7 0.02 7 -1 7 C-0.67 4.69 -0.34 2.38 0 0 Z " fill="#043C75" transform="translate(495,170)"/>
<path d="M0 0 C1.65 0 3.3 0 5 0 C5 1.65 5 3.3 5 5 C2.525 4.01 2.525 4.01 0 3 C0 2.01 0 1.02 0 0 Z " fill="#EEF3F4" transform="translate(554,118)"/>
<path d="M0 0 C2.31 0.33 4.62 0.66 7 1 C6.67 1.66 6.34 2.32 6 3 C4.35 3 2.7 3 1 3 C0.67 2.01 0.34 1.02 0 0 Z " fill="#25578B" transform="translate(442,179)"/>
<path d="M0 0 C2.97 0.495 2.97 0.495 6 1 C5.67 1.99 5.34 2.98 5 4 C3.35 3.67 1.7 3.34 0 3 C0 2.01 0 1.02 0 0 Z " fill="#28588B" transform="translate(613,178)"/>
<path d="M0 0 C1.32 0.66 2.64 1.32 4 2 C2.35 3.32 0.7 4.64 -1 6 C-1.66 5.67 -2.32 5.34 -3 5 C-2.01 3.35 -1.02 1.7 0 0 Z " fill="#26578C" transform="translate(493,176)"/>
<path d="M0 0 C1.98 0 3.96 0 6 0 C5.67 0.99 5.34 1.98 5 3 C3.02 3.33 1.04 3.66 -1 4 C-0.67 2.68 -0.34 1.36 0 0 Z " fill="#2F5D8E" transform="translate(597,164)"/>
<path d="M0 0 C1.65 0.33 3.3 0.66 5 1 C4.67 1.99 4.34 2.98 4 4 C1.03 3.505 1.03 3.505 -2 3 C-1.34 2.67 -0.68 2.34 0 2 C0 1.34 0 0.68 0 0 Z " fill="#406C9A" transform="translate(618,164)"/>
<path d="M0 0 C1.98 0.495 1.98 0.495 4 1 C3.34 2.98 2.68 4.96 2 7 C0.4375 5.75 0.4375 5.75 -1 4 C-0.6875 1.8125 -0.6875 1.8125 0 0 Z " fill="#13487D" transform="translate(244,153)"/>
</svg>
