<svg xmlns="http://www.w3.org/2000/svg" width="138" height="68" viewBox="0 0 138 68"> <g class="site-logo__logo"> <g style="fill: #494d5c"> <path d="M5.244,22.786,8.74,29c.739,1.244.991,1.37,1.82,1.37v.577H8.146L4.253,23.922,2.937,25.6v3.351c0,1.316.091,1.424,1.334,1.424v.577H0v-.577c1.316,0,1.424-.108,1.424-1.406V19.6c0-1.3-.108-1.406-1.424-1.406v-.577H4.2v.577c-1.171,0-1.262.126-1.262,1.406v4.7h.055L6.56,19.7c.468-.613.739-.992.739-1.226,0-.216-.253-.288-.811-.288v-.577H9.8v.577c-.721,0-.974.09-1.622.883Z"></path> <path d="M11.115,26.39c0-2.432,1.081-4.7,4.217-4.7,2.775,0,4.2,1.8,4.2,4.7,0,2.595-.919,4.776-4.2,4.776C12.539,31.166,11.115,29.526,11.115,26.39Zm1.478.018c0,3.623,1.6,4.145,2.721,4.145,2.235,0,2.721-2.162,2.721-4.145,0-2.631-.847-4.09-2.721-4.09C13.458,22.318,12.593,23.741,12.593,26.408Z"></path> <path d="M23.03,23.363a4.046,4.046,0,0,1,3.082-1.676c2.018,0,2.775,1.135,2.775,2.955v4.506c0,1.135.09,1.3,1.009,1.3v.5h-3.46v-.5c.973,0,1.046-.126,1.046-1.333V24.7c0-1.675-.559-2.27-1.767-2.27a3.891,3.891,0,0,0-2.685,1.856V29.13c0,1.189.036,1.315,1.01,1.315v.5H20.435v-.5c1.1,0,1.19-.108,1.19-1.333V24.246c0-1.171-.108-1.3-1.19-1.28v-.432a5.3,5.3,0,0,0,2.271-.847l.216.126.072,1.55Z"></path> <path d="M31.307,28.427a2.389,2.389,0,0,0,2.6,2.126c1.532,0,2.325-.9,2.325-1.784a1.446,1.446,0,0,0-.4-1.009,9.258,9.258,0,0,0-2.108-1.117,9.7,9.7,0,0,1-2.09-1.28,2.276,2.276,0,0,1-.541-1.477c0-1.154,1.009-2.2,3.28-2.2a6.369,6.369,0,0,1,2.415.432c.072.5.162,1.1.324,1.893l-.541.108c-.288-1.442-.865-1.8-2.108-1.8-.721,0-2.018.306-2.018,1.351a1.564,1.564,0,0,0,.829,1.226c.648.342,1.675.648,2.09.919,1.153.522,2.325,1.4,2.325,2.685,0,1.73-1.694,2.667-3.659,2.667a6.544,6.544,0,0,1-2.847-.559c-.126-.793-.27-1.423-.4-2.036Z"></path> <path d="M38.894,26.39c0-2.432,1.081-4.7,4.217-4.7,2.775,0,4.2,1.8,4.2,4.7,0,2.595-.919,4.776-4.2,4.776C40.317,31.166,38.894,29.526,38.894,26.39Zm1.477.018c0,3.623,1.6,4.145,2.722,4.145,2.234,0,2.721-2.162,2.721-4.145,0-2.631-.847-4.09-2.721-4.09C41.236,22.318,40.371,23.741,40.371,26.408Z"></path> <path d="M50.755,23.219h.036c.847-1.064,1.5-1.532,2.415-1.532a1.46,1.46,0,0,1,1.55,1.3c0,.451-.235.7-.595.7-.289,0-.523-.18-.685-.594-.18-.469-.324-.649-.667-.649-.649,0-1.3.685-2.018,1.676v5.01c0,1.171.09,1.315,1.406,1.315v.5H48.214v-.5c1.081,0,1.171-.126,1.171-1.333v-4.9c0-1.135-.108-1.244-1.171-1.244v-.432a5.258,5.258,0,0,0,2.289-.847l.18.126Z"></path> <path d="M55.716,22.552v-.469c1.423-.108,1.856-.829,2.216-2.7h.487v2.541H60.87v.631H58.419v6.361c0,1.064.378,1.55,1.153,1.55a2.416,2.416,0,0,0,1.478-.54l.306.45a3.111,3.111,0,0,1-2.162.793,1.937,1.937,0,0,1-2.164-1.678,1.968,1.968,0,0,1,0-.491V22.552Z"></path> <path d="M62.8,27.67c.558,2.235,1.423,2.811,3.1,2.811a2.56,2.56,0,0,0,2.7-2.418c0-.054,0-.109,0-.163,0-1.622-.919-2.2-2.847-3.406a9.64,9.64,0,0,1-2.793-2.216,3.6,3.6,0,0,1-.523-1.839c0-1.3.9-3.1,3.911-3.1a7.209,7.209,0,0,1,2.775.486c.09.721.252,1.767.4,2.65l-.684.126c-.379-1.911-.757-2.523-2.559-2.523a2.176,2.176,0,0,0-2.42,1.9c-.006.051-.01.1-.013.153,0,1.352.739,1.856,2.595,3.064a10.677,10.677,0,0,1,2.9,2.144,3.648,3.648,0,0,1,.739,2.235c0,2.036-1.568,3.64-4.325,3.64a9.721,9.721,0,0,1-3.1-.558,20.879,20.879,0,0,0-.54-2.794Z"></path> <path d="M88.181,18.191c-.649,0-.775.126-1.046,1.045L83.855,31.22H82.828L79.62,20.461h-.036L76.449,31.22H75.386l-3.424-11.8c-.343-1.081-.469-1.225-1.154-1.225v-.577h3.55V18.2c-.793,0-1.063.072-1.063.468a3.407,3.407,0,0,0,.144.775l2.793,9.624h.037l2.9-9.966c-.324-.811-.36-.9-1.225-.9v-.577H81.6V18.2c-.757,0-1.045.072-1.045.486a2.81,2.81,0,0,0,.162.775l2.883,9.6h.036l2.595-9.5a3.535,3.535,0,0,0,.162-.883c0-.414-.252-.486-.955-.486v-.577h2.74Z"></path> <path d="M89.357,30.95v-.577c1.315,0,1.423-.108,1.423-1.406V19.6c0-1.3-.108-1.406-1.423-1.406v-.577H94.2a5.448,5.448,0,0,1,4.326,1.5,7.1,7.1,0,0,1,1.64,5.028c0,5.19-2.668,6.812-6.344,6.812Zm3.5-12.615c-.469,0-.559.126-.559.757V29.256c0,.847.09.973.613.973h.865c2.847,0,4.83-1.622,4.83-5.875A7.442,7.442,0,0,0,97.43,19.7a3.833,3.833,0,0,0-3.3-1.37Z"></path> <path d="M115.733,1.163l.405-.428L119.2,3.624l.488,1.524.885.232-.36-2.228L117.827.39l.427-.39,2.522,2.919.45,2.709c2.679,1.148,3.444,4.705,1,7.436,2.326-.21,3.842,2.221,3.076,4.5a8.061,8.061,0,0,1,7.167-.03c3.984,2.1,3.219,6.859-1.944,8.172l2.094,4.457,1.253-.15.09.57-1.674.233-2.363-5a9.472,9.472,0,0,1-1.418.105l1.2,4.87,1.366-.015v.578l-1.831.053-1.366-5.523a6.292,6.292,0,0,1-4.735-2.506l-.075,7.886-1.831-.015-.007-.6,1.223.022.1-8.989-3.392,8.7-1.7-.143.06-.593,1.238.113,3.85-9.808a2.886,2.886,0,0,1-3.032-1.62l-2.266-1.118-4.69,1.673-.9-1.249.473-.357.649.908,4.51-1.606,1.958.946a3.04,3.04,0,0,1-.082-.6l-2.206-1.515-3.365.861.212-.657,3.3-.85,2.071,1.456a5.037,5.037,0,0,1,.706-1.756c-4.682,1.181-7.008-4.177-7.294-8.826a16.039,16.039,0,0,1,6.386-.606l-.36-1.111Zm3.881,5.549a1.115,1.115,0,1,0,1.114,1.116v0A1.114,1.114,0,0,0,119.614,6.712Zm-.182.563a.515.515,0,1,0,.515.515h0a.514.514,0,0,0-.513-.515Z"></path> </g> <rect x="104.052" y="12.888" width="9.255" height="8.843" transform="translate(58.943 115.478) rotate(-72.181)" fill="#0090c1"></rect> </g> <g class="site-logo__claim" style="fill: #494d5c"> <path d="M3.428,42.022,5.176,45.13c.369.622.5.685.91.685V46.1H4.879L2.933,42.59l-.658.837V45.1c0,.658.045.712.667.712V46.1H.807v-.288c.657,0,.711-.054.711-.7V40.427c0-.648-.054-.7-.711-.7v-.289h2.1v.289c-.586,0-.631.063-.631.7v2.352H2.3l1.784-2.3c.234-.306.369-.5.369-.612s-.126-.144-.405-.144v-.289h1.66v.289c-.361,0-.487.045-.811.441Z"></path> <path d="M6.4,43.824c0-1.216.54-2.352,2.108-2.352,1.387,0,2.1.9,2.1,2.352,0,1.3-.46,2.387-2.1,2.387C7.107,46.211,6.4,45.391,6.4,43.824Zm.738.009c0,1.811.8,2.072,1.361,2.072,1.117,0,1.36-1.081,1.36-2.072,0-1.316-.423-2.045-1.36-2.045s-1.365.712-1.365,2.045Z"></path> <path d="M12.382,42.31a2.022,2.022,0,0,1,1.54-.838c1.009,0,1.388.568,1.388,1.478V45.2c0,.568.045.649.5.649V46.1H14.085v-.252c.486,0,.522-.063.522-.667v-2.2c0-.838-.279-1.135-.883-1.135a1.941,1.941,0,0,0-1.342.928v2.423c0,.595.018.658.5.658V46.1h-1.8v-.252c.549,0,.594-.054.594-.667V42.752c0-.586-.054-.649-.594-.64V41.9a2.626,2.626,0,0,0,1.135-.424l.108.064.036.774Z"></path> <path d="M16.539,44.842a1.2,1.2,0,0,0,1.3,1.063c.765,0,1.162-.451,1.162-.892a.723.723,0,0,0-.2-.5,4.631,4.631,0,0,0-1.054-.559,4.828,4.828,0,0,1-1.045-.64,1.141,1.141,0,0,1-.271-.738c0-.577.5-1.1,1.64-1.1a3.17,3.17,0,0,1,1.207.217c.036.252.081.549.162.946l-.27.054c-.144-.721-.432-.9-1.054-.9-.36,0-1.009.153-1.009.676a.781.781,0,0,0,.414.612c.325.171.838.324,1.045.46.577.261,1.163.7,1.163,1.342,0,.865-.847,1.333-1.829,1.333a3.274,3.274,0,0,1-1.424-.279c-.063-.4-.135-.712-.2-1.018Z"></path> <path d="M20.354,43.824c0-1.216.541-2.352,2.108-2.352,1.388,0,2.1.9,2.1,2.352,0,1.3-.46,2.387-2.1,2.387C21.066,46.211,20.354,45.391,20.354,43.824Zm.739.009c0,1.811.8,2.072,1.36,2.072,1.118,0,1.361-1.081,1.361-2.072,0-1.316-.424-2.045-1.361-2.045S21.093,42.5,21.093,43.833Z"></path> <path d="M26.314,42.238h.017c.424-.531.748-.766,1.208-.766a.73.73,0,0,1,.775.649c0,.225-.118.352-.3.352-.144,0-.261-.091-.342-.3-.09-.234-.162-.324-.333-.324-.325,0-.649.342-1.01.838v2.5c0,.586.046.658.7.658V46.1H25.043v-.252c.541,0,.586-.063.586-.667v-2.45c0-.568-.054-.622-.586-.622V41.9a2.607,2.607,0,0,0,1.144-.424l.09.064Z"></path> <path d="M28.807,41.905v-.234c.712-.054.928-.415,1.108-1.352h.243V41.59h1.225v.315H30.158v3.18c0,.532.189.775.577.775a1.206,1.206,0,0,0,.739-.27l.153.225a1.565,1.565,0,0,1-1.081.4.967.967,0,0,1-1.081-.838.988.988,0,0,1,0-.243V41.905Z"></path> <path d="M33.5,41.527v3.666c0,.586.036.658.622.658V46.1H32.129v-.252c.622,0,.667-.072.667-.667V42.725c0-.6-.036-.613-.667-.613V41.9a3.3,3.3,0,0,0,1.279-.424Zm.045-1.172c0,.361-.207.568-.459.568s-.442-.207-.442-.568.2-.567.442-.567c.277,0,.457.234.457.567Z"></path> <path d="M38.44,45.2c0,.595.036.667.586.667v.216a4.058,4.058,0,0,0-1.172.126l-.063-.036-.045-.657h-.027a1.853,1.853,0,0,1-1.441.693c-.73,0-1.424-.252-1.424-1.657V42.716c0-.559-.027-.6-.522-.6V41.9a2.963,2.963,0,0,0,1.126-.424l.108.055v2.955c0,.711.135,1.342.919,1.342a1.571,1.571,0,0,0,1.243-.757V42.716c0-.568-.027-.6-.522-.6V41.9a2.909,2.909,0,0,0,1.126-.424l.108.055Z"></path> <path d="M43.563,42.283a1.97,1.97,0,0,1,1.478-.811,1.207,1.207,0,0,1,.937.37,1.679,1.679,0,0,1,.342,1.207v2.189c0,.55.063.613.514.613V46.1H45.113v-.252c.441,0,.5-.063.5-.568V43.112c0-.468-.063-1.27-.792-1.27a1.52,1.52,0,0,0-1.2.847v2.549c0,.559.045.613.5.613V46.1H42.419v-.252c.469,0,.5-.063.5-.568V43.139c0-.423,0-1.3-.784-1.3-.4,0-.775.306-1.207.856v2.531c0,.559.045.622.522.622V46.1H39.63v-.252c.55,0,.595-.063.595-.667V42.752c0-.586-.054-.649-.595-.64V41.9a2.809,2.809,0,0,0,1.145-.424l.1.064.036.711h.009a2.08,2.08,0,0,1,1.405-.775,1.135,1.135,0,0,1,1.216.811Z"></path> <path d="M49.907,45.851c.64,0,.685-.063.685-.676v-3.27h-.667V41.59h.667v-.658c0-1.451.82-1.784,1.414-1.784a1.087,1.087,0,0,1,1.181.847c0,.207-.091.324-.28.324-.243,0-.324-.216-.414-.432s-.2-.424-.478-.424c-.648,0-.72.892-.72,1.514v.613h1.1v.315H51.3v3.288c0,.613.045.658.747.658V46.1h-2.14Z"></path> <path d="M57.085,45.2c0,.595.036.667.586.667v.216a4.058,4.058,0,0,0-1.172.126l-.063-.036-.045-.657h-.027a1.853,1.853,0,0,1-1.441.693c-.73,0-1.424-.252-1.424-1.657V42.716c0-.559-.027-.6-.522-.6V41.9a2.963,2.963,0,0,0,1.126-.424l.108.055v2.955c0,.711.135,1.342.919,1.342a1.575,1.575,0,0,0,1.243-.757V42.716c0-.568-.027-.6-.522-.6V41.9a2.909,2.909,0,0,0,1.126-.424l.108.055Zm-2.234-4.865a.392.392,0,1,1-.392-.392A.393.393,0,0,1,54.851,40.335Zm1.576,0a.386.386,0,0,1-.372.4H56.04a.392.392,0,0,1-.387-.4v0a.38.38,0,0,1,.371-.387h.016a.368.368,0,0,1,.387.348.281.281,0,0,1,0,.041Z"></path> <path d="M59.542,42.238h.018c.423-.531.748-.766,1.207-.766a.73.73,0,0,1,.775.649c0,.225-.117.352-.3.352-.144,0-.261-.091-.342-.3-.09-.234-.162-.324-.333-.324-.325,0-.649.342-1.009.838v2.5c0,.586.045.658.7.658V46.1H58.271v-.252c.541,0,.586-.063.586-.667v-2.45c0-.568-.054-.622-.586-.622V41.9a2.611,2.611,0,0,0,1.145-.424l.09.064Z"></path> <path d="M67.867,41.968V40.391c0-.531-.045-.6-.586-.6v-.225a2.564,2.564,0,0,0,1.19-.415l.1.054V45.31c0,.523.081.559.54.559v.216a3.375,3.375,0,0,0-1.117.135l-.072-.054-.027-.522h-.018a1.8,1.8,0,0,1-1.342.567c-.748,0-1.9-.405-1.9-2.459a2.018,2.018,0,0,1,2.009-2.28,1.7,1.7,0,0,1,1.207.5Zm0,.514a1.4,1.4,0,0,0-1.108-.667c-1.288,0-1.379,1.378-1.379,2.009,0,1.288.55,2.045,1.316,2.045a1.562,1.562,0,0,0,1.171-.667Z"></path> <path d="M71.08,41.527v3.666c0,.586.036.658.622.658V46.1H69.711v-.252c.621,0,.667-.072.667-.667V42.725c0-.6-.037-.613-.667-.613V41.9a3.279,3.279,0,0,0,1.279-.424Zm.045-1.172c0,.361-.207.568-.459.568s-.441-.207-.441-.568.2-.567.441-.567C70.945,39.788,71.125,40.022,71.125,40.355Z"></path> <path d="M74.117,46.211c-1.235,0-2.055-.766-2.055-2.477a2.027,2.027,0,0,1,1.779-2.249c.059-.007.117-.011.176-.013,1.388,0,1.847,1.181,1.847,2.28H72.81a2.851,2.851,0,0,0,.333,1.531,1.266,1.266,0,0,0,1.073.595,1.546,1.546,0,0,0,1.4-.874l.261.135a1.883,1.883,0,0,1-1.711,1.072Zm1.027-2.775c0-.567-.145-1.648-1.127-1.648-.45,0-1.144.324-1.207,1.648Z"></path> <path d="M1.122,55.276c.279,1.117.712,1.4,1.549,1.4a1.28,1.28,0,0,0,1.35-1.206c0-.027,0-.055,0-.082,0-.811-.46-1.1-1.424-1.7A4.813,4.813,0,0,1,1.2,52.58a1.805,1.805,0,0,1-.261-.919c0-.648.45-1.549,1.955-1.549a3.611,3.611,0,0,1,1.387.243c.045.36.126.883.2,1.324l-.342.063c-.189-.955-.378-1.261-1.279-1.261a1.088,1.088,0,0,0-1.209.952c0,.026,0,.051-.006.077,0,.676.37.928,1.3,1.532a5.32,5.32,0,0,1,1.45,1.072,1.822,1.822,0,0,1,.37,1.117c0,1.018-.784,1.82-2.163,1.82a4.817,4.817,0,0,1-1.549-.28,10.419,10.419,0,0,0-.27-1.4Z"></path> <path d="M5.481,54.636c0-1.216.541-2.351,2.108-2.351,1.388,0,2.1.9,2.1,2.351,0,1.3-.459,2.388-2.1,2.388C6.193,57.024,5.481,56.2,5.481,54.636Zm.739.009c0,1.811.8,2.072,1.36,2.072,1.117,0,1.361-1.081,1.361-2.072,0-1.315-.424-2.045-1.361-2.045S6.22,53.312,6.22,54.645Z"></path> <path d="M10.321,53.573l.207-1.171h3.189l.108.135L11.077,56.6h1.739c.486,0,.586-.144.766-.919h.3l-.216,1.235H10.257l-.108-.153,2.784-4.046H11.348c-.523,0-.577.154-.73.856Z"></path> <path d="M15.782,52.339v3.667c0,.585.036.657.622.657v.253H14.413v-.253c.622,0,.667-.072.667-.666v-2.46c0-.6-.036-.612-.667-.612v-.217a3.316,3.316,0,0,0,1.279-.423Zm.045-1.171c0,.36-.207.567-.459.567s-.442-.207-.442-.567.2-.568.442-.568C15.647,50.6,15.827,50.834,15.827,51.168Z"></path> <path d="M19.655,53.609c0-.657-.252-1.009-.919-1.009a1.016,1.016,0,0,0-1.027.721.324.324,0,0,1-.352.243.269.269,0,0,1-.288-.249.254.254,0,0,1,0-.039c0-.405.6-.991,1.712-.991.91,0,1.577.306,1.577,1.414v2.316c0,.45.1.666.306.666a.5.5,0,0,0,.27-.072l.072.235a1.357,1.357,0,0,1-.621.126.632.632,0,0,1-.676-.514h-.027a1.956,1.956,0,0,1-1.451.568,1.22,1.22,0,0,1-.729-2.28,4.613,4.613,0,0,1,1.54-.567l.613-.153Zm0,.73c-1.541.405-2.045.82-2.045,1.432a.812.812,0,0,0,.919.865,1.572,1.572,0,0,0,1.126-.522Z"></path> <path d="M21.526,56.663c.639,0,.666-.072.666-.666V51.2c0-.541-.027-.6-.666-.6v-.216a3.35,3.35,0,0,0,1.279-.423l.081.063v5.982c0,.585.036.657.64.657v.253h-2Z"></path> <path d="M23.94,54.456h2.045v.424H23.94Z"></path> <path d="M27.147,56.9c-.036.072-.144.09-.216.09-.153,0-.334-.135-.334-.433a.454.454,0,0,1,.438-.468h.022c.315,0,.468.252.468.594a1.562,1.562,0,0,1-.729,1.325l-.154-.181a1.334,1.334,0,0,0,.514-.927Z"></path> <path d="M33.877,55.97l1.559-4.748a1.811,1.811,0,0,0,.09-.424c0-.216-.144-.261-.5-.261v-.288h1.486v.288c-.378,0-.45.081-.594.514l-1.991,6h-.442l-2.072-5.874c-.2-.568-.252-.64-.676-.64v-.288h1.919v.288c-.4,0-.54.063-.54.261a1.46,1.46,0,0,0,.1.433L33.85,55.97Z"></path> <path d="M38.358,57.024c-1.234,0-2.054-.766-2.054-2.478A2.027,2.027,0,0,1,38.083,52.3c.058-.007.117-.011.176-.013,1.388,0,1.847,1.18,1.847,2.279H37.052a2.855,2.855,0,0,0,.333,1.532,1.265,1.265,0,0,0,1.073.594,1.543,1.543,0,0,0,1.4-.873l.261.135A1.885,1.885,0,0,1,38.4,57.024Zm1.027-2.775c0-.568-.144-1.649-1.126-1.649-.45,0-1.144.325-1.207,1.649Z"></path> <path d="M41.837,53.051h.018c.424-.532.748-.766,1.208-.766a.728.728,0,0,1,.774.649c0,.225-.117.351-.3.351-.144,0-.261-.09-.342-.3-.09-.235-.162-.325-.334-.325-.324,0-.648.343-1.009.838V56c0,.585.045.657.7.657v.253H40.567V56.66c.541,0,.586-.063.586-.666V53.546c0-.567-.054-.621-.586-.621v-.217a2.622,2.622,0,0,0,1.144-.423l.09.063Z"></path> <path d="M44.064,56.663c.55,0,.595-.063.595-.666V51.2c0-.541-.064-.6-.586-.6v-.216a2.979,2.979,0,0,0,1.189-.423l.1.063V53.1h.018a2.069,2.069,0,0,1,1.577-.811c1.333,0,1.333,1.135,1.333,1.658V56.01c0,.585.045.657.532.657v.253H47.046v-.253c.495,0,.541-.063.541-.666V53.97c0-.676-.046-1.316-.865-1.316a2,2,0,0,0-1.361.928v2.424c0,.594.045.657.505.657v.253h-1.8Z"></path> <path d="M52.074,53.609c0-.657-.253-1.009-.919-1.009a1.016,1.016,0,0,0-1.027.721.324.324,0,0,1-.352.243.269.269,0,0,1-.288-.249.254.254,0,0,1,0-.039c0-.405.6-.991,1.712-.991.91,0,1.576.306,1.576,1.414v2.316c0,.45.1.666.307.666a.5.5,0,0,0,.27-.072l.072.235a1.348,1.348,0,0,1-.622.126.631.631,0,0,1-.675-.514H52.1a1.956,1.956,0,0,1-1.451.568,1.22,1.22,0,0,1-.729-2.28,4.591,4.591,0,0,1,1.54-.567l.613-.153Zm0,.73c-1.541.405-2.045.82-2.045,1.432a.812.812,0,0,0,.919.865,1.572,1.572,0,0,0,1.126-.522Z"></path> <path d="M53.945,56.663c.639,0,.666-.072.666-.666V51.2c0-.541-.027-.6-.666-.6v-.216a3.35,3.35,0,0,0,1.279-.423l.081.063v5.982c0,.585.036.657.64.657v.253h-2Z"></path> <path d="M56.138,52.717v-.234c.711-.054.928-.414,1.108-1.351h.243V52.4h1.225v.315H57.489V55.9c0,.531.189.774.576.774a1.206,1.206,0,0,0,.739-.27l.153.225a1.556,1.556,0,0,1-1.081.4A.968.968,0,0,1,56.8,55.943V52.717Z"></path> <path d="M61.248,57.024c-1.234,0-2.054-.766-2.054-2.478A2.026,2.026,0,0,1,60.97,52.3c.06-.007.119-.011.179-.013,1.387,0,1.847,1.18,1.847,2.279H59.942a2.855,2.855,0,0,0,.333,1.532,1.261,1.261,0,0,0,1.072.594,1.543,1.543,0,0,0,1.4-.873l.262.135A1.885,1.885,0,0,1,61.3,57.024Zm1.027-2.775c0-.568-.144-1.649-1.126-1.649-.451,0-1.144.325-1.207,1.649Z"></path> <path d="M64.754,53.123a2.019,2.019,0,0,1,1.54-.838c1.009,0,1.388.568,1.388,1.477v2.253c0,.567.045.648.5.648v.253h-1.73v-.253c.487,0,.523-.063.523-.666V53.789c0-.837-.279-1.135-.883-1.135a1.946,1.946,0,0,0-1.342.928v2.424c0,.594.018.657.5.657v.253h-1.8v-.253c.55,0,.595-.054.595-.666V53.564c0-.585-.054-.648-.595-.639v-.217a2.646,2.646,0,0,0,1.136-.423l.108.063.036.775Z"></path> <path d="M68.911,55.654a1.2,1.2,0,0,0,1.3,1.063c.766,0,1.162-.45,1.162-.891a.72.72,0,0,0-.2-.505,4.671,4.671,0,0,0-1.054-.559,4.863,4.863,0,0,1-1.045-.639,1.136,1.136,0,0,1-.271-.739c0-.577.505-1.1,1.64-1.1a3.169,3.169,0,0,1,1.207.216c.036.252.081.55.162.946l-.27.054c-.144-.721-.432-.9-1.054-.9-.36,0-1.009.153-1.009.676a.783.783,0,0,0,.414.613c.325.171.838.324,1.046.459.576.261,1.162.7,1.162,1.342,0,.865-.847,1.334-1.829,1.334a3.26,3.26,0,0,1-1.424-.28c-.063-.4-.135-.711-.2-1.018Z"></path> <path d="M72.71,54.456h2.045v.424H72.71Z"></path> <path d="M75.917,56.9c-.036.072-.144.09-.216.09-.153,0-.334-.135-.334-.433a.454.454,0,0,1,.438-.468h.022c.315,0,.468.252.468.594a1.562,1.562,0,0,1-.729,1.325l-.154-.181a1.334,1.334,0,0,0,.514-.927Z"></path> <path d="M80.422,51.258c0-.667-.054-.721-.712-.721v-.288H81.9a2.62,2.62,0,0,1,1.693.387,1.364,1.364,0,0,1,.55,1.108c0,.424-.135,1.388-1.6,1.631v.018c1.036.036,1.919.586,1.919,1.631a1.837,1.837,0,0,1-.486,1.333,2.168,2.168,0,0,1-1.694.559H79.71v-.289c.658,0,.712-.054.712-.72Zm1.009-.649c-.225,0-.252.081-.252.307V53.24h.63c.946,0,1.568-.469,1.568-1.405,0-.721-.4-1.226-1.342-1.226Zm-.252,3V56.1c0,.378.054.45.333.45h.748c1,0,1.414-.549,1.414-1.54a1.321,1.321,0,0,0-.441-1.036,1.819,1.819,0,0,0-1.252-.361Z"></path> <path d="M86.266,52.339v3.667c0,.585.036.657.622.657v.253H84.9v-.253c.621,0,.666-.072.666-.666v-2.46c0-.6-.036-.612-.666-.612v-.217a3.316,3.316,0,0,0,1.279-.423Zm.045-1.171c0,.36-.207.567-.459.567s-.442-.207-.442-.567.2-.568.442-.568C86.131,50.6,86.311,50.834,86.311,51.168Z"></path> <path d="M87.44,56.663c.64,0,.667-.072.667-.666V51.2c0-.541-.027-.6-.667-.6v-.216a3.35,3.35,0,0,0,1.279-.423l.082.063v5.982c0,.585.036.657.639.657v.253h-2Z"></path> <path d="M93.048,52.78V51.2c0-.532-.045-.6-.586-.6v-.225a2.544,2.544,0,0,0,1.189-.414l.1.054v6.108c0,.522.081.558.541.558V56.9a3.375,3.375,0,0,0-1.117.135l-.072-.054-.027-.523h-.018a1.8,1.8,0,0,1-1.343.568c-.748,0-1.9-.406-1.9-2.46A2.016,2.016,0,0,1,91.553,52.3a2.044,2.044,0,0,1,.271-.017,1.7,1.7,0,0,1,1.208.5Zm0,.514a1.408,1.408,0,0,0-1.108-.667c-1.289,0-1.379,1.379-1.379,2.009,0,1.289.55,2.045,1.316,2.045a1.565,1.565,0,0,0,1.171-.666Z"></path> <path d="M98.689,56.015c0,.594.036.666.585.666V56.9a4.055,4.055,0,0,0-1.171.126l-.063-.036L98,56.33h-.027a1.857,1.857,0,0,1-1.441.694c-.73,0-1.424-.253-1.424-1.658V53.528c0-.558-.027-.6-.522-.6v-.217a2.984,2.984,0,0,0,1.126-.423l.108.054V55.3c0,.712.135,1.342.919,1.342a1.574,1.574,0,0,0,1.243-.756V53.528c0-.567-.027-.6-.522-.6v-.217a2.907,2.907,0,0,0,1.126-.423l.108.054Z"></path> <path d="M101.172,53.123a2.021,2.021,0,0,1,1.541-.838c1.009,0,1.387.568,1.387,1.477v2.253c0,.567.045.648.505.648v.253h-1.73v-.253c.487,0,.523-.063.523-.666V53.789c0-.837-.28-1.135-.883-1.135a1.948,1.948,0,0,0-1.343.928v2.424c0,.594.018.657.505.657v.253h-1.8v-.253c.55,0,.595-.054.595-.666V53.564c0-.585-.054-.648-.595-.639v-.217a2.637,2.637,0,0,0,1.135-.423l.108.063.036.775Z"></path> <path d="M108.416,52.789a1.56,1.56,0,0,1,.5,1.163,1.659,1.659,0,0,1-1.635,1.683,1.626,1.626,0,0,1-.185-.008,2.247,2.247,0,0,1-.883-.171c-.288.18-.45.352-.45.55,0,.27.3.387.829.387H107.6c1.378,0,1.784.667,1.784,1.288,0,.9-.829,1.649-2.406,1.649-1.225,0-2.072-.405-2.072-1.2a1.528,1.528,0,0,1,1.063-1.27c-.36-.073-.712-.28-.712-.685,0-.387.325-.64.685-.856a1.558,1.558,0,0,1-.721-1.36,1.675,1.675,0,0,1,1.667-1.683c.054,0,.108,0,.162.007a2.176,2.176,0,0,1,1.063.261l1.307-.135v.423Zm-2.063,4.172c-.523.315-.829.657-.829,1.09,0,.6.612.973,1.5.973,1.208,0,1.757-.586,1.757-1.181,0-.414-.216-.882-1.27-.882Zm1.837-3.009a1.2,1.2,0,0,0-1.037-1.343c-.032-.005-.065-.007-.1-.009a1.214,1.214,0,0,0-1.131,1.293c0,.02,0,.039,0,.059,0,.8.433,1.369,1.144,1.369C107.812,55.321,108.19,54.726,108.19,53.952Z"></path> <path d="M110.094,55.654a1.193,1.193,0,0,0,1.3,1.063c.766,0,1.162-.45,1.162-.891a.72.72,0,0,0-.2-.505,4.671,4.671,0,0,0-1.054-.559,4.863,4.863,0,0,1-1.045-.639,1.142,1.142,0,0,1-.27-.739c0-.577.5-1.1,1.639-1.1a3.169,3.169,0,0,1,1.207.216c.037.252.082.55.163.946l-.27.054c-.145-.721-.433-.9-1.055-.9-.36,0-1.009.153-1.009.676a.784.784,0,0,0,.415.613c.324.171.838.324,1.045.459.576.261,1.162.7,1.162,1.342,0,.865-.847,1.334-1.829,1.334a3.256,3.256,0,0,1-1.423-.28c-.063-.4-.136-.711-.2-1.018Z"></path> <path d="M113.892,54.456h2.046v.424h-2.046Z"></path> <path d="M123.236,56.015c0,.594.036.666.585.666V56.9a4.055,4.055,0,0,0-1.171.126l-.063-.036-.045-.658h-.027a1.857,1.857,0,0,1-1.441.694c-.73,0-1.424-.253-1.424-1.658v-1.84c0-.558-.027-.6-.522-.6v-.217a2.984,2.984,0,0,0,1.126-.423l.108.054V55.3c0,.712.135,1.342.919,1.342a1.574,1.574,0,0,0,1.243-.756V53.528c0-.567-.027-.6-.522-.6v-.217a2.907,2.907,0,0,0,1.126-.423l.108.054Z"></path> <path d="M125.719,53.123a2.021,2.021,0,0,1,1.541-.838c1.009,0,1.387.568,1.387,1.477v2.253c0,.567.045.648.5.648v.253h-1.73v-.253c.487,0,.523-.063.523-.666V53.789c0-.837-.28-1.135-.883-1.135a1.948,1.948,0,0,0-1.343.928v2.424c0,.594.018.657.5.657v.253h-1.8v-.253c.55,0,.595-.054.595-.666V53.564c0-.585-.054-.648-.595-.639v-.217a2.637,2.637,0,0,0,1.135-.423l.108.063.036.775Z"></path> <path d="M132.785,52.78V51.2c0-.532-.045-.6-.586-.6v-.225a2.563,2.563,0,0,0,1.19-.414l.1.054v6.108c0,.522.081.558.54.558V56.9a3.375,3.375,0,0,0-1.117.135l-.072-.054-.027-.523h-.018a1.8,1.8,0,0,1-1.342.568c-.748,0-1.9-.406-1.9-2.46a2.016,2.016,0,0,1,1.738-2.262,2.044,2.044,0,0,1,.271-.017,1.7,1.7,0,0,1,1.207.5Zm0,.514a1.405,1.405,0,0,0-1.108-.667c-1.288,0-1.379,1.379-1.379,2.009,0,1.289.55,2.045,1.316,2.045a1.565,1.565,0,0,0,1.171-.666Z"></path> <path d="M9.293,61.35c-.324,0-.387.063-.522.522l-1.64,5.991H6.617l-1.6-5.378H5L3.428,67.863H2.9l-1.712-5.9c-.171-.54-.234-.612-.577-.612v-.288H2.383v.288c-.4,0-.531.036-.531.234a1.7,1.7,0,0,0,.072.387l1.4,4.811h.018L4.789,61.8c-.163-.4-.181-.45-.613-.45v-.288H6.005v.288c-.379,0-.523.036-.523.243a1.428,1.428,0,0,0,.081.387l1.442,4.8h.018l1.3-4.748a1.742,1.742,0,0,0,.081-.441c0-.207-.126-.243-.477-.243V61.06H9.293Z"></path> <path d="M10.774,63.152v3.666c0,.586.036.658.621.658v.252H9.4v-.252c.622,0,.667-.072.667-.667V64.35c0-.6-.036-.613-.667-.613v-.216a3.32,3.32,0,0,0,1.28-.423Zm.045-1.172c0,.361-.208.568-.46.568s-.441-.207-.441-.568.2-.567.441-.567C10.638,61.413,10.819,61.647,10.819,61.98Z"></path> <path d="M13.231,63.863h.018c.423-.531.748-.765,1.207-.765a.73.73,0,0,1,.775.648c0,.226-.117.351-.3.351-.144,0-.261-.09-.342-.3-.09-.234-.162-.324-.333-.324-.325,0-.649.342-1.009.838v2.5c0,.586.045.658.7.658v.252H11.96v-.252c.541,0,.586-.063.586-.667v-2.45c0-.568-.054-.622-.586-.622v-.216a2.622,2.622,0,0,0,1.145-.423l.09.063Z"></path> <path d="M15.724,63.53V63.3c.712-.054.928-.415,1.108-1.352h.243v1.271H18.3v.315H17.075v3.18c0,.532.19.775.577.775a1.206,1.206,0,0,0,.739-.27l.153.225a1.556,1.556,0,0,1-1.081.4.967.967,0,0,1-1.081-.838.988.988,0,0,1,0-.243V63.53Z"></path> <path d="M19.2,66.467a1.194,1.194,0,0,0,1.3,1.063c.766,0,1.163-.45,1.163-.892a.727.727,0,0,0-.2-.5,4.61,4.61,0,0,0-1.054-.559,4.828,4.828,0,0,1-1.045-.64,1.14,1.14,0,0,1-.27-.738c0-.577.5-1.1,1.64-1.1a3.172,3.172,0,0,1,1.207.216c.036.252.081.549.162.946l-.27.054c-.144-.721-.433-.9-1.054-.9-.361,0-1.009.153-1.009.675a.781.781,0,0,0,.414.613c.324.171.838.325,1.045.46.577.261,1.162.7,1.162,1.342,0,.865-.847,1.333-1.829,1.333a3.269,3.269,0,0,1-1.423-.279c-.063-.4-.135-.712-.2-1.018Z"></path> <path d="M26.691,66.863a1.851,1.851,0,0,1-1.658.973c-1.45,0-2.027-1.153-2.027-2.4a2.11,2.11,0,0,1,1.87-2.324c.067-.007.134-.011.2-.012.9,0,1.5.5,1.5.936,0,.2-.09.325-.262.325-.216,0-.306-.18-.468-.5a.77.77,0,0,0-.757-.441c-.675,0-1.333.657-1.333,2.036,0,1.468.658,2.045,1.4,2.045a1.445,1.445,0,0,0,1.28-.784Z"></path> <path d="M27.081,67.476c.55,0,.595-.063.595-.667v-4.8c0-.54-.063-.594-.586-.594V61.2a3,3,0,0,0,1.19-.424l.1.063v3.072h.02a2.071,2.071,0,0,1,1.576-.81c1.334,0,1.334,1.135,1.334,1.657v2.063c0,.586.045.658.531.658v.252H30.064v-.252c.5,0,.54-.063.54-.667v-2.03c0-.676-.045-1.315-.865-1.315a2,2,0,0,0-1.36.928v2.423c0,.595.045.658.5.658v.252h-1.8Z"></path> <path d="M35.091,64.422c0-.658-.252-1.009-.919-1.009a1.016,1.016,0,0,0-1.027.721.324.324,0,0,1-.351.243.269.269,0,0,1-.288-.248.28.28,0,0,1,0-.041c0-.4.6-.99,1.711-.99.91,0,1.577.306,1.577,1.414v2.315c0,.451.1.667.306.667a.5.5,0,0,0,.27-.072l.072.234a1.357,1.357,0,0,1-.621.126.632.632,0,0,1-.676-.513h-.027a1.953,1.953,0,0,1-1.45.567,1.219,1.219,0,0,1-.73-2.279,4.637,4.637,0,0,1,1.54-.568l.613-.153Zm0,.73c-1.54.405-2.045.819-2.045,1.432a.812.812,0,0,0,.919.865,1.567,1.567,0,0,0,1.126-.523Z"></path> <path d="M36.971,67.476c.64,0,.685-.063.685-.676V63.53h-.667v-.315h.667v-.658c0-1.451.82-1.784,1.414-1.784a1.085,1.085,0,0,1,1.18.847c0,.207-.09.324-.279.324-.243,0-.324-.216-.414-.432s-.2-.423-.478-.423c-.648,0-.721.891-.721,1.513v.613h1.109v.315H38.358v3.288c0,.613.046.658.748.658v.252H36.971Z"></path> <path d="M40.019,63.53V63.3c.712-.054.928-.415,1.108-1.352h.244v1.271H42.6v.315H41.371v3.18c0,.532.189.775.576.775a1.206,1.206,0,0,0,.739-.27l.153.225a1.556,1.556,0,0,1-1.081.4.967.967,0,0,1-1.081-.838.988.988,0,0,1,0-.243V63.53Z"></path> <path d="M43.5,66.467a1.194,1.194,0,0,0,1.3,1.063c.765,0,1.162-.45,1.162-.892a.717.717,0,0,0-.2-.5,4.61,4.61,0,0,0-1.054-.559,4.828,4.828,0,0,1-1.045-.64,1.14,1.14,0,0,1-.27-.738c0-.577.505-1.1,1.64-1.1a3.172,3.172,0,0,1,1.207.216c.036.252.081.549.162.946l-.27.054c-.144-.721-.433-.9-1.054-.9-.361,0-1.009.153-1.009.675a.781.781,0,0,0,.414.613c.325.171.838.325,1.045.46.577.261,1.162.7,1.162,1.342,0,.865-.846,1.333-1.828,1.333a3.274,3.274,0,0,1-1.424-.279c-.063-.4-.135-.712-.2-1.018Z"></path> <path d="M53.657,63.467c-.261,0-.342.054-.468.441L51.9,67.845h-.4l-1.081-3.5H50.4l-1.126,3.5h-.4l-1.3-3.745c-.207-.594-.261-.63-.595-.63v-.252h1.631v.252c-.324,0-.45.045-.45.207a1.069,1.069,0,0,0,.072.315l.982,2.9h.027l.973-3.072-.063-.189c-.063-.144-.145-.162-.5-.162v-.252h1.658v.252c-.325,0-.451.027-.451.2a1.1,1.1,0,0,0,.054.279l.928,2.955h.027l.991-3.081a.644.644,0,0,0,.036-.162c0-.135-.117-.189-.441-.189v-.252h1.207Z"></path> <path d="M55.578,63.152v3.666c0,.586.036.658.622.658v.252H54.209v-.252c.621,0,.666-.072.666-.667V64.35c0-.6-.036-.613-.666-.613v-.216a3.316,3.316,0,0,0,1.279-.423Zm.045-1.172c0,.361-.207.568-.459.568s-.442-.207-.442-.568.2-.567.442-.567C55.443,61.413,55.623,61.647,55.623,61.98Z"></path> <path d="M56.915,66.467a1.2,1.2,0,0,0,1.3,1.063c.765,0,1.162-.45,1.162-.892a.717.717,0,0,0-.2-.5,4.61,4.61,0,0,0-1.054-.559,4.828,4.828,0,0,1-1.045-.64,1.14,1.14,0,0,1-.27-.738c0-.577.5-1.1,1.64-1.1a3.172,3.172,0,0,1,1.207.216c.036.252.081.549.162.946l-.27.054c-.144-.721-.433-.9-1.054-.9-.361,0-1.009.153-1.009.675a.781.781,0,0,0,.414.613c.325.171.838.325,1.045.46.577.261,1.163.7,1.163,1.342,0,.865-.847,1.333-1.829,1.333a3.274,3.274,0,0,1-1.424-.279c-.063-.4-.135-.712-.2-1.018Z"></path> <path d="M60.965,66.467a1.2,1.2,0,0,0,1.3,1.063c.765,0,1.162-.45,1.162-.892a.723.723,0,0,0-.2-.5,4.631,4.631,0,0,0-1.054-.559,4.834,4.834,0,0,1-1.046-.64,1.14,1.14,0,0,1-.27-.738c0-.577.505-1.1,1.64-1.1a3.172,3.172,0,0,1,1.207.216c.036.252.081.549.162.946l-.27.054c-.144-.721-.433-.9-1.054-.9-.36,0-1.009.153-1.009.675a.781.781,0,0,0,.414.613c.325.171.838.325,1.045.46.577.261,1.163.7,1.163,1.342,0,.865-.847,1.333-1.829,1.333a3.274,3.274,0,0,1-1.424-.279c-.063-.4-.135-.712-.2-1.018Z"></path> <path d="M66.824,67.836c-1.234,0-2.054-.765-2.054-2.477a2.026,2.026,0,0,1,1.781-2.246c.058-.007.116-.011.174-.013,1.388,0,1.847,1.18,1.847,2.279H65.518a2.851,2.851,0,0,0,.333,1.531,1.266,1.266,0,0,0,1.073.595,1.546,1.546,0,0,0,1.4-.874l.261.135a1.883,1.883,0,0,1-1.711,1.072Zm1.027-2.774c0-.568-.144-1.649-1.126-1.649-.45,0-1.144.324-1.207,1.649Z"></path> <path d="M70.33,63.935a2.022,2.022,0,0,1,1.541-.837c1.009,0,1.387.567,1.387,1.477v2.252c0,.568.045.649.505.649v.252h-1.73v-.252c.487,0,.523-.063.523-.667V64.6c0-.838-.28-1.135-.883-1.135a1.945,1.945,0,0,0-1.343.928v2.423c0,.595.018.658.5.658v.252h-1.8v-.252c.55,0,.595-.054.595-.667v-2.43c0-.586-.054-.649-.595-.64v-.216a2.637,2.637,0,0,0,1.135-.423l.108.063.036.774Z"></path> <path d="M74.488,66.467a1.193,1.193,0,0,0,1.3,1.063c.766,0,1.162-.45,1.162-.892a.723.723,0,0,0-.2-.5,4.61,4.61,0,0,0-1.054-.559,4.828,4.828,0,0,1-1.045-.64,1.14,1.14,0,0,1-.27-.738c0-.577.5-1.1,1.639-1.1a3.178,3.178,0,0,1,1.208.216c.036.252.081.549.162.946l-.27.054c-.145-.721-.433-.9-1.055-.9-.36,0-1.009.153-1.009.675a.784.784,0,0,0,.415.613c.324.171.838.325,1.045.46.577.261,1.162.7,1.162,1.342,0,.865-.847,1.333-1.829,1.333a3.272,3.272,0,0,1-1.423-.279c-.063-.4-.135-.712-.2-1.018Z"></path> <path d="M81.978,66.863a1.853,1.853,0,0,1-1.658.973c-1.451,0-2.027-1.153-2.027-2.4a2.11,2.11,0,0,1,1.87-2.324c.067-.007.134-.011.2-.012.9,0,1.5.5,1.5.936,0,.2-.09.325-.261.325-.216,0-.306-.18-.468-.5a.771.771,0,0,0-.757-.441c-.676,0-1.333.657-1.333,2.036,0,1.468.657,2.045,1.4,2.045a1.441,1.441,0,0,0,1.279-.784Z"></path> <path d="M82.368,67.476c.55,0,.595-.063.595-.667v-4.8c0-.54-.063-.594-.586-.594V61.2a3,3,0,0,0,1.189-.424l.1.063v3.072h.018a2.071,2.071,0,0,1,1.576-.81c1.334,0,1.334,1.135,1.334,1.657v2.063c0,.586.045.658.531.658v.252H85.35v-.252c.5,0,.541-.063.541-.667v-2.03c0-.676-.045-1.315-.865-1.315a2,2,0,0,0-1.36.928v2.423c0,.595.045.658.5.658v.252h-1.8Z"></path> <path d="M90.378,64.422c0-.658-.252-1.009-.919-1.009a1.015,1.015,0,0,0-1.027.721.324.324,0,0,1-.351.243.269.269,0,0,1-.289-.247.294.294,0,0,1,0-.042c0-.4.6-.99,1.712-.99.91,0,1.577.306,1.577,1.414v2.315c0,.451.1.667.306.667a.5.5,0,0,0,.27-.072l.072.234a1.357,1.357,0,0,1-.621.126.632.632,0,0,1-.676-.513h-.027a1.955,1.955,0,0,1-1.451.567,1.219,1.219,0,0,1-.729-2.279,4.637,4.637,0,0,1,1.54-.568l.613-.153Zm0,.73c-1.541.405-2.045.819-2.045,1.432a.812.812,0,0,0,.919.865,1.567,1.567,0,0,0,1.126-.523Z"></path> <path d="M92.258,67.476c.639,0,.684-.063.684-.676V63.53h-.666v-.315h.666v-.658c0-1.451.82-1.784,1.415-1.784a1.085,1.085,0,0,1,1.18.847c0,.207-.09.324-.279.324-.243,0-.324-.216-.415-.432s-.2-.423-.477-.423c-.649,0-.721.891-.721,1.513v.613h1.108v.315H93.645v3.288c0,.613.045.658.748.658v.252H92.258Z"></path> <path d="M95.306,63.53V63.3c.712-.054.928-.415,1.108-1.352h.243v1.271h1.226v.315H96.657v3.18c0,.532.19.775.577.775a1.206,1.206,0,0,0,.739-.27l.153.225a1.565,1.565,0,0,1-1.081.4.967.967,0,0,1-1.081-.838.988.988,0,0,1,0-.243V63.53Z"></path> <path d="M100.417,67.836c-1.235,0-2.055-.765-2.055-2.477a2.027,2.027,0,0,1,1.779-2.248c.058-.007.117-.011.176-.013,1.388,0,1.847,1.18,1.847,2.279H99.11a2.851,2.851,0,0,0,.333,1.531,1.266,1.266,0,0,0,1.073.595,1.546,1.546,0,0,0,1.4-.874l.261.135a1.883,1.883,0,0,1-1.711,1.072Zm1.026-2.774c0-.568-.144-1.649-1.126-1.649-.45,0-1.144.324-1.207,1.649Z"></path> <path d="M103.922,63.935a2.022,2.022,0,0,1,1.541-.837c1.009,0,1.387.567,1.387,1.477v2.252c0,.568.045.649.505.649v.252h-1.73v-.252c.487,0,.523-.063.523-.667V64.6c0-.838-.28-1.135-.883-1.135a1.945,1.945,0,0,0-1.343.928v2.423c0,.595.018.658.505.658v.252h-1.8v-.252c.55,0,.595-.054.595-.667v-2.43c0-.586-.054-.649-.595-.64v-.216a2.637,2.637,0,0,0,1.135-.423l.108.063.036.774Z"></path> </g> </svg>
